<svg width="81" height="82" viewBox="0 0 81 82" fill="none" xmlns="http://www.w3.org/2000/svg">
<rect x="21" y="21" width="60" height="60" rx="30" fill="#E7E7E7"/>
<rect x="1" y="1" width="63.6735" height="80" rx="1" stroke="#FC131F" stroke-width="2"/>
<rect x="6.33203" y="22.3335" width="53.3333" height="53.3333" rx="1" stroke="#FC131F" stroke-width="2"/>
<path d="M1 2C1 1.44771 1.44772 1 2 1H63.6735C64.2258 1 64.6735 1.44772 64.6735 2V17.3265H1V2Z" stroke="#FC131F" stroke-width="2"/>
<path d="M11.668 28.3042H54.3346" stroke="#FC131F" stroke-width="2" stroke-miterlimit="22.93" stroke-linecap="round"/>
<path d="M14.332 9H22.332" stroke="#FC131F" stroke-width="2" stroke-miterlimit="22.93" stroke-linecap="round"/>
<path d="M29 9H37" stroke="#FC131F" stroke-width="2" stroke-miterlimit="22.93" stroke-linecap="round"/>
<path d="M43.6641 9H51.6641" stroke="#FC131F" stroke-width="2" stroke-miterlimit="22.93" stroke-linecap="round"/>
<path d="M38.5703 72.4078C40.3159 73.1285 42.2039 73.4793 44.1046 73.4359C48.0947 73.4359 51.9214 71.9194 54.7428 69.2199C57.5642 66.5204 59.1493 62.8591 59.1493 59.0415C59.1493 55.2238 57.5642 51.5625 54.7428 48.863C51.9214 46.1635 48.0947 44.647 44.1046 44.647C42.2189 44.6155 40.3475 44.9659 38.6133 45.6751" stroke="#FC131F" stroke-width="2" stroke-miterlimit="10"/>
<path d="M27.457 72.397C29.2159 73.0759 31.0947 73.425 32.9913 73.4252C34.967 73.4252 36.9234 73.0529 38.7487 72.3295C40.574 71.6061 42.2325 70.5458 43.6295 69.2092C45.0265 67.8725 46.1347 66.2857 46.8908 64.5393C47.6468 62.7928 48.036 60.921 48.036 59.0307C48.036 57.1404 47.6468 55.2686 46.8908 53.5222C46.1347 51.7758 45.0265 50.1889 43.6295 48.8523C42.2325 47.5156 40.574 46.4553 38.7487 45.7319C36.9234 45.0086 34.967 44.6362 32.9913 44.6362C31.0947 44.6365 29.2159 44.9855 27.457 45.6644" stroke="#FC131F" stroke-width="2" stroke-miterlimit="10"/>
<path fill-rule="evenodd" clip-rule="evenodd" d="M21.9158 73.4252C24.8913 73.4252 27.8 72.581 30.2741 70.9993C32.7482 69.4176 34.6765 67.1695 35.8152 64.5393C36.9539 61.909 37.2518 59.0148 36.6713 56.2225C36.0908 53.4302 34.658 50.8654 32.5539 48.8523C30.4499 46.8392 27.7692 45.4682 24.8508 44.9128C21.9324 44.3574 18.9075 44.6425 16.1584 45.732C13.4094 46.8214 11.0597 48.6664 9.40658 51.0336C7.75345 53.4007 6.87109 56.1838 6.87109 59.0307C6.87109 62.8484 8.45615 66.5097 11.2776 69.2092C14.099 71.9087 17.9257 73.4252 21.9158 73.4252V73.4252Z" stroke="#FC131F" stroke-width="2" stroke-miterlimit="10"/>
<path fill-rule="evenodd" clip-rule="evenodd" d="M21.9174 65.1479C23.182 65.1479 24.4182 64.7891 25.4697 64.1169C26.5212 63.4447 27.3407 62.4892 27.8247 61.3714C28.3086 60.2535 28.4353 59.0235 28.1885 57.8368C27.9418 56.6501 27.3329 55.56 26.4386 54.7044C25.5444 53.8489 24.4051 53.2662 23.1648 53.0301C21.9245 52.7941 20.6389 52.9152 19.4705 53.3783C18.3022 53.8413 17.3036 54.6254 16.601 55.6315C15.8984 56.6375 15.5234 57.8203 15.5234 59.0303C15.5375 60.6486 16.2156 62.1969 17.4117 63.3413C18.6078 64.4856 20.226 65.1345 21.9174 65.1479V65.1479Z" stroke="#FC131F" stroke-width="2" stroke-miterlimit="10"/>
</svg>
