<svg width="81" height="82" viewBox="0 0 81 82" fill="none" xmlns="http://www.w3.org/2000/svg">
<rect x="21" y="21" width="60" height="60" rx="30" fill="#E7E7E7"/>
<rect x="1" y="1" width="63.6735" height="80" rx="1" stroke="#FC131F" stroke-width="2" stroke-linejoin="round"/>
<path d="M1 2C1 1.44771 1.44772 1 2 1H63.6735C64.2258 1 64.6735 1.44772 64.6735 2V17.3265H1V2Z" stroke="#FC131F" stroke-width="2" stroke-linejoin="round"/>
<path d="M32.89 71.2727C45.3093 71.2532 55.3614 61.1695 55.3419 48.7501C55.3224 36.3308 45.2387 26.2787 32.8193 26.2982C20.3999 26.3177 10.3478 36.4014 10.3674 48.8208C10.3869 61.2402 20.4706 71.2922 32.89 71.2727Z" stroke="#FC131F" stroke-width="2" stroke-miterlimit="22.93" stroke-linejoin="round"/>
<path d="M7.53125 9.14062H17.8502" stroke="#FC131F" stroke-width="2" stroke-miterlimit="22.93" stroke-linecap="round" stroke-linejoin="round"/>
<path d="M24.5469 1V17.0202" stroke="#FC131F" stroke-width="2" stroke-miterlimit="22.93" stroke-linejoin="round"/>
<path d="M32.9293 64.8587C41.7268 64.8587 48.8586 57.7269 48.8586 48.9293C48.8586 40.1318 41.7268 33 32.9293 33C24.1318 33 17 40.1318 17 48.9293C17 57.7269 24.1318 64.8587 32.9293 64.8587Z" stroke="#FC131F" stroke-width="2" stroke-miterlimit="22.93" stroke-linejoin="round"/>
<path d="M32.5298 60.9613C32.2284 60.4884 32.0431 59.9509 31.9891 59.3927C31.9352 58.8346 32.0141 58.2716 32.2194 57.7497C33.1614 55.8977 34.3604 54.9021 34.3604 52.9431C34.5103 49.4853 32.2943 48.1365 32.3692 45.2353C32.4442 42.3342 35.8163 40.054 32.9687 36.4036" stroke="#FC131F" stroke-width="2" stroke-miterlimit="22.93" stroke-linecap="round" stroke-linejoin="round"/>
<path d="M26.802 58.9276C26.5547 58.5458 26.4031 58.11 26.3602 57.6571C26.3174 57.2042 26.3845 56.7477 26.5558 56.3262C27.2945 54.8596 28.2258 54.0674 28.3008 52.5152C28.4078 49.7747 26.6522 48.6934 26.7164 46.4025C26.7806 44.1116 29.4462 42.2917 27.1874 39.3906" stroke="#FC131F" stroke-width="2" stroke-miterlimit="22.93" stroke-linecap="round" stroke-linejoin="round"/>
<path d="M38.3567 58.4781C38.1094 58.0964 37.9578 57.6605 37.9149 57.2076C37.8721 56.7547 37.9392 56.2982 38.1105 55.8768C38.8599 54.4102 39.7912 53.618 39.8555 52.0657C39.9732 49.3252 38.2176 48.244 38.2711 45.9531C38.3246 43.6622 41.0116 41.8316 38.7528 38.9412" stroke="#FC131F" stroke-width="2" stroke-miterlimit="22.93" stroke-linecap="round" stroke-linejoin="round"/>
<path fill-rule="evenodd" clip-rule="evenodd" d="M32.0296 12.414C32.6318 12.4161 33.2211 12.2394 33.7227 11.9061C34.2243 11.5729 34.6156 11.0981 34.8471 10.5422C35.0785 9.98619 35.1396 9.37402 35.0226 8.78327C34.9057 8.19252 34.6159 7.6498 34.1901 7.22397C33.7642 6.79814 33.2215 6.50836 32.6308 6.39139C32.04 6.27443 31.4278 6.33554 30.8719 6.56698C30.3159 6.79841 29.8412 7.18975 29.5079 7.69136C29.1747 8.19297 28.9979 8.78224 29 9.38445C29 10.1879 29.3192 10.9585 29.8874 11.5267C30.4555 12.0948 31.2261 12.414 32.0296 12.414V12.414Z" stroke="#FC131F" stroke-width="2" stroke-miterlimit="22.93" stroke-linejoin="round"/>
<path d="M59.4418 6.34375H49.6875C49.1352 6.34375 48.6875 6.79146 48.6875 7.34375V11.4136C48.6875 11.9659 49.1352 12.4136 49.6875 12.4136H59.4418C59.9941 12.4136 60.4418 11.9659 60.4418 11.4136V7.34375C60.4418 6.79147 59.9941 6.34375 59.4418 6.34375Z" stroke="#FC131F" stroke-width="2" stroke-miterlimit="22.93" stroke-linejoin="round"/>
</svg>
