<svg width="87" height="75" viewBox="0 0 87 75" fill="none" xmlns="http://www.w3.org/2000/svg">
<path d="M27 44C27 60.5685 40.4315 74 57 74C73.5685 74 87 60.5685 87 44C87 27.4315 73.5685 14 57 14C40.4315 14 27 27.4315 27 44Z" fill="#E7E7E7"/>
<path d="M70 1H2C1.44772 1 1 1.44771 1 2V72.6379C1 73.1902 1.44771 73.6379 2 73.6379H70C70.5523 73.6379 71 73.1902 71 72.6379V2C71 1.44772 70.5523 1 70 1Z" stroke="#FC131F" stroke-width="2" stroke-miterlimit="22.93"/>
<path d="M60 33.947H12C11.4477 33.947 11 34.3947 11 34.947V67.7772C11 68.3295 11.4477 68.7772 12 68.7772H60C60.5523 68.7772 61 68.3295 61 67.7772V34.947C61 34.3947 60.5523 33.947 60 33.947Z" stroke="#FC131F" stroke-width="2" stroke-miterlimit="22.93"/>
<path fill-rule="evenodd" clip-rule="evenodd" d="M39.5472 15.4525C40.5864 15.4525 41.6022 15.1444 42.4663 14.567C43.3303 13.9897 44.0038 13.1691 44.4014 12.209C44.7991 11.2489 44.9032 10.1925 44.7004 9.17327C44.4977 8.15405 43.9973 7.21784 43.2625 6.48302C42.5276 5.74821 41.5914 5.24779 40.5722 5.04505C39.553 4.84232 38.4966 4.94637 37.5365 5.34405C36.5764 5.74173 35.7558 6.41518 35.1785 7.27923C34.6011 8.14328 34.293 9.15913 34.293 10.1983C34.2962 11.5908 34.8508 12.9253 35.8355 13.91C36.8201 14.8946 38.1547 15.4493 39.5472 15.4525Z" stroke="#FC131F" stroke-width="2" stroke-miterlimit="22.93"/>
<path d="M24.1955 6.53809H10.6211V13.5478H24.1955V6.53809Z" stroke="#FC131F" stroke-width="2" stroke-miterlimit="22.93"/>
<path d="M8 26.9988H64.4488" stroke="#FC131F" stroke-width="2" stroke-miterlimit="22.93" stroke-linecap="round"/>
<path d="M1 19H71" stroke="#FC131F" stroke-width="2" stroke-miterlimit="22.93"/>
<path d="M11 58.0671L60.677 58" stroke="#FC131F" stroke-width="2" stroke-miterlimit="22.93"/>
</svg>
