<svg width="80" height="82" viewBox="0 0 80 82" fill="none" xmlns="http://www.w3.org/2000/svg">
<rect x="20" y="21" width="60" height="60" rx="30" fill="#E7E7E7"/>
<rect x="1" y="2.31201" width="62.6294" height="78.6882" rx="1" stroke="#FC131F" stroke-width="2"/>
<rect x="8.87109" y="32.4751" width="47.2129" height="35.4097" rx="1" stroke="#FC131F" stroke-width="2"/>
<path d="M1 3.31177C1 2.75948 1.44772 2.31177 2 2.31177H62.6294C63.1816 2.31177 63.6294 2.75948 63.6294 3.31177V18.3706H1V3.31177Z" stroke="#FC131F" stroke-width="2"/>
<path d="M8.87109 25.2332H55.2163" stroke="#FC131F" stroke-width="2" stroke-miterlimit="22.93" stroke-linecap="round"/>
<path d="M7.55859 1H28.5421" stroke="#FC131F" stroke-width="2" stroke-miterlimit="22.93" stroke-linecap="round"/>
<path d="M36.4102 1H57.3937" stroke="#FC131F" stroke-width="2" stroke-miterlimit="22.93" stroke-linecap="round"/>
<path d="M57.2526 13.8577C58.9561 13.8577 60.3372 12.4766 60.3372 10.7731C60.3372 9.0695 58.9561 7.68848 57.2526 7.68848C55.549 7.68848 54.168 9.0695 54.168 10.7731C54.168 12.4766 55.549 13.8577 57.2526 13.8577Z" stroke="#FC131F" stroke-width="2" stroke-miterlimit="22.93"/>
<path fill-rule="evenodd" clip-rule="evenodd" d="M18.3299 13.8677C18.9421 13.8677 19.5406 13.6862 20.0496 13.3461C20.5587 13.0059 20.9554 12.5225 21.1897 11.9568C21.424 11.3912 21.4853 10.7688 21.3659 10.1684C21.2465 9.56788 20.9516 9.01632 20.5187 8.58341C20.0858 8.1505 19.5342 7.85568 18.9338 7.73624C18.3333 7.6168 17.7109 7.6781 17.1453 7.91239C16.5796 8.14668 16.0962 8.54344 15.7561 9.05249C15.4159 9.56154 15.2344 10.16 15.2344 10.7723C15.2344 11.1788 15.3144 11.5813 15.47 11.9568C15.6256 12.3324 15.8536 12.6737 16.141 12.9611C16.4285 13.2485 16.7697 13.4766 17.1453 13.6321C17.5208 13.7877 17.9234 13.8677 18.3299 13.8677V13.8677Z" stroke="#FC131F" stroke-width="2" stroke-miterlimit="22.93"/>
<path fill-rule="evenodd" clip-rule="evenodd" d="M46.951 13.8677C47.5632 13.8677 48.1617 13.6862 48.6707 13.3461C49.1798 13.0059 49.5765 12.5225 49.8108 11.9568C50.0451 11.3912 50.1064 10.7688 49.987 10.1684C49.8675 9.56788 49.5727 9.01632 49.1398 8.58341C48.7069 8.1505 48.1553 7.85568 47.5549 7.73624C46.9544 7.6168 46.332 7.6781 45.7664 7.91239C45.2008 8.14668 44.7173 8.54344 44.3772 9.05249C44.037 9.56154 43.8555 10.16 43.8555 10.7723C43.8555 11.1788 43.9355 11.5813 44.0911 11.9568C44.2467 12.3324 44.4747 12.6737 44.7621 12.9611C45.0496 13.2485 45.3908 13.4766 45.7664 13.6321C46.1419 13.7877 46.5445 13.8677 46.951 13.8677V13.8677Z" stroke="#FC131F" stroke-width="2" stroke-miterlimit="22.93"/>
<path fill-rule="evenodd" clip-rule="evenodd" d="M8.01819 13.8677C8.63088 13.8699 9.23044 13.6902 9.74092 13.3514C10.2514 13.0125 10.6499 12.5298 10.8858 11.9644C11.1218 11.399 11.1846 10.7762 11.0664 10.175C10.9482 9.57386 10.6543 9.02128 10.2218 8.58727C9.78932 8.15327 9.23778 7.85737 8.63702 7.73704C8.03626 7.61671 7.41329 7.67738 6.84703 7.91134C6.28076 8.14531 5.79667 8.54206 5.45605 9.05134C5.11543 9.56063 4.9336 10.1595 4.93359 10.7722C4.93644 11.5904 5.262 12.3745 5.83955 12.9541C6.41709 13.5337 7.19999 13.862 8.01819 13.8677Z" stroke="#FC131F" stroke-width="2" stroke-miterlimit="22.93"/>
<path d="M38.4092 7.55688H26.4414V13.737H38.4092V7.55688Z" stroke="#FC131F" stroke-width="2" stroke-miterlimit="22.93" stroke-linejoin="round"/>
</svg>
