<svg width="80" height="82" viewBox="0 0 80 82" fill="none" xmlns="http://www.w3.org/2000/svg">
<rect x="20" y="21" width="60" height="60" rx="30" fill="#E7E7E7"/>
<rect x="1" y="1" width="63.6735" height="80" rx="1" stroke="#FC131F" stroke-width="2"/>
<path d="M1 2C1 1.44771 1.44772 1 2 1H63.6735C64.2258 1 64.6735 1.44772 64.6735 2V17.3265H1V2Z" stroke="#FC131F" stroke-width="2"/>
<path d="M33.0699 71.6309C45.5883 71.6113 55.7206 61.4471 55.7009 48.9287C55.6813 36.4102 45.5171 26.278 32.9987 26.2976C20.4802 26.3173 10.348 36.4815 10.3676 48.9999C10.3873 61.5183 20.5514 71.6506 33.0699 71.6309Z" stroke="#FC131F" stroke-width="2" stroke-miterlimit="22.93" stroke-linejoin="round"/>
<path d="M33.0271 64.9288C41.851 64.9149 48.9928 57.7506 48.979 48.9268C48.9651 40.1029 41.8008 32.961 32.9769 32.9749C24.1531 32.9888 17.0112 40.1531 17.0251 48.9769C17.039 57.8008 24.2033 64.9427 33.0271 64.9288Z" stroke="#FC131F" stroke-width="2" stroke-miterlimit="22.93" stroke-linejoin="round"/>
<path fill-rule="evenodd" clip-rule="evenodd" d="M54.1351 12.2487C54.7497 12.2487 55.3506 12.0664 55.8617 11.7249C56.3727 11.3834 56.771 10.8981 57.0063 10.3302C57.2415 9.76235 57.303 9.13749 57.1831 8.53465C57.0632 7.93181 56.7672 7.37806 56.3326 6.94344C55.898 6.50881 55.3442 6.21283 54.7414 6.09292C54.1385 5.97301 53.5137 6.03455 52.9458 6.26977C52.3779 6.50498 51.8926 6.90331 51.5511 7.41437C51.2096 7.92544 51.0273 8.52629 51.0273 9.14094C51.0273 9.96516 51.3548 10.7556 51.9376 11.3384C52.5204 11.9213 53.3109 12.2487 54.1351 12.2487V12.2487Z" stroke="#FC131F" stroke-width="2" stroke-miterlimit="22.93" stroke-linejoin="round"/>
<path d="M43.0893 6.04492H31.0742V12.2495H43.0893V6.04492Z" stroke="#FC131F" stroke-width="2" stroke-miterlimit="22.93" stroke-linejoin="round"/>
<path d="M7.53125 9.14062H17.8502" stroke="#FC131F" stroke-width="2" stroke-miterlimit="22.93" stroke-linecap="round" stroke-linejoin="round"/>
<path d="M24.5469 1V17.0202" stroke="#FC131F" stroke-width="2" stroke-miterlimit="22.93"/>
<path d="M18.3359 53.6233C18.912 53.2843 19.5696 53.0765 20.253 53.0175C20.9364 52.9584 21.6254 53.0498 22.2616 53.2839C24.4581 54.302 25.642 55.5746 27.9787 55.6594C32.0913 55.8149 33.7114 53.4253 37.1541 53.496C40.5969 53.5667 43.3853 57.2289 47.6693 54.1606" stroke="#FC131F" stroke-width="2" stroke-miterlimit="22.93" stroke-linejoin="round"/>
</svg>
