<svg width="59" height="63" viewBox="0 0 59 63" fill="none" xmlns="http://www.w3.org/2000/svg">
<circle cx="39" cy="42" r="20" fill="#E7E7E7"/>
<path d="M33.4156 25.1198C34.056 25.0872 34.6583 24.8341 35.099 24.4122C35.5396 23.9904 35.7852 23.4319 35.7852 22.8514C35.7852 22.2709 35.5396 21.7124 35.099 21.2905C34.6583 20.8687 34.056 20.6155 33.4156 20.583" stroke="#FC131F" stroke-width="2" stroke-linecap="round" stroke-linejoin="round"/>
<path d="M14.811 25.1198C14.1706 25.0872 13.5682 24.8341 13.1276 24.4122C12.6869 23.9904 12.4414 23.4319 12.4414 22.8514C12.4414 22.2709 12.6869 21.7124 13.1276 21.2905C13.5682 20.8687 14.1706 20.6155 14.811 20.583" stroke="#FC131F" stroke-width="2" stroke-linecap="round" stroke-linejoin="round"/>
<path fill-rule="evenodd" clip-rule="evenodd" d="M28.8356 36.9767L23.8777 41.4559L18.8894 36.9767C18.006 37.0316 16.0106 37.9096 15.0815 38.2251C12.317 39.1511 6.60519 40.9209 4.37378 42.2653C2.85063 43.2051 1.63972 44.3232 1.16755 47.0121C1.05331 47.65 1.00762 49.845 1 52.5614V60.2714C1.00146 60.6271 1.12425 60.9738 1.35173 61.2646C1.57921 61.5554 1.90041 61.7762 2.27183 61.8971L2.33276 62H45.4379L45.4912 61.8971C45.8626 61.7762 46.1838 61.5554 46.4113 61.2646C46.6388 60.9738 46.7616 60.6271 46.763 60.2714V55.6138C46.763 54.8456 46.763 54.091 46.763 53.3571V52.5614C46.763 49.8176 46.7021 47.65 46.5955 47.0121C46.1157 44.3232 44.9352 43.2051 43.3892 42.2653C41.1578 40.8934 35.4384 39.1786 32.6587 38.2251C31.7219 37.9096 29.7266 37.0316 28.8356 36.9767Z" stroke="#FC131F" stroke-width="2" stroke-linecap="round" stroke-linejoin="round"/>
<path d="M19.0664 36.7798V33.712M29.1346 36.7798V33.712" stroke="#FC131F" stroke-width="2" stroke-linecap="round" stroke-linejoin="round"/>
<path d="M33.4026 19.6317V26.7696C33.3481 28.9594 32.3391 31.0409 30.5956 32.5601C28.8522 34.0794 26.5158 34.913 24.0959 34.8794C21.678 34.913 19.3436 34.0801 17.6016 32.5622C15.8596 31.0443 14.8514 28.9646 14.7969 26.7766V19.6387" stroke="#FC131F" stroke-width="2" stroke-linecap="round" stroke-linejoin="round"/>
<path d="M16.168 38.6984L20.629 43.1769L24.1056 41.3182" stroke="#FC131F" stroke-width="2" stroke-linecap="round" stroke-linejoin="round"/>
<path d="M32.0508 38.6984L27.5897 43.1769L24.1055 41.3182" stroke="#FC131F" stroke-width="2" stroke-linecap="round" stroke-linejoin="round"/>
<path fill-rule="evenodd" clip-rule="evenodd" d="M9.58203 61.9976H38.1111V50.5664C38.1069 49.9373 37.8284 49.3351 37.3361 48.8908C36.8438 48.4466 36.1775 48.1963 35.4824 48.1945H12.2107C11.5156 48.1963 10.8493 48.4466 10.357 48.8908C9.86473 49.3351 9.58619 49.9373 9.58203 50.5664V61.9976Z" stroke="#FC131F" stroke-width="2" stroke-linecap="round" stroke-linejoin="round"/>
<path d="M12.4414 39.1342V48.1944" stroke="#FC131F" stroke-width="2"/>
<path d="M35.3242 39.1342V48.1944" stroke="#FC131F" stroke-width="2"/>
<path d="M35.8311 16.2375C35.8311 12.7409 34.2355 9.18996 31.122 6.85949C30.3515 6.28421 29.5018 5.8047 28.5949 5.43334L28.3332 3.89499C27.2751 3.43962 26.6634 3.13341 25.502 3.01703M22.002 3.01703C19.9485 3.18616 19.7307 3.89499 19.7307 3.89499L19.4311 5.43164C16.3166 6.74561 14.0541 9.2894 12.9903 12.0967C12.4886 13.4284 12.2344 14.8282 12.2383 16.2375H35.8348" stroke="#FC131F" stroke-width="2" stroke-miterlimit="10" stroke-linejoin="round"/>
<path d="M36.9452 16.2374H11.1405C11.1405 16.2374 9.97735 16.3091 9.98836 19.2883H38.0793C38.0904 16.3041 36.9452 16.2374 36.9452 16.2374Z" stroke="#FC131F" stroke-width="2" stroke-miterlimit="10" stroke-linejoin="round"/>
<path d="M25.7186 8.08478C26.0038 8.08478 26.2754 7.963 26.4652 7.75007C26.6549 7.53715 26.7447 7.25333 26.712 6.97001L26.1245 1.88523C26.0662 1.38071 25.639 1 25.1311 1H24.0331H22.9351C22.4272 1 22 1.38071 21.9417 1.88523L21.3543 6.97001C21.3215 7.25333 21.4113 7.53715 21.6011 7.75007C21.7908 7.963 22.0625 8.08478 22.3477 8.08478H25.7186Z" stroke="#FC131F" stroke-width="2" stroke-miterlimit="10" stroke-linejoin="round"/>
<path d="M29.0898 4.03363L30.2135 9.11841" stroke="#FC131F" stroke-width="2" stroke-miterlimit="10" stroke-linecap="round" stroke-linejoin="round"/>
<path d="M17.8555 9.11841L18.9791 4.03363" stroke="#FC131F" stroke-width="2" stroke-miterlimit="10" stroke-linecap="round" stroke-linejoin="round"/>
</svg>
