<svg width="90" height="62" viewBox="0 0 90 62" fill="none" xmlns="http://www.w3.org/2000/svg">
<circle cx="70" cy="41" r="20" fill="#E7E7E7"/>
<path d="M11.3447 30.6754H1V61H11.3447V30.6754Z" stroke="#FC131F" stroke-width="2" stroke-miterlimit="10" stroke-linejoin="round"/>
<path d="M11.3438 34.2686C12.5796 33.376 19.5829 28.135 21.9631 25.709C24.4348 23.1915 24.7323 20.3078 24.7095 16.7833C24.6866 14.8379 25.7851 13.5105 27.227 13.2359C28.6688 12.9384 30.6142 14.1056 30.9804 15.5245C32.3307 20.674 32.8342 26.121 31.0719 31.6137C33.475 31.6137 35.8781 31.6137 38.7618 31.6137H43.7281C45.5133 31.6137 46.978 33.0785 46.978 34.8636V35.6189C46.978 37.404 45.5133 38.8688 43.7281 38.8688H39.2195" stroke="#FC131F" stroke-width="2" stroke-miterlimit="10" stroke-linejoin="round"/>
<path d="M42.6528 38.869C44.438 38.869 45.9027 40.3337 45.9027 42.1188V42.8741C45.9027 44.6592 44.438 46.124 42.6528 46.124H39.2656" stroke="#FC131F" stroke-width="2" stroke-miterlimit="10" stroke-linejoin="round"/>
<path d="M41.5546 46.1238C43.3398 46.1238 44.8045 47.5885 44.8045 49.3737V50.1289C44.8045 51.9141 43.3398 53.3788 41.5546 53.3788H38.1445" stroke="#FC131F" stroke-width="2" stroke-miterlimit="10" stroke-linejoin="round"/>
<path d="M39.929 53.3789C41.7141 53.3789 43.1789 54.8436 43.1789 56.6288V57.384C43.1789 59.1692 41.7141 60.6339 39.929 60.6339H36.5418C31.0719 60.6339 25.6249 60.611 20.155 60.5881C17.6375 58.7343 15.326 56.5144 11.3438 57.4298" stroke="#FC131F" stroke-width="2" stroke-miterlimit="10" stroke-linejoin="round"/>
<path d="M40.2497 60.634H69.8419C71.2609 60.634 72.4281 59.4668 72.4281 58.0478V10.032C72.4281 8.61303 71.3524 6.98809 70.025 6.43881L57.8723 1.42667C56.5449 0.877396 54.3935 0.854509 53.0661 1.3809L40.0666 6.48459C38.7392 7.01098 37.6406 8.59014 37.6406 10.032V31.6368M54.897 14.7924C52.7457 14.7924 51.0063 13.053 51.0063 10.9017C51.0063 8.75035 52.7457 7.01098 54.897 7.01098C57.0484 7.01098 58.7877 8.75035 58.7877 10.9017C58.7877 13.053 57.0484 14.7924 54.897 14.7924Z" stroke="#FC131F" stroke-width="2" stroke-miterlimit="10" stroke-linejoin="round"/>
<path d="M59.5418 36.4886C59.3816 35.3442 58.901 34.4517 58.1457 33.788C57.5278 33.2845 56.7039 32.964 55.674 32.8725H54.6212C53.4311 32.9869 52.5386 33.3073 51.9206 33.8566C51.028 34.6576 50.5703 35.6875 50.5703 36.9692C50.5703 37.7015 50.7305 38.3424 51.028 38.9145C51.3485 39.4867 51.7833 39.9215 52.3555 40.2419C53.1336 40.6768 53.8889 40.9972 55.079 41.2261C56.2691 41.4778 57.0243 41.7753 57.7796 42.2102C58.3517 42.5306 58.7866 42.9654 59.107 43.5376C59.4274 44.1098 59.5647 44.7506 59.5647 45.4601C59.5647 46.7417 59.107 47.7716 58.2144 48.5726C57.6194 49.099 56.7039 49.4423 55.5138 49.5567H54.461C53.4082 49.4652 52.5843 49.1448 51.9893 48.6413C51.2111 48.0005 50.7305 47.085 50.5703 45.9407" stroke="#FC131F" stroke-width="2" stroke-miterlimit="10" stroke-linejoin="round"/>
<path d="M55.0586 30.2177V32.8725" stroke="#FC131F" stroke-width="2" stroke-miterlimit="10" stroke-linecap="round" stroke-linejoin="round"/>
<path d="M55.0586 49.5339V52.1659" stroke="#FC131F" stroke-width="2" stroke-miterlimit="10" stroke-linecap="round" stroke-linejoin="round"/>
</svg>
