<svg width="63" height="62" viewBox="0 0 63 62" fill="none" xmlns="http://www.w3.org/2000/svg">
<circle cx="43" cy="41" r="20" fill="#E7E7E7"/>
<path d="M8.91005 39.2946L1 51.2326L12.5608 52.3179L19.254 61L26.5556 51.2326L33.8571 61L40.5503 52.3179L52.1111 51.2326L44.2011 37.6667" stroke="#FC131F" stroke-width="2" stroke-linejoin="round"/>
<path d="M26.5538 1L30.3741 3.77868L34.9143 2.47418L37.5538 6.39189L42.2664 6.71891L43.4068 11.3031L47.7233 13.2222L47.2271 17.92L50.6269 21.1997L48.5538 25.4444L50.6269 29.6892L47.2271 32.9689L47.7233 37.6667L43.4068 39.5858L42.2664 44.17L37.5538 44.497L34.9143 48.4147L30.3741 47.1102L26.5538 49.8889L22.7336 47.1102L18.1933 48.4147L15.5538 44.497L10.8412 44.17L9.70084 39.5858L5.38431 37.6667L5.88058 32.9689L2.48074 29.6892L4.55382 25.4444L2.48074 21.1997L5.88058 17.92L5.38431 13.2222L9.70084 11.3031L10.8412 6.71891L15.5538 6.39189L18.1933 2.47418L22.7336 3.77868L26.5538 1Z" stroke="#FC131F" stroke-width="2" stroke-linejoin="round"/>
<path d="M26.556 38.7777C33.9198 38.7777 39.8893 32.8082 39.8893 25.4444C39.8893 18.0806 33.9198 12.1111 26.556 12.1111C19.1922 12.1111 13.2227 18.0806 13.2227 25.4444C13.2227 32.8082 19.1922 38.7777 26.556 38.7777Z" stroke="#FC131F" stroke-width="2" stroke-miterlimit="5"/>
</svg>
