<svg width="102" height="92" viewBox="0 0 102 92" fill="none" xmlns="http://www.w3.org/2000/svg">
<path d="M47.4441 0.0511562L51.7335 1.71585L56.114 0.268893C56.2427 0.227325 56.3773 0.255037 56.4762 0.330255L60.3381 2.78672L64.9185 2.22259C65.0511 2.20675 65.1758 2.25822 65.2589 2.34729L68.5725 5.51635L73.1707 5.85682C73.3053 5.86671 73.4181 5.94193 73.4835 6.04882L76.1141 9.80181L80.5599 11.031C80.6787 11.0647 80.7697 11.1478 80.8153 11.2527L82.6759 15.4729L86.7951 17.5473C86.9119 17.6067 86.9871 17.7156 87.0069 17.8343L88.0026 22.3158L91.6388 25.1542C91.7358 25.2314 91.7892 25.3443 91.7912 25.4571L91.8941 30.0672L94.9068 33.5609C94.986 33.6539 95.0157 33.7727 94.9959 33.8855H94.9979L94.1982 38.4303L96.4705 42.4426C96.5339 42.5534 96.5378 42.6801 96.4923 42.789L94.8276 47.0784L96.2746 51.4589C96.3162 51.5875 96.2884 51.7221 96.2132 51.8211L93.7568 55.6829L94.3209 60.2633C94.3367 60.396 94.2853 60.5207 94.1942 60.6038L91.0251 63.9174L90.6867 68.5156C90.6768 68.6502 90.6015 68.765 90.4947 68.8283L86.7417 71.459L85.5124 75.9048C85.4788 76.0235 85.3957 76.1146 85.2907 76.1601L81.0686 78.0208L78.9962 82.14C78.9368 82.2568 78.8279 82.332 78.7091 82.3518L74.2257 83.3474L71.3892 86.9836C71.312 87.0806 71.1992 87.1341 71.0844 87.136L66.4763 87.239L62.9826 90.2517C62.8896 90.3308 62.7688 90.3605 62.656 90.3407V90.3427L58.1132 89.543L54.1009 91.8154C53.9901 91.8788 53.8634 91.8827 53.7545 91.8372L49.4651 90.1725L45.0846 91.6194C44.956 91.661 44.8214 91.6333 44.7204 91.5581L40.8585 89.1016L36.2801 89.6657C36.1475 89.6816 36.0228 89.6301 35.9397 89.5391L32.6261 86.372L28.0259 86.0315C27.8933 86.0216 27.7785 85.9464 27.7152 85.8395L25.0845 82.0865L20.6387 80.8573C20.5199 80.8237 20.4289 80.7405 20.3834 80.6356H20.3814L18.5227 76.4155L14.4035 74.341C14.2867 74.2816 14.2115 74.1728 14.1917 74.054L13.1941 69.5706L9.55985 66.7341C9.46088 66.6569 9.40941 66.5441 9.40743 66.4312L9.3045 61.8212L6.29181 58.3275C6.21066 58.2344 6.18294 58.1157 6.20076 58.0028L6.99847 53.4581L4.72807 49.4458C4.66472 49.3349 4.66077 49.2082 4.70629 49.0994L6.37099 44.81L4.92403 40.4295C4.88246 40.3008 4.90819 40.1662 4.98539 40.0653L7.44186 36.2034L6.87772 31.625C6.86189 31.4924 6.91137 31.3677 7.00243 31.2845L10.1715 27.971L10.512 23.3708C10.5218 23.2382 10.5971 23.1234 10.704 23.06L14.455 20.4294L15.6862 15.9836C15.7198 15.8648 15.803 15.7737 15.9079 15.7282V15.7262L20.128 13.8676L22.2024 9.74837C22.2618 9.63158 22.3707 9.55636 22.4895 9.53657L26.9709 8.54092L29.8094 4.90471C29.8866 4.80574 29.9974 4.75427 30.1122 4.7523L34.7223 4.64936L38.214 1.63668C38.309 1.55552 38.4278 1.52781 38.5406 1.5476V1.54562L43.0854 2.34531L47.0977 0.0729299C47.2066 0.00958828 47.3352 0.00562942 47.4441 0.0511562Z" fill="#E7E7E7"/>
<path fill-rule="evenodd" clip-rule="evenodd" d="M47.3549 1.29031L43.2991 3.58843L38.9146 2.81645L38.7068 2.78082L35.1755 5.82716L30.514 5.93207L27.6458 9.60787L23.0931 10.6194L20.9969 14.7821L17.4834 16.33V16.332L16.7312 16.6625L15.4862 21.1578L11.6678 23.834L11.3254 28.4837L8.10289 31.8527L8.67296 36.4825L6.17097 40.4157L7.63178 44.8436L5.94531 49.1885L8.24343 53.2443L7.47145 57.6288L7.43582 57.8366L10.4822 61.3679L10.5871 66.0294L14.2609 68.8976L15.2744 73.4503L19.4371 75.5465L20.985 79.06H20.987L21.3175 79.8122L25.8128 81.0573L28.489 84.8756L33.1387 85.218L36.5077 88.4405L41.1375 87.8704L45.0707 90.3724L49.4967 88.9116L53.8435 90.5981L57.8974 88.3L62.2838 89.07L62.4916 89.1076L66.0229 86.0612L70.6844 85.9563L73.5526 82.2805L78.1033 81.2691L80.1996 77.1063L83.715 75.5584V75.5564L84.4672 75.2259L85.7103 70.7306L89.5286 68.0544L89.873 63.4047L93.0955 60.0357L92.5254 55.4059L95.0274 51.4727L93.5646 47.0448L95.2511 42.6999L92.955 38.6441L93.725 34.2616L93.7626 34.0518L90.7162 30.5205L90.6113 25.859L86.9355 22.9908L85.9241 18.4381L81.7613 16.3419L80.2114 12.8284L79.8809 12.0762L75.3856 10.8312L72.7094 7.01284L68.0597 6.6704L64.6888 3.44789L60.0609 4.01796L56.1277 1.51597L51.6998 2.97679L47.3549 1.29031Z" fill="#666666"/>
<path d="M50.6 84.1887C71.7218 84.1887 88.8445 67.0661 88.8445 45.9442C88.8445 24.8224 71.7218 7.69972 50.6 7.69972C29.4781 7.69972 12.3555 24.8224 12.3555 45.9442C12.3555 67.0661 29.4781 84.1887 50.6 84.1887Z" fill="url(#paint0_linear_3671_4036)"/>
<path d="M28.3204 28.0937C28.1067 27.9374 27.8889 27.8938 27.6633 27.9631C27.4396 28.0324 27.1209 28.2165 26.7092 28.5173C26.2975 28.8182 25.9451 29.0379 25.6542 29.1785C24.8644 29.5585 24.1834 29.5427 23.6114 29.127C23.3125 28.9112 23.1066 28.6361 22.9958 28.2996C22.8849 27.9611 22.877 27.591 22.972 27.1812C23.069 26.7715 23.259 26.3716 23.5421 25.9817C23.8271 25.5878 24.1518 25.2889 24.518 25.085C24.8822 24.8792 25.2583 24.7861 25.6403 24.8039C26.0223 24.8217 26.3786 24.9504 26.7112 25.1899L25.8877 26.3261C25.6344 26.142 25.383 26.0787 25.1256 26.1361C24.8723 26.1955 24.6407 26.3677 24.4328 26.6547C24.2309 26.9318 24.134 27.1891 24.1399 27.4287C24.1458 27.6682 24.2428 27.8562 24.4348 27.9948C24.615 28.1254 24.8307 28.1432 25.0821 28.0502C25.3335 27.9591 25.6383 27.7751 25.9986 27.5019C26.6597 26.9952 27.2436 26.7002 27.7424 26.6131C28.2452 26.528 28.7104 26.6389 29.1399 26.9477C29.615 27.2941 29.8585 27.7454 29.8684 28.3036C29.8782 28.8598 29.6605 29.4437 29.2191 30.0534C28.9143 30.477 28.556 30.8056 28.1502 31.0431C27.7424 31.2786 27.3367 31.3895 26.9348 31.3756C26.533 31.3638 26.153 31.2292 25.7986 30.9718L26.6221 29.8337C27.2298 30.2731 27.7979 30.1306 28.3244 29.4041C28.5184 29.1349 28.6154 28.8835 28.6154 28.6519C28.6174 28.4223 28.5164 28.2363 28.3204 28.0937Z" fill="#666666"/>
<path d="M33.8609 22.1101C34.2983 22.698 34.4685 23.3116 34.3735 23.947C34.2785 24.5844 33.9282 25.1624 33.3244 25.681C32.6633 26.2511 31.9527 26.4747 31.1906 26.356C30.4285 26.2372 29.712 25.7879 29.0469 25.012L28.7737 24.6972C28.3482 24.2024 28.0592 23.6897 27.9087 23.1612C27.7583 22.6327 27.7603 22.1299 27.9107 21.6469C28.0611 21.1659 28.3521 20.7423 28.7816 20.3722C29.3775 19.8595 29.9931 19.6081 30.6304 19.6141C31.2678 19.62 31.8636 19.8872 32.4159 20.4137L31.3529 21.3263C31.0422 21.0175 30.7413 20.8552 30.4523 20.8433C30.1633 20.8294 29.8565 20.962 29.5318 21.2431C29.1756 21.548 29.0212 21.9043 29.0627 22.3081C29.1063 22.7138 29.3537 23.1849 29.809 23.7233L30.1435 24.1113C30.6225 24.6675 31.056 25.004 31.4479 25.1149C31.8379 25.2277 32.214 25.1268 32.5782 24.814C32.9048 24.531 33.0869 24.2459 33.1205 23.9589C33.1522 23.6699 33.0453 23.3572 32.7999 23.0226L33.8609 22.1101Z" fill="#666666"/>
<path d="M37.1985 19.9484L36.2068 20.4571L37.345 22.6721L36.0999 23.3134L32.9883 17.2663L35.2369 16.1103C35.9495 15.7421 36.5829 15.6194 37.1352 15.7362C37.6874 15.855 38.111 16.2073 38.4119 16.7893C38.6217 17.201 38.7108 17.5889 38.6732 17.9591C38.6376 18.3253 38.4792 18.6836 38.2001 19.0339L40.7793 20.8312L40.809 20.8906L39.4709 21.5775L37.1985 19.9484ZM35.6882 19.4496L36.6938 18.931C37.0065 18.7707 37.2084 18.5668 37.2955 18.3193C37.3866 18.0719 37.3589 17.8087 37.2163 17.5296C37.0699 17.2445 36.8719 17.0604 36.6265 16.9813C36.381 16.9001 36.09 16.9456 35.7555 17.1198L34.7539 17.6325L35.6882 19.4496Z" fill="#666666"/>
<path d="M44.7244 16.7103L42.1353 17.4368L42.6262 19.1905L45.6666 18.3394L45.9694 19.4221L41.579 20.6513L39.7461 14.1054L44.1246 12.8762L44.4314 13.9708L41.4009 14.818L41.8383 16.3797L44.4294 15.6533L44.7244 16.7103Z" fill="#666666"/>
<path d="M50.6287 16.1581L47.9465 16.3759L48.093 18.193L51.2423 17.9357L51.3333 19.058L46.7886 19.4262L46.2383 12.6506L50.7712 12.2804L50.8642 13.4107L47.7268 13.666L47.8575 15.2832L50.5376 15.0655L50.6287 16.1581Z" fill="#666666"/>
<path d="M57.6993 20.004L56.3196 19.7506L54.4391 14.8594L53.6375 19.2617L52.2578 19.0103L53.4771 12.3218L54.8548 12.5732L56.7392 17.4743L57.5429 13.0621L58.9166 13.3115L57.6993 20.004Z" fill="#666666"/>
<path d="M63.762 19.1863L61.2541 18.2183L60.5989 19.9147L63.5423 21.0529L63.1365 22.102L58.8867 20.461L61.3353 14.1209L65.5772 15.7599L65.1674 16.8169L62.232 15.6827L61.648 17.193L64.1579 18.1629L63.762 19.1863Z" fill="#666666"/>
<path d="M63.8125 22.5118L67.803 17.0031L69.4974 18.2303C69.9804 18.5827 70.3347 19.0043 70.5584 19.5011C70.784 19.994 70.8553 20.5205 70.7801 21.0787C70.7029 21.6369 70.4792 22.1714 70.1091 22.6821L69.925 22.9354C69.5548 23.4481 69.1193 23.8262 68.6205 24.0716C68.1217 24.3191 67.6011 24.4121 67.0568 24.3547C66.5144 24.2953 66.0017 24.0934 65.5188 23.747L63.8125 22.5118ZM68.2721 18.745L65.6078 22.4228L66.1561 22.8187C66.5995 23.1413 67.0449 23.2403 67.4883 23.1215C67.9337 23.0008 68.3553 22.6742 68.7512 22.1377L68.961 21.8448C69.3668 21.2846 69.5568 20.7759 69.535 20.3206C69.5113 19.8634 69.2777 19.4734 68.8303 19.1488L68.2721 18.745Z" fill="#666666"/>
<path d="M71.7442 26.5461C71.9897 26.3501 72.2727 26.2393 72.5934 26.2116C72.9121 26.1839 73.3436 26.2532 73.8919 26.4194C73.979 26.0948 74.08 25.8117 74.1948 25.5742C74.3115 25.3347 74.4699 25.1368 74.6738 24.9784C75.0895 24.6498 75.5309 24.5132 75.998 24.5726C76.4632 24.63 76.8729 24.8794 77.2233 25.3268C77.538 25.7227 77.6766 26.1423 77.6409 26.5857C77.6053 27.0271 77.4093 27.3893 77.057 27.6665C76.6314 28.003 76.0871 28.0821 75.424 27.9099L74.8024 27.7338L74.458 29.4974C74.8559 29.4183 75.2241 29.2421 75.5665 28.9729L76.2771 29.8735C75.5843 30.4218 74.8955 30.7049 74.2126 30.7247L73.9157 32.2548L72.9695 31.0513L73.0685 30.5287C72.4984 30.3387 72.0115 29.9903 71.6096 29.4796C71.1939 28.9511 71 28.4186 71.0257 27.8842C71.0534 27.3478 71.2929 26.9004 71.7442 26.5461ZM72.5004 28.8601C72.7003 29.1154 72.9596 29.2995 73.2822 29.4143L73.6702 27.4032L73.5534 27.3696C73.1951 27.2983 72.8903 27.3636 72.6389 27.5616C72.4291 27.7278 72.3084 27.9317 72.2826 28.1732C72.2569 28.4147 72.3282 28.6423 72.5004 28.8601ZM75.4359 25.9147C75.2538 26.0592 75.1073 26.3482 74.9984 26.7836L75.4081 26.9182C75.614 26.9895 75.7823 27.0172 75.9129 27.0014C76.0455 26.9875 76.1722 26.9321 76.2949 26.8371C76.4157 26.7401 76.4869 26.6114 76.5067 26.4491C76.5245 26.2868 76.479 26.1364 76.3662 25.9939C76.2474 25.8434 76.1029 25.7603 75.9327 25.7464C75.7625 25.7326 75.5982 25.788 75.4359 25.9147Z" fill="#666666"/>
<path d="M26.1969 68.2662L24.4114 66.2056L22.8972 66.8311L21.8164 65.5821L29.358 62.7634L30.3022 63.8521L26.4483 70.9305L25.3655 69.6795L26.1969 68.2662ZM25.6387 65.6969L26.8738 67.124L28.3901 64.5567L25.6387 65.6969ZM30.9317 71.261L29.3897 73.4265L28.1229 72.5259L32.4954 66.3758L34.8945 68.0821C35.3577 68.4087 35.7021 68.7828 35.9337 69.2024C36.1633 69.6201 36.2623 70.0516 36.2286 70.497C36.1969 70.9424 36.0386 71.364 35.7575 71.7599C35.328 72.3616 34.7836 72.6922 34.1245 72.7456C33.4653 72.7991 32.7706 72.5675 32.0401 72.0489L30.9317 71.261ZM31.6601 70.2337L32.7923 71.0394C33.1269 71.2769 33.4396 71.3798 33.7286 71.3481C34.0156 71.3145 34.265 71.1522 34.4729 70.8592C34.6866 70.5584 34.7698 70.2496 34.7262 69.9388C34.6787 69.628 34.5026 69.3568 34.1938 69.1292L33.0338 68.3038L31.6601 70.2337ZM37.7013 75.2555L36.7255 77.7298L35.2785 77.1597L38.0477 70.1387L40.7853 71.2175C41.3118 71.4253 41.7393 71.7064 42.062 72.0568C42.3866 72.4071 42.5865 72.803 42.6618 73.2425C42.737 73.6819 42.6855 74.1292 42.5054 74.5805C42.2342 75.2694 41.7849 75.7187 41.1594 75.9305C40.5319 76.1423 39.8015 76.0829 38.9681 75.7563L37.7013 75.2555ZM38.1625 74.0837L39.4551 74.5924C39.8371 74.7448 40.1657 74.7686 40.4369 74.6696C40.7081 74.5687 40.91 74.349 41.0426 74.0164C41.1792 73.672 41.1851 73.3533 41.0663 73.0603C40.9476 72.7713 40.712 72.5497 40.3577 72.4032L39.0315 71.8806L38.1625 74.0837ZM46.3672 77.5794L45.14 77.423L44.7916 80.1645L43.2477 79.9685L44.1998 72.4824L46.9809 72.8347C47.8657 72.9475 48.5228 73.2326 48.9524 73.6878C49.3819 74.1431 49.5521 74.729 49.4591 75.4495C49.3958 75.9602 49.2295 76.3719 48.9662 76.6847C48.701 76.9994 48.3308 77.229 47.8558 77.3735L49.087 80.6376L49.0791 80.7089L47.4243 80.499L46.3672 77.5794ZM45.2984 76.176L46.5434 76.3343C46.9294 76.3838 47.2421 76.3205 47.4777 76.1522C47.7172 75.982 47.8577 75.7227 47.9013 75.3783C47.9468 75.0259 47.8815 74.733 47.7073 74.5053C47.5311 74.2777 47.2362 74.1372 46.8225 74.0857L45.5834 73.9273L45.2984 76.176ZM57.3293 76.3996C57.4243 77.136 57.3768 77.7991 57.1848 78.387C56.9968 78.9769 56.6761 79.4519 56.2307 79.8161C55.7854 80.1784 55.247 80.4001 54.6195 80.4792C53.9999 80.5584 53.4259 80.4792 52.9013 80.2437C52.3788 80.0062 51.9472 79.6281 51.6068 79.1095C51.2703 78.5889 51.0545 77.9693 50.9595 77.2508L50.912 76.8806C50.819 76.1423 50.8704 75.4792 51.0644 74.8834C51.2564 74.2896 51.5791 73.8125 52.0264 73.4503C52.4718 73.0881 53.0082 72.8683 53.6317 72.7892C54.2553 72.71 54.8293 72.7892 55.3519 73.0267C55.8764 73.2662 56.304 73.6482 56.6424 74.1748C56.979 74.7013 57.1947 75.3307 57.2877 76.0651L57.3293 76.3996ZM55.724 76.2591C55.623 75.4733 55.4073 74.8953 55.0747 74.5231C54.7422 74.151 54.3146 73.9966 53.7921 74.0639C53.2754 74.1292 52.9033 74.3826 52.6737 74.822C52.4441 75.2595 52.3768 75.8672 52.4718 76.6451L52.5173 77.0113C52.6143 77.7753 52.8301 78.3494 53.1646 78.7373C53.4991 79.1233 53.9306 79.2817 54.4591 79.2144C54.9758 79.1491 55.3479 78.8957 55.5736 78.4543C55.7992 78.0109 55.8645 77.4032 55.7695 76.6233L55.724 76.2591ZM62.1908 76.554L61.6999 70.6474L63.3092 70.012L63.6338 77.997L62.1255 78.5928L56.9235 72.5318L58.5269 71.8984L62.1908 76.554ZM69.9244 70.693L67.4937 72.423L68.6655 74.0718L71.5198 72.0409L72.2423 73.0584L68.1211 75.9899L63.7466 69.8398L67.8599 66.9142L68.5903 67.9415L65.7439 69.9645L66.787 71.4313L69.2197 69.7013L69.9244 70.693ZM74.2396 71.3283L68.7783 66.1205L70.3797 64.4419C70.8369 63.9609 71.3555 63.6343 71.9335 63.4621C72.5115 63.2899 73.1014 63.2859 73.7012 63.4542C74.3049 63.6224 74.8591 63.9471 75.3678 64.432L75.6172 64.6715C76.1259 65.1545 76.4763 65.6909 76.6723 66.2749C76.8682 66.8608 76.894 67.4487 76.7495 68.0366C76.605 68.6244 76.3061 69.1569 75.8528 69.6379L74.2396 71.3283ZM70.7617 65.8651L74.4098 69.341L74.9284 68.7967C75.3461 68.3592 75.5242 67.8841 75.4589 67.3774C75.3916 66.8707 75.0947 66.36 74.5642 65.8453L74.2752 65.5702C73.719 65.0397 73.1885 64.7527 72.6837 64.7111C72.179 64.6676 71.7138 64.8675 71.2922 65.3109L70.7617 65.8651Z" fill="#666666"/>
<path d="M97.6333 33.1532H3.56297C1.5952 33.1532 0 34.7484 0 36.7162V55.1724C0 57.1402 1.5952 58.7354 3.56297 58.7354H97.6333C99.601 58.7354 101.196 57.1402 101.196 55.1724V36.7162C101.196 34.7484 99.601 33.1532 97.6333 33.1532Z" fill="#666666"/>
<path d="M97.6317 34.7368H3.56146C2.46825 34.7368 1.58203 35.6231 1.58203 36.7163V55.1725C1.58203 56.2657 2.46825 57.1519 3.56146 57.1519H97.6317C98.725 57.1519 99.6112 56.2657 99.6112 55.1725V36.7163C99.6112 35.6231 98.725 34.7368 97.6317 34.7368Z" fill="#666666"/>
<path fill-rule="evenodd" clip-rule="evenodd" d="M17.5012 53.0802L14.2972 50.0005H10.1621C9.98939 50.0026 9.81876 49.9668 9.65866 49.9015C9.50068 49.8362 9.35533 49.7393 9.23315 49.6171C9.11097 49.495 9.01407 49.3496 8.94877 49.1916C8.88136 49.0315 8.84766 48.8609 8.84766 48.6882V45.3851L12.5025 41.7303L17.0841 46.3162H20.2586V49.0041C20.2586 49.2696 20.1554 49.5202 19.9679 49.7077C19.7805 49.8952 19.5277 49.9984 19.2644 49.9984H17.5665L17.5012 53.0802Z" fill="white"/>
<path fill-rule="evenodd" clip-rule="evenodd" d="M7.76487 45.3076H6.05859L11.7441 39.62H17.5517L23.2077 45.276H17.4317L12.612 40.4584L7.76487 45.3076Z" fill="white"/>
<path fill-rule="evenodd" clip-rule="evenodd" d="M24.6445 41.1005H26.9027V44.4541H30.1004V41.1005H32.2406V50.0974H30.1004V46.2088H26.9027V50.0974H24.6445V41.1005Z" fill="white"/>
<path fill-rule="evenodd" clip-rule="evenodd" d="M36.4774 48.4083C37.5222 48.4083 38.1479 47.7111 38.1479 46.6957C38.1479 45.6804 37.5222 44.981 36.4774 44.981C35.4326 44.981 34.8048 45.6783 34.8048 46.6957C34.8048 47.7132 35.4326 48.4083 36.4774 48.4083ZM36.4774 43.142C38.567 43.142 40.2417 44.5366 40.2417 46.6936C40.2417 48.8528 38.5692 50.2473 36.4774 50.2473C34.3835 50.2473 32.7109 48.8549 32.7109 46.6936C32.7109 44.5345 34.3877 43.142 36.4774 43.142Z" fill="white"/>
<path fill-rule="evenodd" clip-rule="evenodd" d="M40.5 43.496H42.4001V44.3933H42.4254C42.6908 43.8773 43.3375 43.3359 44.3002 43.3359C45.1975 43.3359 45.9327 43.7129 46.2803 44.5155C46.7437 43.6729 47.363 43.3359 48.3152 43.3359C50.0573 43.3359 50.5881 44.5977 50.5881 46.2007V50.0957H48.6038V46.2555C48.6038 45.6467 48.3826 45.1285 47.7338 45.1285C46.8238 45.1285 46.531 45.7963 46.531 46.6094V50.0999H44.5508V46.6052C44.5508 46.1186 44.5782 45.1264 43.6661 45.1264C42.636 45.1264 42.478 45.9543 42.478 46.8095V50.0957H40.5V43.496Z" fill="white"/>
<path fill-rule="evenodd" clip-rule="evenodd" d="M55.9334 46.0426C55.9376 45.8783 55.9082 45.714 55.8471 45.5623C55.7839 45.4086 55.6933 45.2695 55.5753 45.1537C55.4595 45.0378 55.3204 44.9451 55.1688 44.884C55.015 44.823 54.8507 44.7935 54.6864 44.7956C53.7911 44.7956 53.3024 45.4065 53.2476 46.0426H55.9334ZM57.6545 48.9454C57.0035 49.7733 55.9334 50.2472 54.8739 50.2472C52.8411 50.2472 51.2148 48.8906 51.2148 46.7904C51.2148 44.686 52.8411 43.3336 54.8739 43.3336C56.7718 43.3336 57.9662 44.6881 57.9662 46.7904V47.4287H53.2476C53.4098 48.2018 53.9954 48.7032 54.7791 48.7032C55.4447 48.7032 55.8934 48.364 56.2305 47.9048L57.6545 48.9454Z" fill="white"/>
<path fill-rule="evenodd" clip-rule="evenodd" d="M61.8946 42.2087L60.1251 46.9484H63.6114L61.8946 42.2087ZM61.5617 41.3282H62.2927L65.4904 49.9797H64.6941L63.8705 47.6836H59.8449L58.9876 49.9776H58.2461L61.5617 41.3282Z" fill="white"/>
<path fill-rule="evenodd" clip-rule="evenodd" d="M70.4313 47.2981C70.4313 47.0053 70.3724 46.7125 70.2565 46.4429C70.1427 46.1816 69.9826 45.9436 69.7783 45.7456C69.574 45.5455 69.3338 45.3854 69.0684 45.2758C68.7904 45.1579 68.4891 45.0968 68.1858 45.101C67.8825 45.0968 67.5791 45.1558 67.2989 45.2758C67.0441 45.3854 66.8166 45.5455 66.6249 45.7456C66.4374 45.9457 66.2899 46.1838 66.1993 46.4429C66.0055 46.9969 66.0055 47.5993 66.1993 48.1533C66.2899 48.4124 66.4353 48.6505 66.6249 48.8506C66.8166 49.0528 67.0441 49.2129 67.2989 49.3246C67.5791 49.4425 67.8825 49.5015 68.1858 49.4973C68.4891 49.4994 68.7904 49.4404 69.0684 49.3246C69.3338 49.2108 69.574 49.0507 69.7783 48.8506C69.9826 48.6526 70.1427 48.4146 70.2565 48.1533C70.3724 47.8837 70.4313 47.593 70.4313 47.2981ZM70.3576 49.0444H70.3344C70.2291 49.2277 70.0901 49.3899 69.9279 49.5247C69.7657 49.6595 69.5887 49.7733 69.397 49.8617C69.2075 49.9523 69.0073 50.0176 68.7988 50.0597C68.5966 50.1019 68.3901 50.1229 68.1837 50.125C67.794 50.1271 67.4085 50.0555 67.0483 49.9102C66.7112 49.7796 66.4058 49.5795 66.1509 49.3246C65.8981 49.0676 65.7022 48.7621 65.5695 48.4272C65.2893 47.6983 65.2893 46.8915 65.5695 46.1606C65.7001 45.8278 65.8981 45.5223 66.1509 45.2653C66.4037 45.0083 66.7091 44.8082 67.0483 44.6776C67.4085 44.5344 67.794 44.4606 68.1837 44.4627C68.3901 44.4648 68.5966 44.488 68.7988 44.528C69.0073 44.5702 69.2075 44.6355 69.397 44.726C69.5887 44.8145 69.7657 44.9283 69.9279 45.0652C70.0901 45.2 70.227 45.3622 70.3344 45.5455H70.3576V41.1934H71.057V49.986H70.3576V49.0444Z" fill="white"/>
<path fill-rule="evenodd" clip-rule="evenodd" d="M71.7109 43.7928H72.6231L74.6853 49.1076L76.695 43.7928H77.5123L75.075 49.9775H74.243L71.7109 43.7928Z" fill="white"/>
<path fill-rule="evenodd" clip-rule="evenodd" d="M77.883 41.7663C77.8851 41.6084 77.942 41.4567 78.0431 41.3366C78.1442 41.2165 78.2832 41.1344 78.437 41.107C78.5929 41.0775 78.7509 41.1028 78.8899 41.1786C79.0268 41.2524 79.1364 41.3745 79.1954 41.5199C79.2522 41.6652 79.2607 41.8274 79.2122 41.977C79.1659 42.1266 79.069 42.2551 78.9384 42.3435C78.8078 42.4299 78.6519 42.4678 78.4939 42.451C78.338 42.4362 78.1927 42.3667 78.081 42.2551C78.0157 42.1919 77.9652 42.116 77.9315 42.0318C77.8956 41.9475 77.8809 41.8569 77.883 41.7663Z" fill="white"/>
<path fill-rule="evenodd" clip-rule="evenodd" d="M78.0977 43.7928H79.0182V49.9775H78.0977V43.7928Z" fill="white"/>
<path fill-rule="evenodd" clip-rule="evenodd" d="M80.3151 48.3935C80.4773 48.7158 80.7385 48.9792 81.0608 49.1456C81.381 49.3162 81.737 49.4047 82.1014 49.4047C82.272 49.4047 82.4426 49.3773 82.6069 49.3246C82.7691 49.2762 82.9229 49.1982 83.0598 49.0971C83.1905 49.0023 83.3042 48.8802 83.3864 48.7432C83.4727 48.6 83.517 48.4357 83.5127 48.2693C83.5127 47.987 83.4222 47.7721 83.241 47.631C83.0388 47.4793 82.8113 47.3656 82.569 47.2982C82.2783 47.2139 81.9855 47.1444 81.6885 47.0938C81.3852 47.0391 81.0903 46.9506 80.808 46.8242C80.5489 46.7104 80.3193 46.5398 80.1339 46.3271C79.9527 46.1143 79.8622 45.8131 79.8622 45.4191C79.8558 45.1453 79.9211 44.8757 80.0475 44.6334C80.1676 44.4164 80.334 44.229 80.5341 44.0815C80.7385 43.9319 80.966 43.8224 81.2082 43.7529C81.4547 43.6834 81.7117 43.6476 81.9687 43.6476C82.4742 43.6476 82.9124 43.7424 83.281 43.9277C83.6539 44.1194 83.9572 44.4291 84.1405 44.8083L83.4201 45.2338C83.2895 44.9726 83.0936 44.7514 82.8513 44.5871C82.6259 44.4417 82.331 44.368 81.9666 44.368C81.8149 44.3701 81.6653 44.3912 81.52 44.4333C81.3704 44.4754 81.2293 44.5386 81.0987 44.6229C80.9765 44.7008 80.8691 44.804 80.7869 44.9262C80.7027 45.0526 80.6584 45.2022 80.6584 45.3538C80.6584 45.6277 80.749 45.832 80.9323 45.9668C81.1366 46.1101 81.3662 46.2154 81.6064 46.2807C81.8949 46.3608 82.1899 46.4261 82.4869 46.4724C82.7902 46.5209 83.0851 46.6093 83.3653 46.7315C83.6286 46.8495 83.8603 47.0285 84.0394 47.2518C84.2205 47.4793 84.3132 47.7995 84.3132 48.2208C84.3195 48.5073 84.2585 48.7917 84.1321 49.0508C84.0141 49.2846 83.8456 49.4868 83.6391 49.6448C83.4264 49.807 83.1841 49.9292 82.9292 50.005C82.6554 50.0851 82.3731 50.1272 82.0887 50.1251C81.5853 50.1314 81.0881 50.0261 80.6289 49.8197C80.1971 49.6195 79.839 49.2888 79.6094 48.8717L80.3151 48.3935Z" fill="white"/>
<path fill-rule="evenodd" clip-rule="evenodd" d="M85.3835 46.9568C85.3814 47.2833 85.434 47.6056 85.5373 47.9153C85.6342 48.2018 85.7837 48.4672 85.9817 48.6968C86.1882 48.9264 86.4409 49.1118 86.7232 49.2382C87.0055 49.3667 87.3109 49.432 87.6206 49.432C87.9303 49.432 88.2357 49.3667 88.5201 49.2382C88.8023 49.1118 89.053 48.9264 89.2595 48.6968C89.4596 48.4672 89.6113 48.2018 89.7039 47.9153C89.9104 47.2918 89.9104 46.6198 89.7039 45.9963C89.6091 45.7098 89.4575 45.4444 89.2595 45.2148C89.053 44.9851 88.8002 44.8019 88.518 44.6755C88.2357 44.5491 87.9303 44.4838 87.6206 44.4838C87.313 44.4838 87.0055 44.5491 86.7232 44.6755C86.4409 44.8019 86.1903 44.9851 85.9817 45.2148C85.7837 45.4444 85.6342 45.7098 85.5373 45.9963C85.434 46.3059 85.3814 46.6303 85.3835 46.9568ZM84.6525 46.9568C84.6483 46.525 84.722 46.0932 84.8716 45.6866C85.0085 45.3159 85.215 44.9746 85.4825 44.6839C85.7458 44.3995 86.066 44.1762 86.4241 44.0267C86.8033 43.8666 87.2098 43.7865 87.6206 43.7907C88.0293 43.7865 88.4358 43.8666 88.8129 44.0267C89.1689 44.1783 89.4891 44.4016 89.7524 44.6839C90.022 44.9746 90.2327 45.3159 90.3696 45.6866C90.6624 46.5103 90.6624 47.4076 90.3696 48.2292C90.2327 48.602 90.022 48.9412 89.7524 49.2319C89.4891 49.5141 89.1689 49.7395 88.8129 49.8912C88.4358 50.0513 88.0293 50.1293 87.6206 50.125C87.2098 50.1293 86.8033 50.0492 86.4241 49.8912C86.066 49.7417 85.7458 49.5163 85.4825 49.2319C85.215 48.9412 85.0085 48.5999 84.8716 48.2292C84.722 47.8226 84.6483 47.3908 84.6525 46.9568Z" fill="white"/>
<path fill-rule="evenodd" clip-rule="evenodd" d="M91.2002 45.6022C91.2002 45.4864 91.196 45.3494 91.1876 45.1851C91.177 45.0229 91.1707 44.8586 91.1644 44.6922C91.1581 44.5258 91.1539 44.3699 91.1455 44.2246C91.137 44.0792 91.1328 43.9676 91.1328 43.8875H91.9607C91.9691 44.1171 91.9775 44.3362 91.9796 44.5469C91.9796 44.6838 91.9902 44.8207 92.0154 44.9576C92.2177 44.6058 92.4978 44.3025 92.8307 44.0729C93.1635 43.8433 93.5701 43.7295 94.0503 43.7295C94.1304 43.7295 94.2104 43.7359 94.2905 43.7506C94.3684 43.7611 94.4506 43.778 94.5348 43.7948L94.4358 44.5764C94.3347 44.5427 94.2252 44.5237 94.1177 44.5216C93.7976 44.5153 93.4816 44.5721 93.1867 44.688C92.936 44.787 92.7127 44.945 92.5358 45.1451C92.3609 45.341 92.2324 45.5727 92.1524 45.8213C92.0702 46.093 92.0281 46.3753 92.0302 46.6597V49.9796H91.2002V45.6022Z" fill="white"/>
<defs>
<linearGradient id="paint0_linear_3671_4036" x1="12.3555" y1="7.69972" x2="105.287" y2="51.9759" gradientUnits="userSpaceOnUse">
<stop stop-color="#C4CBCD"/>
<stop offset="0.263542" stop-color="white"/>
<stop offset="0.523958" stop-color="#CACED0"/>
<stop offset="0.763542" stop-color="white"/>
<stop offset="1" stop-color="#C4CBCD"/>
</linearGradient>
</defs>
</svg>
