<svg width="96" height="92" viewBox="0 0 96 92" fill="none" xmlns="http://www.w3.org/2000/svg">
<path fill-rule="evenodd" clip-rule="evenodd" d="M90.6751 47.9767L93.8202 58.3928C93.8786 58.549 93.9313 58.709 93.9783 58.869C95.0192 62.4621 92.7135 66.2133 88.6781 65.404C85.1602 64.6982 81.4166 64.3161 77.846 63.981C73.0295 63.5293 68.1922 63.215 63.3606 62.9835C58.1564 62.7331 52.9333 62.5769 47.7252 62.5769C42.5153 62.5769 37.2922 62.7331 32.0898 62.9835C27.2582 63.215 22.421 63.5293 17.6044 63.981C14.0339 64.3161 10.2902 64.6982 6.77237 65.404C5.3099 65.6976 3.81355 65.372 2.7087 64.3368C1.09754 62.8291 0.884851 60.3766 1.6302 58.3928L4.77535 47.9767L0.500883 38.0349L0.48959 38.0048C-0.88065 34.6263 0.790742 30.9315 4.5909 30.4346C12.5112 29.4013 20.5218 28.7087 28.4948 28.24C34.8924 27.8654 41.3163 27.6358 47.7252 27.6358C54.1341 27.6358 60.558 27.8654 66.9556 28.24C74.9286 28.7087 82.9393 29.4013 90.8595 30.4346C94.6597 30.9315 96.3292 34.6263 94.9609 38.0048L94.9496 38.0349L90.6751 47.9767Z" fill="white"/>
<path d="M84.7842 5.62371L84.9417 5.14916L84.7842 5.62372C87.0416 6.37273 88.562 8.48163 88.5637 10.8545L88.575 82.8332V82.8334C88.5767 85.8826 86.1019 88.3561 83.052 88.3561C82.4801 88.3561 81.9106 88.268 81.3676 88.0939L81.3528 88.0892L81.3378 88.0854C76.5069 86.861 71.4226 86.1333 66.4945 85.6277C54.4314 84.3895 41.0223 84.3895 28.9555 85.6277C24.0274 86.1333 18.9413 86.861 14.1122 88.0854L14.0974 88.0891L14.0828 88.0938C13.5375 88.2681 12.9696 88.3561 12.398 88.3561C9.34807 88.3561 6.87328 85.8826 6.875 82.8334V82.8332L6.88629 10.8542V10.8541C6.88629 8.48158 8.40829 6.37104 10.6654 5.62383L10.6658 5.62371C16.2705 3.76356 22.2029 2.57021 28.0699 1.78245L28.0699 1.78244C40.5969 0.100046 54.8493 0.100044 67.3801 1.78245C73.2471 2.57021 79.1795 3.76356 84.7842 5.62371Z" fill="url(#paint0_linear_3671_4006)" stroke="#E7E7E7"/>
<path fill-rule="evenodd" clip-rule="evenodd" d="M86.2124 61.8579L86.2161 88.8561C86.2161 90.52 84.8666 91.8676 83.2046 91.8676C82.8564 91.8676 82.5233 91.8093 82.2127 91.702C78.0229 90.6329 72.813 89.7596 66.9029 89.1535C61.1151 88.5587 54.6234 88.2274 47.7233 88.2274C40.8232 88.2274 34.3315 88.5587 28.5437 89.1535C22.5207 89.7708 17.226 90.6668 12.9949 91.7622C11.3912 92.1782 9.75184 91.2145 9.33587 89.609C9.27188 89.3586 9.23988 89.1045 9.23988 88.8561H9.23047V61.8597C10.228 61.7016 11.2331 61.5624 12.242 61.4381V88.8561C20.8417 86.6276 33.5485 85.2159 47.7233 85.2159C61.8981 85.2159 74.6048 86.6276 83.2046 88.8561V61.4381C84.2116 61.5624 85.2167 61.7016 86.2124 61.8579Z" fill="#666666"/>
<path fill-rule="evenodd" clip-rule="evenodd" d="M11.5741 7.91791C21.753 4.68994 34.9359 3.03737 48.036 3.03737C61.0514 3.03737 74.0969 4.67112 84.1516 8.00637C85.4127 8.42422 86.2108 9.59494 86.2108 10.8541L86.2126 29.8662C79.815 29.1378 73.3761 28.6164 66.9615 28.24C60.562 27.8654 54.14 27.6358 47.7292 27.6358C41.3203 27.6358 34.8964 27.8654 28.4988 28.24C22.0805 28.6164 15.6378 29.1397 9.23828 29.8681V10.8541C9.23828 9.42367 10.2358 8.22471 11.5741 7.91791Z" fill="#666666"/>
<path fill-rule="evenodd" clip-rule="evenodd" d="M83.2048 61.6263V88.8561C74.605 86.6276 61.8983 85.2159 47.7235 85.2159C33.5487 85.2159 20.8419 86.6276 12.2422 88.8561V61.6263C14.0397 61.4042 15.8409 61.2273 17.6027 61.0636C22.4192 60.6118 27.2565 60.2975 32.0881 60.066C37.2905 59.8157 42.5136 59.6594 47.7235 59.6594C52.9315 59.6594 58.1546 59.8157 63.3589 60.066C68.1905 60.2975 73.0278 60.6118 77.8443 61.0636C79.606 61.2273 81.4073 61.4042 83.2048 61.6263Z" fill="url(#paint1_linear_3671_4006)"/>
<path fill-rule="evenodd" clip-rule="evenodd" d="M47.7259 30.6474C34.127 30.6361 17.6992 31.7598 4.98117 33.4217C3.08956 33.6683 2.68677 35.4056 3.28155 36.8737L7.97575 47.7942L4.48051 59.3754C3.88573 60.8435 4.30923 62.8273 6.18201 62.4509C14.6651 60.7494 34.1402 59.5937 47.7259 59.5655C61.3116 59.5937 80.7867 60.7494 89.2698 62.4509C91.1425 62.8273 91.566 60.8435 90.9713 59.3754L87.476 47.7942L92.1702 36.8737C92.765 35.4056 92.3622 33.6683 90.4687 33.4217C77.7526 31.7598 61.3248 30.6361 47.7259 30.6474Z" fill="#666666"/>
<path fill-rule="evenodd" clip-rule="evenodd" d="M23.8781 79.5281L21.548 77.2883H18.5421C18.416 77.2883 18.2918 77.2638 18.1769 77.2168C18.0603 77.1679 17.9548 77.0982 17.8664 77.0097C17.7779 76.9213 17.7064 76.8159 17.6593 76.6992C17.6104 76.5844 17.5859 76.4601 17.5859 76.334V73.9324L20.2436 71.2747L23.5751 74.6099H25.8827V76.5637C25.8827 76.7556 25.8074 76.9401 25.6719 77.0756C25.5363 77.2111 25.3519 77.2864 25.1599 77.2864H23.9271L23.8781 79.5281Z" fill="#666666"/>
<path fill-rule="evenodd" clip-rule="evenodd" d="M16.799 73.8758H15.5586L19.6919 69.7406H23.9156L28.0263 73.8532H23.8271L20.3224 70.3504L16.799 73.8758Z" fill="#666666"/>
<path fill-rule="evenodd" clip-rule="evenodd" d="M29.0742 70.8155H30.7155V73.2548H33.04V70.8155H34.5985V77.358H33.04V74.531H30.7155V77.358H29.0742V70.8155Z" fill="#666666"/>
<path fill-rule="evenodd" clip-rule="evenodd" d="M37.6781 76.1308C38.4385 76.1308 38.894 75.6245 38.894 74.8848C38.894 74.147 38.4385 73.6388 37.6781 73.6388C36.9196 73.6388 36.4622 74.1451 36.4622 74.8848C36.4622 75.6245 36.9196 76.1308 37.6781 76.1308ZM37.6781 72.3024C39.1989 72.3024 40.4167 73.3151 40.4167 74.8848C40.4167 76.4546 39.1989 77.4672 37.6781 77.4672C36.1573 77.4672 34.9414 76.4546 34.9414 74.8848C34.9414 73.3132 36.1592 72.3024 37.6781 72.3024Z" fill="#666666"/>
<path fill-rule="evenodd" clip-rule="evenodd" d="M40.6016 72.5584H41.9831V73.2115H42.0019C42.1939 72.8351 42.6645 72.4417 43.3646 72.4417C44.0178 72.4417 44.5523 72.7165 44.8045 73.3C45.1414 72.6864 45.5913 72.4417 46.2839 72.4417C47.5506 72.4417 47.9384 73.3602 47.9384 74.5253V77.358H46.4947V74.5648C46.4947 74.1225 46.3329 73.7461 45.8623 73.7461C45.1998 73.7461 44.9871 74.2317 44.9871 74.8227V77.3599H43.5472V74.8189C43.5472 74.4651 43.5679 73.7442 42.9054 73.7442C42.1563 73.7442 42.0396 74.3465 42.0396 74.9676V77.358H40.6016V72.5584Z" fill="#666666"/>
<path fill-rule="evenodd" clip-rule="evenodd" d="M51.8239 74.4104C51.8277 74.2918 51.807 74.1713 51.7618 74.0603C51.7166 73.9493 51.6507 73.8476 51.566 73.7629C51.4813 73.6782 51.3797 73.6123 51.2686 73.5672C51.1576 73.5239 51.0371 73.5013 50.9186 73.5051C50.2673 73.5051 49.9135 73.9474 49.8739 74.4104H51.8239ZM53.0756 76.5203C52.6031 77.1226 51.8239 77.4671 51.056 77.4671C49.5766 77.4671 48.3945 76.4808 48.3945 74.9525C48.3945 73.4241 49.5766 72.4397 51.056 72.4397C52.4356 72.4397 53.3033 73.426 53.3033 74.9525V75.4174H49.8739C49.9906 75.9801 50.416 76.3453 50.9863 76.3453C51.47 76.3453 51.7957 76.0987 52.0403 75.7637L53.0756 76.5203Z" fill="#666666"/>
<path fill-rule="evenodd" clip-rule="evenodd" d="M56.1578 71.6209L54.8704 75.0691H57.4057L56.1578 71.6209ZM55.915 70.981H56.4477L58.7722 77.2731H58.1943L57.5939 75.6036H54.6671L54.0441 77.2713H53.5039L55.915 70.981Z" fill="#666666"/>
<path fill-rule="evenodd" clip-rule="evenodd" d="M62.3669 75.3231C62.3669 75.1104 62.3236 74.8978 62.2389 74.702C62.158 74.5119 62.0413 74.3387 61.8926 74.1938C61.7439 74.0489 61.5689 73.9322 61.3769 73.8513C61.1736 73.7666 60.9553 73.7233 60.735 73.7251C60.5129 73.7214 60.2927 73.7647 60.0895 73.8513C59.905 73.9322 59.7394 74.0489 59.6001 74.1938C59.4627 74.3406 59.3573 74.5119 59.2895 74.702C59.1484 75.1048 59.1484 75.5433 59.2895 75.9443C59.3573 76.1344 59.4627 76.3075 59.6001 76.4524C59.7394 76.5974 59.905 76.7141 60.0895 76.795C60.2927 76.8816 60.5129 76.9249 60.735 76.9211C60.9553 76.923 61.1736 76.8816 61.3769 76.795C61.5689 76.7141 61.7439 76.5974 61.8926 76.4524C62.0413 76.3075 62.158 76.1362 62.2389 75.9443C62.3236 75.7485 62.3669 75.5377 62.3669 75.3231ZM62.3142 76.5917H62.2973C62.2201 76.7254 62.1203 76.8439 62.0018 76.9418C61.8832 77.0397 61.7552 77.1225 61.6159 77.1865C61.4766 77.2524 61.3317 77.3013 61.1811 77.3314C61.0343 77.3616 60.8837 77.3766 60.7332 77.3785C60.4508 77.3804 60.1704 77.3277 59.9069 77.2223C59.6622 77.1282 59.4401 76.9832 59.2538 76.7969C59.0712 76.6087 58.9281 76.3866 58.8321 76.1438C58.6289 75.613 58.6289 75.0257 58.8321 74.4968C58.9281 74.254 59.0712 74.0319 59.2538 73.8456C59.4401 73.6574 59.6622 73.5125 59.9069 73.4165C60.1704 73.3129 60.4508 73.2602 60.7332 73.2621C60.8837 73.264 61.0343 73.2791 61.1811 73.3092C61.3317 73.3393 61.4766 73.3882 61.6159 73.4522C61.7552 73.5181 61.8832 73.6009 62.0018 73.6988C62.1185 73.7967 62.2201 73.9152 62.2973 74.0489H62.3142V70.883H62.8224V77.2769H62.3142V76.5917Z" fill="#666666"/>
<path fill-rule="evenodd" clip-rule="evenodd" d="M63.2969 72.7728H63.9613L65.4595 76.6389L66.9201 72.7728H67.5149L65.7437 77.2713H65.1377L63.2969 72.7728Z" fill="#666666"/>
<path fill-rule="evenodd" clip-rule="evenodd" d="M67.7854 71.301C67.7872 71.1862 67.8268 71.0752 67.9002 70.9886C67.9755 70.9001 68.0752 70.8418 68.1881 70.8211C68.3011 70.8004 68.4159 70.8173 68.5175 70.8719C68.6173 70.9284 68.6945 71.0149 68.7377 71.1203C68.781 71.2276 68.7848 71.3443 68.7509 71.4535C68.717 71.5627 68.6474 71.6568 68.5514 71.7189C68.4573 71.7829 68.3425 71.8111 68.2296 71.7998C68.1147 71.7885 68.0093 71.7377 67.9284 71.6568C67.8813 71.6097 67.8437 71.5551 67.8192 71.493C67.7948 71.4328 67.7835 71.3669 67.7854 71.301Z" fill="#666666"/>
<path fill-rule="evenodd" clip-rule="evenodd" d="M67.9414 72.7728H68.6096V77.2713H67.9414V72.7728Z" fill="#666666"/>
<path fill-rule="evenodd" clip-rule="evenodd" d="M69.5529 76.1195C69.6696 76.3548 69.8597 76.5449 70.095 76.6653C70.3265 76.7914 70.5862 76.8554 70.8516 76.8554C70.9758 76.8554 71.1001 76.8347 71.2186 76.7971C71.3372 76.7613 71.4483 76.7049 71.548 76.6315C71.644 76.5618 71.725 76.4734 71.7871 76.3736C71.8473 76.2701 71.8793 76.1515 71.8774 76.0292C71.8774 75.824 71.8115 75.6678 71.6798 75.5643C71.533 75.4551 71.3673 75.3723 71.1904 75.3233C70.9796 75.2612 70.7669 75.2123 70.5505 75.1746C70.3303 75.1351 70.1157 75.0692 69.9105 74.9789C69.7223 74.8961 69.5548 74.7718 69.4211 74.6175C69.2894 74.4632 69.2235 74.243 69.2235 73.9569C69.2179 73.7592 69.2649 73.5616 69.359 73.3847C69.4456 73.2284 69.5661 73.091 69.711 72.9838C69.8597 72.8765 70.0253 72.7955 70.2023 72.7466C70.3811 72.6958 70.5674 72.6694 70.7537 72.6694C71.1227 72.6694 71.4407 72.7372 71.708 72.8727C71.9809 73.012 72.2012 73.2379 72.3348 73.5127L71.8097 73.8213C71.7155 73.6331 71.5725 73.4712 71.3975 73.3527C71.2318 73.2473 71.0191 73.1927 70.7537 73.1927C70.6427 73.1946 70.5335 73.2096 70.4281 73.2397C70.319 73.2699 70.2173 73.3169 70.1232 73.3771C70.0329 73.4355 69.9557 73.5108 69.8955 73.5992C69.8333 73.6915 69.8014 73.7988 69.8032 73.9098C69.8032 74.1093 69.8691 74.258 70.0009 74.3559C70.1496 74.4594 70.3171 74.5366 70.4921 74.5817C70.701 74.642 70.9156 74.689 71.1321 74.7229C71.3523 74.7587 71.5669 74.8227 71.7701 74.9111C71.9621 74.9977 72.1296 75.1276 72.2595 75.2895C72.3931 75.4551 72.459 75.6885 72.459 75.9934C72.4647 76.2023 72.4195 76.4094 72.3273 76.5976C72.2426 76.767 72.1202 76.9157 71.9678 77.0305C71.8134 77.1472 71.6384 77.2356 71.452 77.2921C71.2544 77.3505 71.0474 77.3806 70.8422 77.3787C70.4771 77.3843 70.1138 77.3072 69.7806 77.1566C69.4663 77.0117 69.2066 76.7707 69.0391 76.4677L69.5529 76.1195Z" fill="#666666"/>
<path fill-rule="evenodd" clip-rule="evenodd" d="M73.2399 75.0749C73.238 75.3121 73.2756 75.5474 73.3509 75.7713C73.4206 75.9803 73.5297 76.1741 73.6747 76.3398C73.8252 76.5073 74.0078 76.6428 74.213 76.735C74.4181 76.8273 74.6402 76.8743 74.8661 76.8743C75.092 76.8743 75.3141 76.8273 75.5192 76.735C75.7244 76.6428 75.9088 76.5073 76.0575 76.3398C76.2025 76.1741 76.3135 75.9803 76.3813 75.7713C76.53 75.3196 76.53 74.8302 76.3813 74.3766C76.3116 74.1677 76.2006 73.9757 76.0575 73.8082C75.9069 73.6426 75.7244 73.5071 75.5192 73.4167C75.3141 73.3245 75.0901 73.2774 74.8661 73.2774C74.6421 73.2774 74.4181 73.3245 74.2149 73.4167C74.0097 73.5071 73.8252 73.6426 73.6747 73.8082C73.5316 73.9757 73.4206 74.1677 73.3509 74.3766C73.2756 74.6025 73.238 74.8378 73.2399 75.0749ZM72.7072 75.0749C72.7034 74.7606 72.758 74.4482 72.8672 74.1526C72.967 73.8816 73.1175 73.635 73.3095 73.4224C73.5034 73.2153 73.7368 73.0534 73.9965 72.9443C74.2713 72.8276 74.5668 72.7711 74.8661 72.773C75.1635 72.7692 75.459 72.8276 75.7319 72.9443C75.9916 73.0534 76.2232 73.2172 76.417 73.4224C76.6128 73.6332 76.7652 73.8816 76.865 74.1526C77.0777 74.7493 77.0777 75.4024 76.865 76.001C76.7652 76.2701 76.6128 76.5186 76.417 76.7294C76.225 76.9345 75.9916 77.0983 75.7319 77.2075C75.459 77.3242 75.1635 77.3825 74.8661 77.3787C74.5668 77.3825 74.2713 77.3242 73.9965 77.2075C73.7349 77.1002 73.5015 76.9364 73.3095 76.7294C73.1175 76.5167 72.967 76.2701 72.8672 76.001C72.758 75.7036 72.7034 75.3911 72.7072 75.0749Z" fill="#666666"/>
<path fill-rule="evenodd" clip-rule="evenodd" d="M77.4688 74.0905C77.4688 74.0058 77.465 73.906 77.4575 73.7874C77.45 73.6689 77.4462 73.5503 77.4424 73.4279C77.4368 73.3075 77.433 73.1945 77.4274 73.0891C77.4217 72.9818 77.418 72.9009 77.418 72.8444H78.0203C78.0259 73.0101 78.0334 73.1682 78.0353 73.3225C78.0334 73.4223 78.0429 73.522 78.0617 73.6199C78.2085 73.3658 78.4099 73.1456 78.6546 72.9781C78.8955 72.8125 79.191 72.7278 79.5392 72.7278C79.5976 72.7278 79.6559 72.7334 79.7142 72.7428C79.7707 72.7522 79.8309 72.7635 79.8912 72.7767L79.8215 73.3451C79.7462 73.3188 79.6672 73.3056 79.5881 73.3056C79.3566 73.2999 79.127 73.3413 78.9106 73.4242C78.7299 73.4976 78.568 73.6124 78.4381 73.7573C78.312 73.9004 78.2179 74.0679 78.1614 74.2505C78.0993 74.4462 78.0692 74.6514 78.0711 74.8584V77.2733H77.4688V74.0905Z" fill="#666666"/>
<path fill-rule="evenodd" clip-rule="evenodd" d="M77.6547 18.366C77.6396 18.1477 77.7488 17.839 77.8994 17.679L78.9779 16.5177C79.1265 16.3577 79.0776 16.1789 78.8668 16.1205L77.1898 15.6556C76.979 15.5973 76.7173 15.3959 76.6082 15.2058L75.7574 13.7358C75.6464 13.5476 75.4676 13.5476 75.3584 13.7358L74.5076 15.2058C74.3985 15.3959 74.1368 15.5973 73.926 15.6556L72.249 16.1205C72.0382 16.1789 71.9874 16.3577 72.1361 16.5177L73.2164 17.679C73.3651 17.839 73.4762 18.1477 73.4611 18.366L73.3463 20.1033C73.3331 20.3216 73.4837 20.427 73.6832 20.3385L75.1946 19.6647C75.3941 19.5763 75.7216 19.5763 75.9212 19.6647L77.4326 20.3385C77.6321 20.427 77.7827 20.3216 77.7695 20.1052L77.6547 18.366Z" fill="url(#paint2_linear_3671_4006)"/>
<path fill-rule="evenodd" clip-rule="evenodd" d="M21.9906 18.366C21.9755 18.1477 22.0847 17.839 22.2353 17.679L23.3138 16.5177C23.4625 16.3577 23.4135 16.1789 23.2027 16.1205L21.5257 15.6556C21.3149 15.5973 21.0533 15.3959 20.9441 15.2058L20.0933 13.7358C19.9823 13.5476 19.8035 13.5476 19.6943 13.7358L18.8436 15.2058C18.7344 15.3959 18.4728 15.5973 18.262 15.6556L16.5849 16.1205C16.3741 16.1789 16.3233 16.3577 16.472 16.5177L17.5524 17.679C17.7011 17.839 17.8102 18.1477 17.7971 18.366L17.6823 20.1033C17.6691 20.3216 17.8197 20.427 18.0192 20.3385L19.5306 19.6647C19.7301 19.5763 20.0576 19.5763 20.2571 19.6647L21.7685 20.3385C21.968 20.427 22.1186 20.3216 22.1054 20.1052L21.9906 18.366Z" fill="url(#paint3_linear_3671_4006)"/>
<path d="M34.5815 17.374H30.0831V21.0556H35.3099V22.1755H28.7109V11.7895H35.2384V12.917H30.0831V16.2541H34.5815V17.374Z" fill="white"/>
<path d="M39.077 21.0556H43.9989V22.1755H37.6992V11.7895H39.077V21.0556Z" fill="white"/>
<path d="M47.7198 22.1755H46.3477V11.7895H47.7198V22.1755Z" fill="white"/>
<path d="M57.879 12.917H54.54V22.1755H53.1791V12.917H49.8477V11.7895H57.879V12.917Z" fill="white"/>
<path d="M65.976 17.374H61.4776V21.0556H66.7045V22.1755H60.1055V11.7895H66.6329V12.917H61.4776V16.2541H65.976V17.374Z" fill="white"/>
<path d="M22.5407 48.5563C22.5068 48.1554 22.3393 47.8561 22.04 47.666C21.7389 47.4759 21.21 47.2915 20.4534 47.1127C19.6967 46.9357 19.0944 46.7475 18.6483 46.5536C17.4249 46.0172 16.7699 45.2116 16.6814 44.1407C16.6363 43.5854 16.7511 43.0753 17.0296 42.6104C17.3082 42.1512 17.7298 41.7729 18.2964 41.4774C18.8667 41.1856 19.516 41.0068 20.2444 40.9485C20.9823 40.8864 21.6486 40.9654 22.2471 41.1837C22.8437 41.404 23.3218 41.7428 23.6813 42.2039C24.0408 42.6631 24.246 43.2015 24.2968 43.8207L22.1718 43.9957C22.1342 43.5233 21.9535 43.1695 21.6354 42.9323C21.3154 42.6933 20.8863 42.5973 20.3498 42.6424C19.8303 42.6838 19.437 42.8269 19.1678 43.0697C18.8968 43.3144 18.7763 43.6155 18.8064 43.9732C18.8328 44.3101 19.0266 44.5755 19.3805 44.775C19.7381 44.9726 20.252 45.1439 20.9239 45.2869C22.1624 45.5523 23.079 45.9306 23.6757 46.4238C24.2723 46.9169 24.6055 47.5625 24.6714 48.3662C24.7448 49.2565 24.4643 49.9868 23.8319 50.5496C23.1957 51.1123 22.3092 51.4398 21.1686 51.5339C20.3762 51.5998 19.6421 51.5151 18.9645 51.2761C18.2907 51.0389 17.7599 50.6832 17.3778 50.207C16.9939 49.7308 16.7737 49.1605 16.7191 48.4923L18.8497 48.3173C18.9438 49.456 19.6704 49.968 21.0293 49.855C21.5356 49.8136 21.9215 49.68 22.1869 49.4503C22.4522 49.2226 22.5708 48.9233 22.5407 48.5563ZM33.0076 46.1678L28.9251 46.3993L29.0813 49.1661L33.8753 48.8951L33.9713 50.6041L27.0505 50.9956L26.4651 40.6699L33.3709 40.2784L33.4688 42.0006L28.6899 42.2716L28.8291 44.7336L32.9135 44.5021L33.0076 46.1678ZM39.6386 46.5424L37.9427 46.5913L38.0538 50.3764L35.9231 50.4404L35.6201 40.0996L39.4598 39.9885C40.6813 39.9509 41.63 40.1975 42.3113 40.7207C42.9889 41.2477 43.3428 42.0063 43.3729 43.0001C43.3936 43.704 43.2581 44.2988 42.9663 44.7769C42.6746 45.2587 42.2229 45.6483 41.6093 45.9457L43.9714 50.1035L43.9733 50.2032L41.6883 50.271L39.6386 46.5424ZM37.8919 44.8672L39.6104 44.8183C40.143 44.8013 40.5533 44.6507 40.8394 44.3722C41.1255 44.0917 41.2611 43.7115 41.246 43.2335C41.2328 42.7478 41.0822 42.3658 40.798 42.0947C40.5119 41.8237 40.0828 41.6957 39.5106 41.7126L37.7997 41.7635L37.8919 44.8672ZM49.5785 47.7884L51.9764 40.0262L54.348 40.0412L50.6758 50.3613L48.4529 50.3463L44.937 39.9772L47.301 39.9942L49.5785 47.7884ZM58.2027 50.4272L56.0758 50.3557L56.4221 40.0187L58.549 40.0902L58.2027 50.4272ZM69.1684 47.538C69.0253 48.6448 68.5661 49.4955 67.7887 50.0922C67.0152 50.6907 66.0214 50.9542 64.8111 50.8865C63.486 50.8112 62.4697 50.3068 61.7619 49.3694C61.0542 48.4358 60.7437 47.1917 60.8321 45.6351L60.8679 45.0027C60.9225 44.0108 61.1465 43.1469 61.5417 42.4109C61.9332 41.6731 62.4659 41.1216 63.1378 40.7546C63.8117 40.3857 64.5796 40.2276 65.4379 40.2765C66.6312 40.3443 67.5723 40.7188 68.2649 41.3964C68.9576 42.0759 69.3284 42.9963 69.3736 44.1576L67.2467 44.0371C67.2335 43.3652 67.0735 42.874 66.7705 42.5521C66.4712 42.234 65.9931 42.0571 65.34 42.0194C64.6304 41.9799 64.0865 42.2039 63.7063 42.6914C63.3242 43.1807 63.1002 43.96 63.0305 45.0272L62.9854 45.8083C62.9214 46.9244 63.0437 47.7488 63.3524 48.2815C63.663 48.816 64.1806 49.1059 64.909 49.1473C65.5659 49.185 66.0647 49.0626 66.4072 48.7803C66.746 48.498 66.9587 48.0443 67.0415 47.4176L69.1684 47.538ZM77.642 47.1672L73.5652 46.8303L73.3375 49.5934L78.122 49.9868L77.9827 51.6939L71.0732 51.1236L71.9221 40.8148L78.8165 41.3833L78.6754 43.1036L73.9059 42.7121L73.7026 45.1684L77.7794 45.5053L77.642 47.1672Z" fill="white"/>
<defs>
<linearGradient id="paint0_linear_3671_4006" x1="6.375" y1="0.0206451" x2="109.394" y2="45.7131" gradientUnits="userSpaceOnUse">
<stop stop-color="#C4CBCD"/>
<stop offset="0.263542" stop-color="white"/>
<stop offset="0.523958" stop-color="#CACED0"/>
<stop offset="0.763542" stop-color="white"/>
<stop offset="1" stop-color="#C4CBCD"/>
</linearGradient>
<linearGradient id="paint1_linear_3671_4006" x1="12.2422" y1="59.6594" x2="57.4325" y2="111.989" gradientUnits="userSpaceOnUse">
<stop stop-color="#C4CBCD"/>
<stop offset="0.263542" stop-color="white"/>
<stop offset="0.523958" stop-color="#CACED0"/>
<stop offset="0.763542" stop-color="white"/>
<stop offset="1" stop-color="#C4CBCD"/>
</linearGradient>
<linearGradient id="paint2_linear_3671_4006" x1="72.0508" y1="13.5946" x2="80.4602" y2="17.7418" gradientUnits="userSpaceOnUse">
<stop stop-color="#C4CBCD"/>
<stop offset="0.263542" stop-color="white"/>
<stop offset="0.523958" stop-color="#CACED0"/>
<stop offset="0.763542" stop-color="white"/>
<stop offset="1" stop-color="#C4CBCD"/>
</linearGradient>
<linearGradient id="paint3_linear_3671_4006" x1="16.3867" y1="13.5946" x2="24.7961" y2="17.7418" gradientUnits="userSpaceOnUse">
<stop stop-color="#C4CBCD"/>
<stop offset="0.263542" stop-color="white"/>
<stop offset="0.523958" stop-color="#CACED0"/>
<stop offset="0.763542" stop-color="white"/>
<stop offset="1" stop-color="#C4CBCD"/>
</linearGradient>
</defs>
</svg>
