<svg width="82" height="94" viewBox="0 0 82 94" fill="none" xmlns="http://www.w3.org/2000/svg">
<path fill-rule="evenodd" clip-rule="evenodd" d="M37.8941 92.206L4.60091 77.1547C3.72473 76.7579 2.87977 75.9773 2.25156 75.0019C1.62151 74.0265 1.25781 72.9354 1.25781 71.9729V4.36698C1.25965 3.47426 1.616 2.62012 2.24788 1.98823C2.87793 1.35819 3.73207 1.00184 4.62479 1H78.1491C79.0418 1.00184 79.896 1.35819 80.5278 1.98823C81.1579 2.62012 81.5142 3.47426 81.5161 4.36514C81.5161 4.36698 81.5161 4.36698 81.5161 4.36698V71.9729C81.5161 72.9336 81.1524 74.0247 80.5242 75C79.8941 75.9754 79.0492 76.7579 78.173 77.1547L44.8779 92.206C43.9631 92.6193 42.6975 92.847 41.386 92.847C40.0727 92.847 38.8089 92.6193 37.8941 92.206Z" fill="#666666" stroke="#E7E7E7" stroke-width="0.5292"/>
<path fill-rule="evenodd" clip-rule="evenodd" d="M77.6277 59.9395C78.0575 59.4747 78.2724 58.8906 78.2357 58.3157C78.2375 58.2679 78.2393 58.2165 78.2393 58.165V6.50866C78.2393 6.13761 78.1659 5.7684 78.0226 5.4249C77.8812 5.08325 77.6718 4.77098 77.4091 4.50831C77.1446 4.24564 76.8323 4.03807 76.4888 3.89663C76.1472 3.75335 75.7779 3.68172 75.4051 3.68172H7.21503C6.84398 3.68172 6.47477 3.75335 6.13128 3.89479C5.78778 4.03623 5.47368 4.2438 5.21101 4.50831C4.94834 4.76914 4.73893 5.08141 4.59566 5.4249C4.45238 5.7684 4.37891 6.13577 4.37891 6.50866V58.0897C4.37891 58.1522 4.37891 58.211 4.38625 58.2679C4.3385 58.852 4.55341 59.449 4.99242 59.9211L7.38586 62.4964C7.45382 62.6084 7.49974 62.7352 7.51811 62.8656L7.26279 66.723C7.22238 67.3586 7.41892 67.9427 7.8212 68.3707C8.00856 68.5709 8.23633 68.7307 8.48982 68.8391C8.7433 68.9475 9.01516 69.0026 9.29069 69.0007C9.61582 68.9989 9.93727 68.9291 10.233 68.7932L13.5834 67.3016C13.701 67.2777 13.8204 67.2777 13.9398 67.3016L17.2884 68.7932C17.5088 68.8923 17.744 68.9585 17.9846 68.986C17.9736 69.6271 18.183 70.2112 18.5852 70.641C18.7873 70.856 19.0298 71.0268 19.3016 71.1425C19.5716 71.2582 19.8637 71.3152 20.1594 71.3115C20.5158 71.3097 20.8703 71.2307 21.1936 71.0837L25.6057 69.1164C25.8758 69.0393 26.1623 69.0393 26.4323 69.1164L30.8445 71.0837C31.1696 71.2307 31.5205 71.3097 31.8787 71.3115C31.9687 71.3115 32.0587 71.306 32.1487 71.295C32.2313 71.7248 32.4315 72.1216 32.7291 72.443C32.9404 72.6671 33.1957 72.8453 33.4786 72.9665C33.7614 73.0878 34.0682 73.1484 34.375 73.1447C34.757 73.1429 35.1336 73.0584 35.4826 72.8986L40.703 70.5731C40.8977 70.5051 41.1034 70.4739 41.311 70.4794C41.6251 70.4794 41.84 70.5382 41.919 70.5731L47.1375 72.9022C47.4847 73.062 47.8631 73.1447 48.2433 73.1484C48.5537 73.152 48.8587 73.0896 49.1415 72.9702C49.4244 72.849 49.6797 72.6708 49.891 72.4467C50.1849 72.1289 50.3851 71.7358 50.4696 71.3115C50.5596 71.3225 50.6514 71.3299 50.7414 71.3299C51.0996 71.3262 51.4523 71.249 51.7774 71.1003L56.1878 69.133C56.4596 69.0558 56.7443 69.0558 57.0162 69.133L61.4265 71.1003C61.7516 71.249 62.1043 71.3262 62.4625 71.3299C62.7564 71.3317 63.0466 71.2729 63.3166 71.159C63.5885 71.0433 63.831 70.8725 64.033 70.6576C64.4353 70.2278 64.6465 69.6436 64.6337 69.0026C64.8743 68.975 65.1094 68.9107 65.3298 68.8097L68.6785 67.3182C68.7354 67.3053 68.796 67.2998 68.8566 67.2998C68.9154 67.2998 68.976 67.3053 69.0348 67.3182L72.3834 68.8115C72.6792 68.9456 73.0006 69.0154 73.3257 69.0173C73.6013 69.0209 73.8731 68.9658 74.1266 68.8574C74.3801 68.7491 74.6079 68.5893 74.7971 68.3872C75.1975 67.9592 75.3977 67.3751 75.3536 66.7414L75.1001 62.884C75.1167 62.7535 75.1626 62.6286 75.2324 62.5147L77.6277 59.9395Z" fill="url(#paint0_linear_3671_3886)"/>
<path fill-rule="evenodd" clip-rule="evenodd" d="M14.5332 31.4426V32.8405H11.7926V40.559H10.0972V32.8405H7.34375V31.4426H14.5332Z" fill="#666666"/>
<path fill-rule="evenodd" clip-rule="evenodd" d="M23.8573 36.0088C23.8647 36.6425 23.7508 37.2726 23.5248 37.8622C23.3136 38.4151 22.994 38.9166 22.5844 39.3427C22.1729 39.7652 21.677 40.0959 21.1296 40.3144C19.9172 40.7828 18.5727 40.7828 17.3585 40.3144C16.8093 40.0959 16.3115 39.7634 15.8982 39.3427C15.4867 38.9184 15.1653 38.4151 14.9559 37.8622C14.5095 36.6664 14.5095 35.3494 14.9559 34.1536C15.1671 33.6025 15.4867 33.1011 15.8982 32.6786C16.3133 32.2561 16.8111 31.9236 17.3603 31.7032C18.5745 31.2366 19.9172 31.2385 21.1296 31.7069C21.677 31.9273 22.1729 32.2598 22.5862 32.6804C22.9958 33.1029 23.3154 33.6044 23.5248 34.1554C23.7526 34.7469 23.8647 35.3751 23.8573 36.0088ZM22.1196 36.0125C22.1252 35.557 22.059 35.1033 21.9213 34.6698C21.8037 34.2969 21.609 33.9515 21.35 33.6595C21.1002 33.3821 20.7916 33.1635 20.4463 33.0221C19.6729 32.73 18.817 32.73 18.0436 33.0221C17.6965 33.1635 17.3842 33.3821 17.1326 33.6595C16.8736 33.9534 16.677 34.2969 16.5558 34.6698C16.2876 35.5441 16.2876 36.4809 16.5558 37.3553C16.677 37.7281 16.8736 38.0716 17.1326 38.3637C17.3842 38.6392 17.6965 38.856 18.0436 38.9956C18.817 39.2895 19.6729 39.2895 20.4463 38.9956C20.7916 38.856 21.1002 38.6411 21.35 38.3637C21.609 38.0716 21.8037 37.7281 21.9213 37.3553C22.059 36.9218 22.127 36.468 22.1196 36.0125Z" fill="#666666"/>
<path fill-rule="evenodd" clip-rule="evenodd" d="M26.9436 37.3518V40.559H25.25V31.4426H28.2165C28.8264 31.4426 29.3554 31.5143 29.8018 31.6557C30.2463 31.799 30.6137 31.9974 30.9039 32.2564C31.1886 32.508 31.4072 32.824 31.5431 33.1785C31.6845 33.5532 31.7543 33.95 31.7507 34.3504C31.7543 34.7655 31.6809 35.1788 31.5321 35.5664C31.3851 35.9283 31.1592 36.2534 30.8671 36.5142C30.5457 36.7934 30.171 37.0028 29.765 37.1314C29.3242 37.2765 28.808 37.35 28.2147 37.35L26.9436 37.3518ZM26.9436 36.0293H28.2147C28.4902 36.0348 28.7658 35.9944 29.0284 35.9117C29.2415 35.8438 29.4362 35.7299 29.6015 35.5774C29.754 35.4286 29.8716 35.2468 29.9432 35.0466C30.0203 34.8225 30.0589 34.5855 30.0552 34.3467C30.0589 34.1226 30.0203 33.8985 29.9432 33.6873C29.8697 33.4944 29.754 33.3199 29.6015 33.1803C29.4362 33.0352 29.2397 32.9268 29.0284 32.8644C28.7639 32.7854 28.4902 32.7486 28.2147 32.7542H26.9436V36.0293Z" fill="#666666"/>
<path fill-rule="evenodd" clip-rule="evenodd" d="M37.2522 36.9992V40.559H35.5586V31.4426H38.3359C38.9586 31.4426 39.4913 31.5069 39.9358 31.6355C40.3785 31.7641 40.7404 31.9423 41.0251 32.1719C41.2988 32.3923 41.5137 32.677 41.6496 33.0021C41.8884 33.6212 41.9105 34.3045 41.7121 34.9363C41.5321 35.4837 41.1721 35.9521 40.6908 36.2681C40.4263 36.4426 40.1397 36.5785 39.8367 36.6722C40.0589 36.8008 40.2481 36.9808 40.3914 37.1939L42.6709 40.559H41.1445C41.0141 40.5627 40.8855 40.5333 40.7716 40.4708C40.6651 40.4084 40.5751 40.322 40.509 40.2173L38.5931 37.3022C38.5362 37.2049 38.4535 37.1259 38.3561 37.069C38.2367 37.0157 38.1063 36.9918 37.9741 36.9992H37.2522ZM37.2522 35.7758H38.3084C38.5931 35.7813 38.8741 35.7409 39.146 35.6564C39.3609 35.5884 39.5611 35.4764 39.732 35.3258C39.8826 35.188 40.0001 35.0153 40.0736 34.8243C40.1508 34.6222 40.1893 34.4073 40.1875 34.1906C40.1875 33.7277 40.0369 33.3713 39.732 33.1252C39.427 32.8791 38.9605 32.7523 38.3341 32.7523H37.2522V35.7758Z" fill="#666666"/>
<path fill-rule="evenodd" clip-rule="evenodd" d="M51.7615 40.5661H50.45C50.3196 40.5698 50.1928 40.5312 50.0881 40.4559C49.9963 40.3861 49.9247 40.2906 49.8824 40.1822L49.2028 38.3251H45.4299L44.7502 40.1822C44.7116 40.2869 44.6418 40.3787 44.5537 40.4467C44.449 40.5275 44.3204 40.5698 44.19 40.5661H42.8711L46.4493 31.4571H48.1833L51.7615 40.5661ZM45.8652 37.1312H48.7693L47.6598 34.1003C47.6102 33.9681 47.5551 33.8083 47.4963 33.6227C47.4375 33.4391 47.3751 33.2443 47.3163 33.0313C47.2575 33.2443 47.2006 33.4427 47.1436 33.6283C47.0867 33.8138 47.0298 33.9754 46.9747 34.1132L45.8652 37.1312Z" fill="#666666"/>
<path fill-rule="evenodd" clip-rule="evenodd" d="M58.1916 31.4426V32.8405H55.4528V40.559H53.7574V32.8405H51.0039V31.4426H58.1916Z" fill="#666666"/>
<path fill-rule="evenodd" clip-rule="evenodd" d="M65.0192 31.4553V32.8036H60.9817V35.3238H64.1613V36.6353H60.9817V39.2051H65.0192V40.5662H59.2734V31.4553H65.0192Z" fill="#666666"/>
<path fill-rule="evenodd" clip-rule="evenodd" d="M74.5742 36.0089C74.5815 36.6389 74.4676 37.2634 74.2417 37.8494C74.0305 38.3931 73.7108 38.8854 73.2975 39.295C72.8861 39.7065 72.392 40.0243 71.8483 40.2318C71.2476 40.4596 70.6084 40.5735 69.9655 40.5643H66.4883V31.4534H69.9655C70.6084 31.4461 71.2476 31.56 71.8483 31.7896C72.3938 32.0008 72.8879 32.3204 73.3031 32.7301C73.7145 33.1397 74.0341 33.6301 74.2435 34.1702C74.4695 34.7561 74.5834 35.3807 74.5742 36.0089ZM72.8402 36.0089C72.8475 35.5533 72.7796 35.0978 72.64 34.6624C72.5206 34.2914 72.324 33.9479 72.0668 33.654C71.817 33.3785 71.5084 33.1636 71.1631 33.0221C70.781 32.8715 70.3733 32.798 69.9618 32.8035H68.1911V39.216H69.9618C70.3733 39.2234 70.781 39.1499 71.1631 38.9974C71.5084 38.8578 71.817 38.6411 72.0668 38.3637C72.3258 38.0717 72.5206 37.7282 72.64 37.3571C72.7814 36.9218 72.8475 36.4662 72.8402 36.0089Z" fill="#666666"/>
<path fill-rule="evenodd" clip-rule="evenodd" d="M48.6098 64.644C48.5602 63.8908 48.9386 62.8236 49.4529 62.2726L53.1817 58.2627C53.696 57.7098 53.5215 57.0944 52.7941 56.8924L47.0025 55.287C46.2769 55.0849 45.3732 54.3869 44.9966 53.7348L42.0558 48.6577C41.6774 48.0056 41.0602 48.0056 40.6837 48.6577L37.7428 53.7348C37.3663 54.3869 36.4625 55.0849 35.7351 55.287L29.9435 56.8924C29.2179 57.0944 29.0434 57.7116 29.5559 58.2627L33.2848 62.2726C33.7991 62.8236 34.1775 63.8908 34.1279 64.644L33.7348 70.6468C33.6852 71.3981 34.2069 71.7637 34.8957 71.4569L40.1179 69.1333C40.8067 68.8247 41.9327 68.8247 42.6216 69.1333L47.8419 71.4587C48.5308 71.7655 49.0543 71.4 49.0047 70.6487L48.6098 64.644Z" fill="#666666"/>
<path fill-rule="evenodd" clip-rule="evenodd" d="M18.0904 62.9575L14.9401 59.5703C14.3487 58.9329 14.1319 58.1339 14.3468 57.3734C14.5617 56.6129 15.1661 56.0435 16.0037 55.8121L16.0753 55.7918L14.2642 52.6581C14.0199 52.2375 13.6213 52.2375 13.3788 52.6581L11.4832 55.9296C11.2407 56.3503 10.6584 56.8003 10.19 56.9307L6.45932 57.9649C5.99092 58.0953 5.87887 58.492 6.2095 58.8466L8.61396 61.4329C8.9446 61.7874 9.1889 62.4744 9.15768 62.9611L8.90235 66.8296C8.87112 67.3145 9.20727 67.5496 9.65179 67.3531L13.0151 65.8542C13.4578 65.6558 14.1852 65.6558 14.626 65.8542L17.9912 67.3531C18.0408 67.3751 18.0922 67.3917 18.1455 67.4045L18.3824 63.7767C18.3953 63.5802 18.2263 63.1026 18.0904 62.9575Z" fill="#666666"/>
<path fill-rule="evenodd" clip-rule="evenodd" d="M76.2793 57.9797L72.5486 56.9474C72.0802 56.817 71.4979 56.3669 71.2554 55.9463L69.3598 52.6748C69.1173 52.2542 68.7187 52.2542 68.4744 52.6748L66.6633 55.8067L66.7367 55.8269C67.5744 56.0602 68.1768 56.6278 68.3918 57.3882C68.6067 58.1487 68.3918 58.9496 67.7985 59.5851L64.6482 62.9723C64.5123 63.1193 64.3433 63.5969 64.3562 63.7952L64.5931 67.4175C64.6464 67.4065 64.6978 67.3882 64.7474 67.3661L68.1107 65.8672C68.5552 65.6688 69.2808 65.6688 69.7253 65.8672L73.0886 67.3661C73.5313 67.5645 73.8693 67.3294 73.8381 66.8444L73.5827 62.976C73.5515 62.4911 73.7958 61.8041 74.1265 61.4459L76.5291 58.8614C76.8597 58.5069 76.7477 58.1101 76.2793 57.9797Z" fill="#666666"/>
<path fill-rule="evenodd" clip-rule="evenodd" d="M32.1957 63.8815C32.1884 63.7401 32.1939 63.5986 32.2159 63.459C32.1902 63.4205 32.1608 63.3837 32.1296 63.3488L28.4026 59.3389C27.7707 58.663 27.5411 57.8162 27.767 57.0153C27.993 56.2163 28.634 55.6156 29.5231 55.3695L29.7049 55.3199C29.4845 55.1325 29.2953 54.9103 29.1428 54.6641L26.6594 50.3732C26.3398 49.824 25.8181 49.824 25.4985 50.3732L23.015 54.6641C22.6973 55.2152 21.9331 55.8048 21.3215 55.9756L16.428 57.3312C15.8145 57.5021 15.6676 58.0237 16.0992 58.4885L19.2513 61.8775C19.6848 62.3441 20.0063 63.2423 19.9622 63.8797L19.6279 68.9531C19.5856 69.5887 20.0265 69.8954 20.6106 69.6364L25.0227 67.6691C25.6032 67.4101 26.5565 67.4101 27.137 67.6691L31.5473 69.6364C31.81 69.754 32.0433 69.754 32.2178 69.664L32.3978 66.9326L32.1957 63.8815Z" fill="#666666"/>
<path fill-rule="evenodd" clip-rule="evenodd" d="M66.3137 57.3497L61.4203 55.9923C60.8068 55.8214 60.0445 55.2318 59.7267 54.6807L57.2414 50.3916C56.9218 49.8388 56.4001 49.8388 56.0805 50.3916L53.5989 54.6807C53.452 54.9214 53.2664 55.1381 53.0515 55.3236L53.2205 55.3696C54.1114 55.6157 54.7488 56.2164 54.9766 57.0154C55.2043 57.8144 54.9711 58.6612 54.3428 59.339L50.614 63.3489C50.5809 63.3838 50.5534 63.4224 50.5277 63.4628C50.5497 63.6061 50.5571 63.753 50.5479 63.9L50.3477 66.9437L50.5277 69.6824C50.7022 69.7743 50.9355 69.7724 51.1963 69.6567L55.6066 67.6894C56.1889 67.4304 57.1404 67.4304 57.7227 67.6894L62.133 69.6567C62.7153 69.9157 63.1561 69.6071 63.1176 68.9716L62.7777 63.8981C62.7373 63.2626 63.0569 62.3607 63.4886 61.8941L66.6388 58.5069C67.0742 58.0404 66.9272 57.5187 66.3137 57.3497Z" fill="#666666"/>
<path fill-rule="evenodd" clip-rule="evenodd" d="M16.3779 20.4804L13.9257 18.1255H10.7644C10.6322 18.1255 10.5017 18.0998 10.3787 18.0502C10.2574 17.9987 10.1472 17.9253 10.0535 17.8316C9.95987 17.7379 9.88456 17.6277 9.83496 17.5065C9.78353 17.3834 9.75781 17.253 9.75781 17.1207V14.595L12.5535 11.7993L16.0583 15.3077H18.4866V17.3632C18.4866 17.5652 18.4058 17.7581 18.2643 17.9014C18.1211 18.0447 17.9282 18.1237 17.7261 18.1237H16.4275L16.3779 20.4804Z" fill="#666666"/>
<path fill-rule="evenodd" clip-rule="evenodd" d="M8.93101 14.5345H7.625L11.9729 10.1848H16.4144L20.7402 14.5106H16.3226L12.6378 10.8277L8.93101 14.5345Z" fill="#666666"/>
<path fill-rule="evenodd" clip-rule="evenodd" d="M21.8398 11.3182H23.5665V13.8825H26.0132V11.3182H27.6499V18.1991H26.0132V15.2252H23.5665V18.1991H21.8398V11.3182Z" fill="#666666"/>
<path fill-rule="evenodd" clip-rule="evenodd" d="M30.8919 16.9076C31.691 16.9076 32.1704 16.3749 32.1704 15.5961C32.1704 14.8191 31.691 14.2864 30.8919 14.2864C30.0929 14.2864 29.6135 14.8191 29.6135 15.5961C29.6135 16.3749 30.0929 16.9076 30.8919 16.9076ZM30.8919 12.8794C32.49 12.8794 33.7721 13.9448 33.7721 15.5961C33.7721 17.2475 32.4918 18.3128 30.8919 18.3128C29.292 18.3128 28.0117 17.2475 28.0117 15.5961C28.0117 13.9448 29.2939 12.8794 30.8919 12.8794Z" fill="#666666"/>
<path fill-rule="evenodd" clip-rule="evenodd" d="M33.9688 13.1495H35.4217V13.8364H35.4419C35.644 13.4415 36.1381 13.0264 36.8747 13.0264C37.5617 13.0264 38.1237 13.3166 38.3901 13.9301C38.7446 13.2854 39.2167 13.0264 39.9459 13.0264C41.2776 13.0264 41.6854 13.9926 41.6854 15.2178V18.199H40.1663V15.26C40.1663 14.7934 39.9973 14.3985 39.5014 14.3985C38.8052 14.3985 38.5811 14.9092 38.5811 15.5319V18.2008H37.0675V15.5282C37.0675 15.1553 37.0878 14.3967 36.3897 14.3967C35.6036 14.3967 35.4805 15.0304 35.4805 15.6843V18.199H33.9688V13.1495Z" fill="#666666"/>
<path fill-rule="evenodd" clip-rule="evenodd" d="M45.7717 15.0984C45.7753 14.9716 45.7515 14.8467 45.7055 14.7292C45.6578 14.6134 45.588 14.5069 45.4998 14.4169C45.4098 14.3287 45.3033 14.2589 45.1875 14.2112C45.07 14.1652 44.9451 14.1414 44.8183 14.145C44.1332 14.145 43.7603 14.6116 43.7199 15.0984H45.7717ZM47.0887 17.3173C46.5909 17.951 45.7717 18.3129 44.9634 18.3129C43.4076 18.3129 42.1641 17.2769 42.1641 15.6696C42.1641 14.0605 43.4076 13.0264 44.9634 13.0264C46.4146 13.0264 47.3275 14.0624 47.3275 15.6696V16.1582H43.7199C43.843 16.7497 44.2893 17.1318 44.89 17.1318C45.3988 17.1318 45.7404 16.8746 45.9994 16.5219L47.0887 17.3173Z" fill="#666666"/>
<path fill-rule="evenodd" clip-rule="evenodd" d="M50.3311 12.165L48.9755 15.791H51.6445L50.3311 12.165ZM50.0758 11.4909H50.6342L53.0809 18.1091H52.4729L51.841 16.353H48.7624L48.1067 18.1073H47.5391L50.0758 11.4909Z" fill="#666666"/>
<path fill-rule="evenodd" clip-rule="evenodd" d="M56.8581 16.0591C56.8599 15.8332 56.814 15.6109 56.7258 15.4034C56.6395 15.2031 56.5164 15.0231 56.3603 14.8707C56.2042 14.7182 56.0186 14.5951 55.8166 14.5106C55.6035 14.4206 55.3739 14.3747 55.1425 14.3766C54.9092 14.3729 54.6777 14.4188 54.4647 14.5106C54.2699 14.5951 54.0936 14.7164 53.9485 14.8707C53.8034 15.0231 53.6932 15.205 53.6215 15.4034C53.4746 15.8277 53.4746 16.2887 53.6215 16.713C53.6932 16.9114 53.8034 17.0933 53.9485 17.2457C54.0936 17.4 54.2699 17.5231 54.4647 17.6076C54.6777 17.6976 54.9092 17.7435 55.1425 17.7399C55.3739 17.7417 55.6035 17.6976 55.8166 17.6076C56.0186 17.5213 56.2042 17.3982 56.3603 17.2457C56.5164 17.0933 56.6395 16.9133 56.7258 16.713C56.814 16.5055 56.8599 16.2832 56.8581 16.0591ZM56.803 17.3927H56.7865C56.7038 17.5323 56.5991 17.6572 56.4742 17.7601C56.3511 17.8629 56.2152 17.9511 56.0701 18.0191C55.9231 18.087 55.7707 18.1385 55.6109 18.1715C55.4566 18.2027 55.2986 18.2193 55.1406 18.2193C54.8431 18.2211 54.5473 18.166 54.2718 18.0558C54.0146 17.9566 53.7795 17.8041 53.5848 17.6076C53.3919 17.4111 53.2413 17.1778 53.1403 16.9225C52.9272 16.364 52.9272 15.7469 53.1403 15.1884C53.2413 14.9331 53.3919 14.6998 53.5848 14.5033C53.7795 14.3068 54.0128 14.1543 54.2718 14.0533C54.5473 13.9431 54.8431 13.8879 55.1406 13.8898C55.2986 13.8916 55.4566 13.9082 55.6109 13.9394C55.7707 13.9724 55.9231 14.022 56.0701 14.09C56.2152 14.1598 56.3511 14.2461 56.4742 14.349C56.5973 14.4537 56.7038 14.5786 56.7846 14.7182H56.803V11.388H57.3375V18.1127H56.803V17.3927Z" fill="#666666"/>
<path fill-rule="evenodd" clip-rule="evenodd" d="M57.8359 13.3754H58.5339L60.1118 17.4423L61.6474 13.3754H62.272L60.4094 18.1072H59.772L57.8359 13.3754Z" fill="#666666"/>
<path fill-rule="evenodd" clip-rule="evenodd" d="M62.5588 11.8268C62.5606 11.7056 62.6047 11.5899 62.68 11.498C62.759 11.4062 62.8655 11.3437 62.9831 11.3217C63.1006 11.2996 63.2237 11.3198 63.3284 11.3768C63.4331 11.4337 63.5176 11.5274 63.5617 11.6376C63.6058 11.7497 63.6113 11.8727 63.5764 11.9885C63.5415 12.1024 63.4662 12.2015 63.367 12.2677C63.266 12.3338 63.1466 12.3632 63.0253 12.3503C62.9078 12.3393 62.7957 12.286 62.7112 12.2015C62.6598 12.1519 62.6212 12.0932 62.5955 12.0289C62.5698 11.9646 62.5569 11.8966 62.5588 11.8268Z" fill="#666666"/>
<path fill-rule="evenodd" clip-rule="evenodd" d="M62.7227 13.3754H63.4262V18.1072H62.7227V13.3754Z" fill="#666666"/>
<path fill-rule="evenodd" clip-rule="evenodd" d="M64.4189 16.8949C64.5439 17.1428 64.7441 17.3431 64.9902 17.4698C65.2345 17.6021 65.5082 17.67 65.7856 17.6682C65.916 17.67 66.0482 17.648 66.1713 17.6076C66.2962 17.5708 66.4138 17.5121 66.5185 17.4349C66.6195 17.3614 66.704 17.2678 66.7683 17.1631C66.8344 17.0528 66.8675 16.9279 66.8657 16.8012C66.8657 16.5844 66.7959 16.421 66.6563 16.3126C66.502 16.1969 66.3275 16.1105 66.1438 16.0573C65.9215 15.993 65.6956 15.9397 65.4696 15.9011C65.2382 15.8607 65.0123 15.7909 64.7955 15.6954C64.599 15.6091 64.4226 15.4786 64.2812 15.3152C64.1434 15.1517 64.0736 14.9221 64.0736 14.6208C64.0681 14.4114 64.1177 14.2039 64.2151 14.0202C64.3069 13.853 64.4336 13.7097 64.5861 13.5977C64.7422 13.4838 64.9167 13.3993 65.1023 13.346C65.2915 13.2928 65.4862 13.2671 65.6827 13.2671C66.0703 13.2671 66.4046 13.3387 66.6875 13.4801C66.974 13.6271 67.2055 13.864 67.3451 14.1524L66.794 14.4794C66.6948 14.2792 66.5442 14.1102 66.3587 13.9853C66.186 13.8732 65.9619 13.8163 65.6827 13.8163C65.567 13.8181 65.4513 13.8347 65.3411 13.8677C65.2272 13.8989 65.1188 13.9467 65.0196 14.011C64.9241 14.0716 64.8433 14.1506 64.7808 14.2443C64.7147 14.3416 64.6816 14.4537 64.6816 14.5712C64.6816 14.7806 64.7514 14.9368 64.891 15.0396C65.0472 15.1498 65.2235 15.2307 65.4072 15.2784C65.6276 15.3409 65.8535 15.3905 66.0795 15.4254C66.3128 15.464 66.5387 15.5319 66.7536 15.6256C66.9538 15.7156 67.1302 15.8515 67.2679 16.0242C67.4075 16.1969 67.4773 16.443 67.4773 16.7626C67.4828 16.983 67.4351 17.2016 67.3377 17.4C67.2496 17.5764 67.121 17.7325 66.9612 17.8537C66.7977 17.9768 66.614 18.0705 66.4175 18.1274C66.2099 18.1899 65.9931 18.2211 65.7764 18.2211C65.3906 18.2248 65.0104 18.1458 64.6596 17.986C64.3289 17.8335 64.0552 17.58 63.8789 17.2622L64.4189 16.8949Z" fill="#666666"/>
<path fill-rule="evenodd" clip-rule="evenodd" d="M68.2987 15.7966C68.2969 16.0464 68.3373 16.2944 68.4163 16.5295C68.4897 16.7499 68.6036 16.952 68.7561 17.1283C68.914 17.3047 69.1069 17.4461 69.3218 17.5435C69.5386 17.639 69.7719 17.6904 70.0088 17.6904C70.2458 17.6904 70.4791 17.639 70.6958 17.5435C70.9126 17.4461 71.1054 17.3047 71.2634 17.1283C71.414 16.9538 71.5316 16.7499 71.6032 16.5295C71.7594 16.0538 71.7594 15.5394 71.6032 15.0637C71.5297 14.8433 71.414 14.6394 71.2634 14.4649C71.1036 14.2904 70.9107 14.1489 70.6958 14.0534C70.4791 13.9561 70.2458 13.9065 70.0088 13.9065C69.7737 13.9065 69.5386 13.9561 69.3237 14.0534C69.1069 14.1489 68.914 14.2904 68.7561 14.4649C68.6054 14.6412 68.4897 14.8433 68.4163 15.0637C68.3373 15.2988 68.2969 15.5486 68.2987 15.7966ZM67.7384 15.7966C67.7348 15.466 67.7917 15.1372 67.9074 14.8267C68.0121 14.542 68.1701 14.2812 68.3722 14.0571C68.5761 13.8403 68.8204 13.6695 69.0941 13.5556C69.3824 13.4344 69.6947 13.3738 70.0088 13.3756C70.3211 13.3719 70.6315 13.4325 70.9199 13.5556C71.1936 13.6713 71.4379 13.8422 71.64 14.0571C71.8457 14.2812 72.0055 14.542 72.112 14.8267C72.3361 15.4549 72.3361 16.1419 72.112 16.7701C72.0073 17.0548 71.8457 17.3157 71.64 17.5379C71.4379 17.7529 71.1936 17.9255 70.9199 18.0412C70.6315 18.1625 70.3211 18.2249 70.0088 18.2213C69.6947 18.2249 69.3824 18.1625 69.0941 18.0412C68.8204 17.9274 68.5742 17.7547 68.3722 17.5379C68.1701 17.3138 68.0103 17.053 67.9074 16.7701C67.7917 16.4597 67.7348 16.1291 67.7384 15.7966Z" fill="#666666"/>
<path fill-rule="evenodd" clip-rule="evenodd" d="M72.7467 14.7604C72.7467 14.6722 72.7431 14.5675 72.7357 14.4426C72.7284 14.3177 72.7247 14.1928 72.721 14.0642C72.7155 13.9374 72.7118 13.818 72.7045 13.7078C72.699 13.5958 72.6953 13.5113 72.6953 13.4507H73.329C73.3345 13.6252 73.3419 13.7923 73.3437 13.954C73.3437 14.0587 73.3511 14.1634 73.3713 14.2681C73.5256 13.9981 73.7387 13.7685 73.994 13.5921C74.2493 13.4158 74.5597 13.3276 74.9271 13.3276C74.9877 13.3294 75.0502 13.3331 75.1108 13.3441C75.1696 13.3533 75.232 13.3662 75.2963 13.379L75.2228 13.976C75.1439 13.9503 75.0612 13.9374 74.9785 13.9356C74.7342 13.9301 74.4918 13.9723 74.2658 14.0605C74.0748 14.1377 73.904 14.2571 73.768 14.4114C73.6358 14.562 73.5366 14.7383 73.476 14.9294C73.4117 15.1369 73.3805 15.3518 73.3805 15.5686V18.109H72.7467V14.7604Z" fill="#666666"/>
<defs>
<linearGradient id="paint0_linear_3671_3886" x1="4.37891" y1="3.68172" x2="92.0015" y2="48.0692" gradientUnits="userSpaceOnUse">
<stop stop-color="#C4CBCD"/>
<stop offset="0.263542" stop-color="white"/>
<stop offset="0.523958" stop-color="#CACED0"/>
<stop offset="0.763542" stop-color="white"/>
<stop offset="1" stop-color="#C4CBCD"/>
</linearGradient>
</defs>
</svg>
