<svg width="81" height="94" viewBox="0 0 81 94" fill="none" xmlns="http://www.w3.org/2000/svg">
<path fill-rule="evenodd" clip-rule="evenodd" d="M36.9723 92.206L3.67904 77.1547C2.80285 76.7579 1.95789 75.9773 1.32968 75.0019C0.699637 74.0265 0.335938 72.9354 0.335938 71.9729V4.36698C0.337774 3.47426 0.694127 2.62012 1.32601 1.98823C1.95605 1.35819 2.8102 1.00184 3.70292 1H77.2272C78.1199 1.00184 78.9741 1.35819 79.606 1.98823C80.236 2.62012 80.5924 3.47426 80.5942 4.36514C80.5942 4.36698 80.5942 4.36698 80.5942 4.36698V71.9729C80.5942 72.9336 80.2305 74.0247 79.6023 75C78.9722 75.9754 78.1273 76.7579 77.2511 77.1547L43.956 92.206C43.0413 92.6193 41.7757 92.847 40.4641 92.847C39.1508 92.847 37.887 92.6193 36.9723 92.206Z" fill="#666666" stroke="#E7E7E7" stroke-width="0.5292"/>
<path fill-rule="evenodd" clip-rule="evenodd" d="M77.3175 55.9245V6.50866C77.3175 6.13761 77.244 5.7684 77.1007 5.4249C76.9593 5.08325 76.7499 4.77098 76.4872 4.50831C76.2227 4.24564 75.9104 4.03807 75.5669 3.89663C75.2253 3.75335 74.8561 3.68172 74.4832 3.68172H6.29315C5.92211 3.68172 5.5529 3.75335 5.2094 3.89479C4.86591 4.03623 4.5518 4.2438 4.28913 4.50831C4.02646 4.76914 3.81706 5.08141 3.67378 5.4249C3.53051 5.7684 3.45703 6.13577 3.45703 6.50866V55.9245H77.3175Z" fill="url(#paint0_linear_3671_3917)"/>
<path fill-rule="evenodd" clip-rule="evenodd" d="M15.3349 20.4804L12.8827 18.1255H9.72145C9.58919 18.1255 9.45878 18.0998 9.3357 18.0502C9.21447 17.9987 9.10426 17.9253 9.01058 17.8316C8.9169 17.7379 8.84159 17.6277 8.79199 17.5065C8.74056 17.3834 8.71484 17.253 8.71484 17.1207V14.595L11.5106 11.7993L15.0153 15.3077H17.4436V17.3632C17.4436 17.5652 17.3628 17.7581 17.2214 17.9014C17.0781 18.0447 16.8852 18.1237 16.6832 18.1237H15.3845L15.3349 20.4804Z" fill="#666666"/>
<path fill-rule="evenodd" clip-rule="evenodd" d="M7.88804 14.5345H6.58203L10.9299 10.1848H15.3714L19.6973 14.5106H15.2796L11.5948 10.8277L7.88804 14.5345Z" fill="#666666"/>
<path fill-rule="evenodd" clip-rule="evenodd" d="M20.7969 11.318H22.5235V13.8822H24.9702V11.318H26.6069V18.1989H24.9702V15.225H22.5235V18.1989H20.7969V11.318Z" fill="#666666"/>
<path fill-rule="evenodd" clip-rule="evenodd" d="M29.849 16.9079C30.648 16.9079 31.1274 16.3752 31.1274 15.5964C31.1274 14.8194 30.648 14.2867 29.849 14.2867C29.0499 14.2867 28.5705 14.8194 28.5705 15.5964C28.5705 16.3752 29.0499 16.9079 29.849 16.9079ZM29.849 12.8796C31.447 12.8796 32.7292 13.945 32.7292 15.5964C32.7292 17.2477 31.4489 18.3131 29.849 18.3131C28.249 18.3131 26.9688 17.2477 26.9688 15.5964C26.9688 13.945 28.2509 12.8796 29.849 12.8796Z" fill="#666666"/>
<path fill-rule="evenodd" clip-rule="evenodd" d="M32.9258 13.1495H34.3787V13.8364H34.3989C34.601 13.4415 35.0951 13.0264 35.8317 13.0264C36.5187 13.0264 37.0808 13.3166 37.3471 13.9301C37.7016 13.2854 38.1737 13.0264 38.9029 13.0264C40.2347 13.0264 40.6425 13.9926 40.6425 15.2178V18.199H39.1234V15.26C39.1234 14.7934 38.9544 14.3985 38.4584 14.3985C37.7623 14.3985 37.5382 14.9092 37.5382 15.5319V18.2008H36.0246V15.5282C36.0246 15.1553 36.0448 14.3967 35.3468 14.3967C34.5606 14.3967 34.4375 15.0304 34.4375 15.6843V18.199H32.9258V13.1495Z" fill="#666666"/>
<path fill-rule="evenodd" clip-rule="evenodd" d="M44.7287 15.0984C44.7324 14.9716 44.7085 14.8467 44.6626 14.7292C44.6148 14.6134 44.545 14.5069 44.4568 14.4169C44.3668 14.3287 44.2603 14.2589 44.1446 14.2112C44.027 14.1652 43.9021 14.1414 43.7754 14.145C43.0902 14.145 42.7173 14.6116 42.6769 15.0984H44.7287ZM46.0457 17.3173C45.5479 17.951 44.7287 18.3129 43.9205 18.3129C42.3647 18.3129 41.1211 17.2769 41.1211 15.6696C41.1211 14.0605 42.3647 13.0264 43.9205 13.0264C45.3716 13.0264 46.2845 14.0624 46.2845 15.6696V16.1582H42.6769C42.8 16.7497 43.2463 17.1318 43.847 17.1318C44.3558 17.1318 44.6975 16.8746 44.9565 16.5219L46.0457 17.3173Z" fill="#666666"/>
<path fill-rule="evenodd" clip-rule="evenodd" d="M49.2881 12.165L47.9325 15.791H50.6015L49.2881 12.165ZM49.0328 11.4909H49.5912L52.0379 18.1091H51.4299L50.798 16.353H47.7194L47.0637 18.1073H46.4961L49.0328 11.4909Z" fill="#666666"/>
<path fill-rule="evenodd" clip-rule="evenodd" d="M55.8151 16.0594C55.817 15.8334 55.771 15.6112 55.6829 15.4036C55.5965 15.2034 55.4735 15.0234 55.3173 14.8709C55.1612 14.7185 54.9757 14.5954 54.7736 14.5109C54.5605 14.4209 54.3309 14.375 54.0995 14.3768C53.8662 14.3731 53.6348 14.419 53.4217 14.5109C53.227 14.5954 53.0506 14.7166 52.9055 14.8709C52.7604 15.0234 52.6502 15.2052 52.5786 15.4036C52.4316 15.8279 52.4316 16.289 52.5786 16.7133C52.6502 16.9117 52.7604 17.0935 52.9055 17.246C53.0506 17.4003 53.227 17.5234 53.4217 17.6078C53.6348 17.6979 53.8662 17.7438 54.0995 17.7401C54.3309 17.7419 54.5605 17.6979 54.7736 17.6078C54.9757 17.5215 55.1612 17.3984 55.3173 17.246C55.4735 17.0935 55.5965 16.9135 55.6829 16.7133C55.771 16.5057 55.817 16.2835 55.8151 16.0594ZM55.76 17.3929H55.7435C55.6608 17.5325 55.5561 17.6574 55.4312 17.7603C55.3082 17.8632 55.1722 17.9513 55.0271 18.0193C54.8802 18.0873 54.7277 18.1387 54.5679 18.1718C54.4136 18.203 54.2556 18.2195 54.0977 18.2195C53.8001 18.2214 53.5043 18.1663 53.2288 18.056C52.9717 17.9569 52.7365 17.8044 52.5418 17.6078C52.349 17.4113 52.1983 17.178 52.0973 16.9227C51.8842 16.3643 51.8842 15.7471 52.0973 15.1887C52.1983 14.9334 52.349 14.7001 52.5418 14.5035C52.7365 14.307 52.9698 14.1545 53.2288 14.0535C53.5043 13.9433 53.8001 13.8882 54.0977 13.89C54.2556 13.8919 54.4136 13.9084 54.5679 13.9396C54.7277 13.9727 54.8802 14.0223 55.0271 14.0902C55.1722 14.16 55.3082 14.2464 55.4312 14.3492C55.5543 14.4539 55.6608 14.5789 55.7417 14.7185H55.76V11.3882H56.2945V18.113H55.76V17.3929Z" fill="#666666"/>
<path fill-rule="evenodd" clip-rule="evenodd" d="M56.793 13.3754H57.491L59.0688 17.4423L60.6045 13.3754H61.229L59.3664 18.1072H58.729L56.793 13.3754Z" fill="#666666"/>
<path fill-rule="evenodd" clip-rule="evenodd" d="M61.5158 11.8268C61.5176 11.7056 61.5617 11.5899 61.637 11.498C61.716 11.4062 61.8226 11.3437 61.9401 11.3217C62.0577 11.2996 62.1807 11.3198 62.2854 11.3768C62.3901 11.4337 62.4746 11.5274 62.5187 11.6376C62.5628 11.7497 62.5683 11.8727 62.5334 11.9885C62.4985 12.1024 62.4232 12.2015 62.324 12.2677C62.223 12.3338 62.1036 12.3632 61.9824 12.3503C61.8648 12.3393 61.7528 12.286 61.6683 12.2015C61.6168 12.1519 61.5783 12.0932 61.5525 12.0289C61.5268 11.9646 61.514 11.8966 61.5158 11.8268Z" fill="#666666"/>
<path fill-rule="evenodd" clip-rule="evenodd" d="M61.6797 13.3754H62.3832V18.1072H61.6797V13.3754Z" fill="#666666"/>
<path fill-rule="evenodd" clip-rule="evenodd" d="M63.376 16.8949C63.5009 17.1428 63.7011 17.3431 63.9472 17.4698C64.1915 17.6021 64.4652 17.67 64.7426 17.6682C64.873 17.67 65.0053 17.648 65.1283 17.6076C65.2533 17.5708 65.3708 17.5121 65.4755 17.4349C65.5765 17.3614 65.661 17.2678 65.7253 17.1631C65.7915 17.0528 65.8245 16.9279 65.8227 16.8012C65.8227 16.5844 65.7529 16.421 65.6133 16.3126C65.459 16.1969 65.2845 16.1105 65.1008 16.0573C64.8785 15.993 64.6526 15.9397 64.4267 15.9011C64.1952 15.8607 63.9693 15.7909 63.7525 15.6954C63.556 15.6091 63.3797 15.4786 63.2382 15.3152C63.1004 15.1517 63.0306 14.9221 63.0306 14.6208C63.0251 14.4114 63.0747 14.2039 63.1721 14.0202C63.2639 13.853 63.3907 13.7097 63.5431 13.5977C63.6993 13.4838 63.8738 13.3993 64.0593 13.346C64.2485 13.2928 64.4432 13.2671 64.6397 13.2671C65.0273 13.2671 65.3616 13.3387 65.6445 13.4801C65.9311 13.6271 66.1625 13.864 66.3021 14.1524L65.751 14.4794C65.6519 14.2792 65.5012 14.1102 65.3157 13.9853C65.143 13.8732 64.9189 13.8163 64.6397 13.8163C64.524 13.8181 64.4083 13.8347 64.2981 13.8677C64.1842 13.8989 64.0758 13.9467 63.9766 14.011C63.8811 14.0716 63.8003 14.1506 63.7378 14.2443C63.6717 14.3416 63.6386 14.4537 63.6386 14.5712C63.6386 14.7806 63.7084 14.9368 63.8481 15.0396C64.0042 15.1498 64.1805 15.2307 64.3642 15.2784C64.5846 15.3409 64.8106 15.3905 65.0365 15.4254C65.2698 15.464 65.4957 15.5319 65.7106 15.6256C65.9109 15.7156 66.0872 15.8515 66.225 16.0242C66.3646 16.1969 66.4344 16.443 66.4344 16.7626C66.4399 16.983 66.3921 17.2016 66.2948 17.4C66.2066 17.5764 66.078 17.7325 65.9182 17.8537C65.7547 17.9768 65.571 18.0705 65.3745 18.1274C65.1669 18.1899 64.9502 18.2211 64.7334 18.2211C64.3477 18.2248 63.9674 18.1458 63.6166 17.986C63.286 17.8335 63.0123 17.58 62.8359 17.2622L63.376 16.8949Z" fill="#666666"/>
<path fill-rule="evenodd" clip-rule="evenodd" d="M67.2518 15.7966C67.25 16.0464 67.2904 16.2944 67.3694 16.5295C67.4429 16.7499 67.5567 16.952 67.7092 17.1283C67.8672 17.3047 68.06 17.4461 68.275 17.5435C68.4917 17.639 68.725 17.6904 68.9619 17.6904C69.1989 17.6904 69.4322 17.639 69.6489 17.5435C69.8657 17.4461 70.0586 17.3047 70.2165 17.1283C70.3671 16.9538 70.4847 16.7499 70.5563 16.5295C70.7125 16.0538 70.7125 15.5394 70.5563 15.0637C70.4829 14.8433 70.3671 14.6394 70.2165 14.4649C70.0567 14.2904 69.8638 14.1489 69.6489 14.0534C69.4322 13.9561 69.1989 13.9065 68.9619 13.9065C68.7268 13.9065 68.4917 13.9561 68.2768 14.0534C68.06 14.1489 67.8672 14.2904 67.7092 14.4649C67.5586 14.6412 67.4429 14.8433 67.3694 15.0637C67.2904 15.2988 67.25 15.5486 67.2518 15.7966ZM66.6916 15.7966C66.6879 15.466 66.7448 15.1372 66.8606 14.8267C66.9653 14.542 67.1232 14.2812 67.3253 14.0571C67.5292 13.8403 67.7735 13.6695 68.0472 13.5556C68.3356 13.4344 68.6478 13.3738 68.9619 13.3756C69.2742 13.3719 69.5846 13.4325 69.873 13.5556C70.1467 13.6713 70.391 13.8422 70.5931 14.0571C70.7988 14.2812 70.9586 14.542 71.0652 14.8267C71.2893 15.4549 71.2893 16.1419 71.0652 16.7701C70.9605 17.0548 70.7988 17.3157 70.5931 17.5379C70.391 17.7529 70.1467 17.9255 69.873 18.0412C69.5846 18.1625 69.2742 18.2249 68.9619 18.2213C68.6478 18.2249 68.3356 18.1625 68.0472 18.0412C67.7735 17.9274 67.5273 17.7547 67.3253 17.5379C67.1232 17.3138 66.9634 17.053 66.8606 16.7701C66.7448 16.4597 66.6879 16.1291 66.6916 15.7966Z" fill="#666666"/>
<path fill-rule="evenodd" clip-rule="evenodd" d="M71.7038 14.7604C71.7038 14.6722 71.7001 14.5675 71.6928 14.4426C71.6854 14.3177 71.6817 14.1928 71.6781 14.0642C71.6725 13.9374 71.6689 13.818 71.6615 13.7078C71.656 13.5958 71.6523 13.5113 71.6523 13.4507H72.2861C72.2916 13.6252 72.2989 13.7923 72.3008 13.954C72.3008 14.0587 72.3081 14.1634 72.3283 14.2681C72.4826 13.9981 72.6957 13.7685 72.951 13.5921C73.2063 13.4158 73.5168 13.3276 73.8841 13.3276C73.9448 13.3294 74.0072 13.3331 74.0678 13.3441C74.1266 13.3533 74.1891 13.3662 74.2533 13.379L74.1799 13.976C74.1009 13.9503 74.0182 13.9374 73.9356 13.9356C73.6913 13.9301 73.4488 13.9723 73.2229 14.0605C73.0318 14.1377 72.861 14.2571 72.7251 14.4114C72.5928 14.562 72.4936 14.7383 72.433 14.9294C72.3687 15.1369 72.3375 15.3518 72.3375 15.5686V18.109H71.7038V14.7604Z" fill="#666666"/>
<path fill-rule="evenodd" clip-rule="evenodd" d="M59.6831 79.7138L59.8282 81.9254C59.8925 82.9118 58.9704 83.5529 58.0685 83.1506L56.1508 82.2965C56.1067 82.2854 56.0149 82.2854 55.9708 82.2965L54.0513 83.1506C53.1494 83.5529 52.2273 82.91 52.2934 81.9254L52.4385 79.7157C52.4348 79.6661 52.3981 79.5669 52.3705 79.5265L50.9984 78.0515C50.3261 77.3277 50.631 76.2532 51.5825 75.9887L53.717 75.3972C53.7702 75.3752 53.8713 75.298 53.9043 75.2521L54.9881 73.3803C55.4914 72.5115 56.6284 72.5115 57.1335 73.3803L58.2173 75.2521C58.2504 75.298 58.3514 75.3752 58.4028 75.3972L60.5391 75.9887C61.4906 76.2532 61.7937 77.3277 61.1214 78.0515L59.7492 79.5265C59.7217 79.5669 59.6868 79.6661 59.6831 79.7138Z" fill="#666666"/>
<path fill-rule="evenodd" clip-rule="evenodd" d="M58.7382 79.7674C58.718 79.4882 58.8576 79.0951 59.0486 78.8893L60.4281 77.407C60.6173 77.2031 60.553 76.9753 60.2848 76.9L58.1431 76.3067C57.8749 76.2332 57.5406 75.9742 57.401 75.7336L56.3135 73.8563C56.1739 73.6139 55.9462 73.6139 55.8066 73.8563L54.7191 75.7336C54.5795 75.9742 54.2452 76.2332 53.977 76.3067L51.8353 76.9C51.5652 76.9753 51.5009 77.2031 51.692 77.407L53.0696 78.8893C53.2607 79.0951 53.4003 79.4882 53.3819 79.7674L53.2368 81.9863C53.2184 82.2655 53.4113 82.3996 53.6648 82.2857L55.5972 81.4279C55.8525 81.314 56.2676 81.314 56.5229 81.4279L58.4535 82.2875C58.7088 82.4014 58.9017 82.2655 58.8833 81.9881L58.7382 79.7674Z" fill="url(#paint1_linear_3671_3917)"/>
<path fill-rule="evenodd" clip-rule="evenodd" d="M21.2432 79.7122C21.2377 79.6626 21.2028 79.5653 21.1752 79.523L19.8031 78.048C19.1308 77.3243 19.4357 76.2497 20.3872 75.9852L22.5216 75.3937C22.5749 75.3717 22.6741 75.2946 22.709 75.2486L23.7928 73.3787C24.2961 72.508 25.4331 72.508 25.9382 73.3787L27.0201 75.2486C27.055 75.2946 27.1542 75.3735 27.2075 75.3937L29.3419 75.9852C30.2953 76.2497 30.5984 77.3243 29.9261 78.048L28.5539 79.523C28.5264 79.5653 28.4915 79.6626 28.4878 79.7122L28.6329 81.922C28.6972 82.9065 27.7769 83.5494 26.875 83.1472L24.9537 82.293C24.9096 82.282 24.8196 82.282 24.7755 82.293L22.856 83.149C21.9541 83.5494 21.0319 82.9084 21.0962 81.922L21.2432 79.7122Z" fill="#666666"/>
<path fill-rule="evenodd" clip-rule="evenodd" d="M22.1871 79.7634C22.2055 79.486 22.0659 79.0911 21.8748 78.8872L20.4954 77.403C20.3062 77.1991 20.3705 76.9713 20.6386 76.8978L22.7804 76.3027C23.0504 76.2292 23.3848 75.9702 23.5225 75.7296L24.6099 73.8523C24.7495 73.6099 24.9792 73.6099 25.1188 73.8523L26.2062 75.7296C26.3458 75.9702 26.6801 76.2292 26.9483 76.3027L29.0901 76.8978C29.3582 76.9713 29.4225 77.2009 29.2333 77.403L27.8538 78.8872C27.6647 79.0911 27.5232 79.486 27.5416 79.7634L27.6885 81.9841C27.7069 82.2615 27.5122 82.3956 27.2587 82.2835L25.3263 81.4239C25.0728 81.31 24.6559 81.31 24.4005 81.4239L22.47 82.2835C22.2165 82.3974 22.0218 82.2615 22.0402 81.9841L22.1871 79.7634Z" fill="url(#paint2_linear_3671_3917)"/>
<path fill-rule="evenodd" clip-rule="evenodd" d="M53.401 79.9765L53.5829 82.7465C53.6527 83.8009 52.6828 84.4768 51.7184 84.047L49.3103 82.9743C49.2295 82.9412 49.0054 82.9412 48.9246 82.9743L46.5146 84.047C45.5502 84.475 44.5822 83.799 44.6502 82.7465L44.832 79.9783C44.8357 79.8847 44.7567 79.6587 44.6943 79.5889L42.975 77.7392C42.2549 76.9659 42.5764 75.8344 43.594 75.5515L46.2648 74.8112C46.364 74.7837 46.5734 74.6202 46.6248 74.5339L47.9804 72.1919C48.5205 71.2606 49.7144 71.2606 50.2526 72.1919L51.6082 74.5339C51.6615 74.6202 51.8709 74.7837 51.9683 74.8112L54.6391 75.5515C55.6585 75.8344 55.9781 76.9659 55.2581 77.7392L53.5388 79.5889C53.4782 79.6587 53.3973 79.8847 53.401 79.9765Z" fill="#666666"/>
<path fill-rule="evenodd" clip-rule="evenodd" d="M52.4566 80.039C52.4327 79.6919 52.6072 79.1996 52.846 78.9461L54.5653 77.0964C54.8023 76.8411 54.7215 76.5563 54.3872 76.4645L51.7145 75.7242C51.3802 75.6306 50.9632 75.3091 50.7887 75.0079L49.4331 72.6659C49.2586 72.3646 48.9739 72.3646 48.7994 72.6659L47.4438 75.0079C47.2693 75.3091 46.8523 75.6306 46.518 75.7242L43.8472 76.4645C43.5111 76.5563 43.4302 76.8411 43.6672 77.0964L45.3883 78.9461C45.6253 79.1996 45.7998 79.6919 45.7759 80.039L45.5941 82.809C45.572 83.1544 45.8127 83.3234 46.1304 83.1819L48.5404 82.1092C48.8563 81.9678 49.3762 81.9678 49.694 82.1092L52.1021 83.1819C52.4199 83.3234 52.6605 83.1562 52.6385 82.809L52.4566 80.039Z" fill="url(#paint3_linear_3671_3917)"/>
<path fill-rule="evenodd" clip-rule="evenodd" d="M27.5245 79.975C27.5263 79.8813 27.4473 79.6572 27.3867 79.5874L25.6655 77.7377C24.9473 76.9625 25.2669 75.831 26.2846 75.55L28.9554 74.8097C29.0546 74.7803 29.264 74.6187 29.3154 74.5305L30.6728 72.1885C31.2111 71.259 32.405 71.259 32.9432 72.1885L34.2988 74.5305C34.3503 74.6187 34.5615 74.7803 34.6589 74.8097L37.3297 75.55C38.3491 75.831 38.6687 76.9625 37.9487 77.7377L36.2294 79.5856C36.1688 79.6572 36.0879 79.8813 36.0916 79.9731L36.2735 82.7431C36.3433 83.7975 35.3734 84.4735 34.409 84.0436L32.0009 82.9727C31.9201 82.9397 31.696 82.9397 31.6152 82.9709L29.207 84.0436C28.2427 84.4735 27.2728 83.7975 27.3408 82.745L27.5245 79.975Z" fill="#666666"/>
<path fill-rule="evenodd" clip-rule="evenodd" d="M28.4684 80.0353C28.4904 79.6881 28.3159 79.1977 28.0789 78.9424L26.3578 77.0926C26.1227 76.8373 26.2017 76.5544 26.5378 76.4608L29.2086 75.7205C29.5429 75.6268 29.9599 75.3054 30.1344 75.0041L31.49 72.6621C31.6645 72.3609 31.9492 72.3609 32.1237 72.6621L33.4793 75.0041C33.6538 75.3054 34.0708 75.6268 34.4051 75.7205L37.0778 76.4608C37.4121 76.5544 37.4929 76.8392 37.2559 77.0926L35.5366 78.9424C35.2997 79.1977 35.1252 79.6881 35.1472 80.0353L35.3291 82.8053C35.3511 83.1525 35.1105 83.3196 34.7927 83.1782L32.3846 82.1073C32.0668 81.964 31.547 81.964 31.2292 82.1073L28.821 83.18C28.5033 83.3215 28.2626 83.1525 28.2847 82.8053L28.4684 80.0353Z" fill="url(#paint4_linear_3671_3917)"/>
<path fill-rule="evenodd" clip-rule="evenodd" d="M45.5169 80.7111L45.7447 84.1497C45.8182 85.2868 44.7895 86.0013 43.7498 85.5384L40.7613 84.2067C40.6143 84.1424 40.2469 84.1424 40.0982 84.2067L37.1096 85.5384C36.0681 86.0013 35.0413 85.2849 35.1166 84.1479L35.3425 80.7111C35.3535 80.544 35.2268 80.1858 35.1111 80.0609L32.9766 77.7666C32.1996 76.9309 32.5394 75.7314 33.6379 75.4265L36.9534 74.508C37.1298 74.4603 37.4457 74.2141 37.5357 74.058L39.2183 71.1521C39.7987 70.1491 41.0607 70.1491 41.6411 71.1521L43.3237 74.058C43.4155 74.2141 43.7315 74.4603 43.906 74.508L47.2215 75.4265C48.32 75.7314 48.6598 76.9309 47.8828 77.7666L45.7484 80.0609C45.6345 80.1858 45.5059 80.5421 45.5169 80.7111Z" fill="#666666"/>
<path fill-rule="evenodd" clip-rule="evenodd" d="M44.5778 80.7737C44.5485 80.3438 44.7652 79.734 45.0591 79.4181L47.1935 77.122C47.4874 76.806 47.3864 76.4534 46.9713 76.3376L43.6576 75.4192C43.2424 75.3053 42.7244 74.9049 42.5095 74.532L40.827 71.6261C40.6102 71.2532 40.2557 71.2532 40.0408 71.6261L38.3582 74.532C38.1415 74.9049 37.6253 75.3053 37.2102 75.4192L33.8946 76.3376C33.4795 76.4534 33.3785 76.8079 33.6724 77.122L35.8068 79.4181C36.1007 79.734 36.3175 80.3438 36.2899 80.7737L36.064 84.2104C36.0346 84.6403 36.334 84.8478 36.7289 84.6733L39.7175 83.3434C40.1106 83.1671 40.7553 83.1671 41.1503 83.3434L44.137 84.6752C44.5319 84.8497 44.8313 84.6403 44.8038 84.2104L44.5778 80.7737Z" fill="url(#paint5_linear_3671_3917)"/>
<path d="M14.9889 65.0759H13.4607V68.487H11.543V59.1741H15.0018C16.1021 59.1741 16.9489 59.4202 17.5477 59.9107C18.1428 60.4011 18.4422 61.0936 18.4422 61.9882C18.4422 62.6237 18.3045 63.1546 18.0289 63.5771C17.7553 64.0032 17.3383 64.3412 16.778 64.5928L18.7931 68.397V68.487H16.7358L14.9889 65.0759ZM13.4607 63.5256H15.0091C15.4886 63.5256 15.8614 63.4007 16.126 63.1564C16.3923 62.9121 16.5227 62.5723 16.5227 62.1425C16.5227 61.7035 16.3996 61.3581 16.1498 61.1065C15.8982 60.8548 15.518 60.7281 15.0018 60.7281H13.4607V63.5256Z" fill="white"/>
<path d="M26.1553 64.4496H22.4724V66.9459H26.7945V68.487H20.5547V59.1741H26.7817V60.7281H22.4724V62.9489H26.1553V64.4496Z" fill="white"/>
<path d="M32.1975 66.1762L34.3098 59.1741H36.4443L33.2022 68.487H31.2L27.9727 59.1741H30.0997L32.1975 66.1762Z" fill="white"/>
<path d="M40.0096 68.487H38.0938V59.1741H40.0096V68.487Z" fill="white"/>
<path d="M48.042 64.4496H44.3609V66.9459H48.6831V68.487H42.4414V59.1741H48.6684V60.7281H44.3609V62.9489H48.042V64.4496Z" fill="white"/>
<path d="M57.7154 65.8015L58.9682 59.1741H60.8803L58.8139 68.487H56.8833L55.3679 62.2564L53.8525 68.487H51.9219L49.8555 59.1741H51.7676L53.0277 65.7886L54.5634 59.1741H56.1872L57.7154 65.8015Z" fill="white"/>
<path d="M67.3962 66.0439C67.3962 65.682 67.2676 65.4028 67.0123 65.2081C66.7569 65.0153 66.2959 64.8095 65.6291 64.5946C64.9641 64.3797 64.4388 64.1666 64.0512 63.9591C62.9932 63.3878 62.4642 62.6163 62.4642 61.6501C62.4642 61.1468 62.6074 60.6986 62.8903 60.3037C63.175 59.9106 63.581 59.602 64.11 59.3797C64.6427 59.1593 65.2397 59.0473 65.8991 59.0473C66.5641 59.0473 67.1555 59.1685 67.6772 59.4073C68.197 59.6498 68.6011 59.9877 68.8895 60.4286C69.1779 60.8676 69.3212 61.3654 69.3212 61.9238H67.4017C67.4017 61.4995 67.2676 61.167 66.9994 60.9319C66.7294 60.6931 66.3528 60.5755 65.8679 60.5755C65.3976 60.5755 65.0339 60.6747 64.7749 60.8731C64.5141 61.0715 64.3837 61.3323 64.3837 61.6556C64.3837 61.9587 64.5362 62.2122 64.8392 62.4179C65.146 62.6218 65.5942 62.8129 66.1857 62.9929C67.2786 63.3217 68.0721 63.7276 68.5718 64.2144C69.0695 64.7011 69.3212 65.3055 69.3212 66.031C69.3212 66.8356 69.0163 67.4693 68.4064 67.9267C67.7948 68.3859 66.9737 68.6155 65.945 68.6155C65.2287 68.6155 64.5747 68.4833 63.9869 68.2206C63.3991 67.9579 62.9491 67.5997 62.6423 67.1442C62.3319 66.6868 62.1758 66.1596 62.1758 65.5571H64.1027C64.1027 66.5858 64.7162 67.0983 65.945 67.0983C66.4006 67.0983 66.7569 67.0064 67.0123 66.8209C67.2676 66.6354 67.3962 66.3764 67.3962 66.0439Z" fill="white"/>
<path d="M47.6815 38.1148C47.6815 31.2135 43.2949 25.166 37.3924 25.166C31.4883 25.166 27.1016 31.2133 27.1016 38.1148C27.1016 45.0179 31.4882 51.0654 37.3924 51.0654C43.2949 51.0654 47.6815 45.0178 47.6815 38.1148ZM37.3924 32.3918C37.4252 32.3918 37.5489 32.4037 37.7598 32.6194C37.9739 32.8384 38.2128 33.2069 38.4347 33.7434C38.8767 34.8119 39.1735 36.3569 39.1735 38.1148C39.1735 39.8736 38.8767 41.4191 38.4347 42.4878C38.2128 43.0244 37.9739 43.393 37.7598 43.612C37.5489 43.8277 37.4252 43.8395 37.3924 43.8395C37.3589 43.8395 37.235 43.8274 37.0242 43.6119C36.8101 43.393 36.5713 43.0245 36.3495 42.4879C35.9078 41.4193 35.6114 39.8738 35.6114 38.1148C35.6114 36.3567 35.9078 34.8117 36.3495 33.7433C36.5713 33.2068 36.8101 32.8384 37.0242 32.6195C37.235 32.404 37.3589 32.3918 37.3924 32.3918Z" fill="#666666" stroke="white" stroke-width="2" stroke-linejoin="round"/>
<path d="M68.5838 38.1148C68.5838 31.2133 64.1971 25.166 58.2929 25.166C52.3905 25.166 48.0039 31.2135 48.0039 38.1148C48.0039 45.0178 52.3904 51.0654 58.2929 51.0654C64.1972 51.0654 68.5838 45.0179 68.5838 38.1148ZM58.2929 32.3918C58.3265 32.3918 58.4504 32.404 58.6612 32.6195C58.8753 32.8384 59.1141 33.2068 59.3359 33.7433C59.7776 34.8117 60.074 36.3567 60.074 38.1148C60.074 39.8738 59.7776 41.4193 59.3359 42.4879C59.114 43.0245 58.8752 43.393 58.6612 43.6119C58.4504 43.8274 58.3265 43.8395 58.2929 43.8395C58.2602 43.8395 58.1365 43.8277 57.9256 43.612C57.7115 43.393 57.4726 43.0244 57.2507 42.4878C56.8087 41.4191 56.5119 39.8736 56.5119 38.1148C56.5119 36.3569 56.8087 34.8119 57.2506 33.7434C57.4726 33.2069 57.7115 32.8384 57.9256 32.6194C58.1365 32.4037 58.2602 32.3918 58.2929 32.3918Z" fill="#666666" stroke="white" stroke-width="2" stroke-linejoin="round"/>
<path d="M26.2617 27.0275C26.2617 26.4752 25.814 26.0275 25.2617 26.0275H19.9146C19.6559 26.0275 19.4074 26.1277 19.221 26.3071C17.3841 28.0755 15.4881 29.0897 12.8219 30.163C12.568 30.2652 12.3671 30.467 12.266 30.7213C12.1649 30.9756 12.1725 31.2603 12.287 31.5089C12.8561 32.745 13.3572 33.8365 13.9011 35.0211C14.0205 35.2811 14.142 35.5457 14.2667 35.8173C14.4672 36.254 14.9501 36.4863 15.4165 36.3705C16.1982 36.1763 16.9316 35.9007 17.5994 35.539V48.9689C17.5994 49.5212 18.0471 49.9689 18.5994 49.9689H25.2617C25.814 49.9689 26.2617 49.5212 26.2617 48.9689V27.0275Z" fill="#666666" stroke="white" stroke-width="2" stroke-linejoin="round"/>
<defs>
<linearGradient id="paint0_linear_3671_3917" x1="3.45703" y1="3.68172" x2="91.0797" y2="48.0692" gradientUnits="userSpaceOnUse">
<stop stop-color="#C4CBCD"/>
<stop offset="0.263542" stop-color="white"/>
<stop offset="0.523958" stop-color="#CACED0"/>
<stop offset="0.763542" stop-color="white"/>
<stop offset="1" stop-color="#C4CBCD"/>
</linearGradient>
<linearGradient id="paint1_linear_3671_3917" x1="51.582" y1="73.6745" x2="62.3209" y2="78.9691" gradientUnits="userSpaceOnUse">
<stop stop-color="#C4CBCD"/>
<stop offset="0.263542" stop-color="white"/>
<stop offset="0.523958" stop-color="#CACED0"/>
<stop offset="0.763542" stop-color="white"/>
<stop offset="1" stop-color="#C4CBCD"/>
</linearGradient>
<linearGradient id="paint2_linear_3671_3917" x1="20.3867" y1="73.6705" x2="31.126" y2="78.9656" gradientUnits="userSpaceOnUse">
<stop stop-color="#C4CBCD"/>
<stop offset="0.263542" stop-color="white"/>
<stop offset="0.523958" stop-color="#CACED0"/>
<stop offset="0.763542" stop-color="white"/>
<stop offset="1" stop-color="#C4CBCD"/>
</linearGradient>
<linearGradient id="paint3_linear_3671_3917" x1="43.5313" y1="72.4399" x2="56.926" y2="79.0451" gradientUnits="userSpaceOnUse">
<stop stop-color="#C4CBCD"/>
<stop offset="0.263542" stop-color="white"/>
<stop offset="0.523958" stop-color="#CACED0"/>
<stop offset="0.763542" stop-color="white"/>
<stop offset="1" stop-color="#C4CBCD"/>
</linearGradient>
<linearGradient id="paint4_linear_3671_3917" x1="26.2227" y1="72.4362" x2="39.6176" y2="79.0401" gradientUnits="userSpaceOnUse">
<stop stop-color="#C4CBCD"/>
<stop offset="0.263542" stop-color="white"/>
<stop offset="0.523958" stop-color="#CACED0"/>
<stop offset="0.763542" stop-color="white"/>
<stop offset="1" stop-color="#C4CBCD"/>
</linearGradient>
<linearGradient id="paint5_linear_3671_3917" x1="33.5039" y1="71.3464" x2="50.1224" y2="79.5407" gradientUnits="userSpaceOnUse">
<stop stop-color="#C4CBCD"/>
<stop offset="0.263542" stop-color="white"/>
<stop offset="0.523958" stop-color="#CACED0"/>
<stop offset="0.763542" stop-color="white"/>
<stop offset="1" stop-color="#C4CBCD"/>
</linearGradient>
</defs>
</svg>
