<svg width="77" height="92" viewBox="0 0 77 92" fill="none" xmlns="http://www.w3.org/2000/svg">
<path fill-rule="evenodd" clip-rule="evenodd" d="M2.30552 26.1261L13.5216 22.8679L40.8227 16.3286L69.4233 24.5057V24.4691L74.8266 26.1261C75.8204 26.4317 76.7162 26.9776 76.7162 28.0156V89.978C76.7162 91.0179 75.8665 91.8676 74.8266 91.8676H2.30552C1.2656 91.8676 0.414062 91.0179 0.414062 89.978V28.0156C0.414062 26.9776 1.30597 26.4163 2.30552 26.1261Z" fill="#666666" stroke="#666666" stroke-width="0.2"/>
<path fill-rule="evenodd" clip-rule="evenodd" d="M13.5235 25.2709L2.94948 28.3407C2.89373 28.358 2.80723 28.3849 2.72266 28.4176V66.6868H74.4114V28.4233C74.3153 28.3849 74.2154 28.3522 74.1519 28.3311L69.2695 26.8356L40.8247 18.4932L13.5235 25.2709Z" fill="url(#paint0_linear_3671_3960)"/>
<path fill-rule="evenodd" clip-rule="evenodd" d="M49.9622 0.0206451C51.4596 0.0206451 52.9455 0.239777 54.3794 0.666507C58.8313 1.99283 62.4162 5.18562 64.8497 9.07425C67.5639 13.4108 68.8594 18.5719 68.8594 23.6657C68.8594 28.7596 67.5639 33.9207 64.8497 38.2572C62.4162 42.1459 58.8313 45.3386 54.3794 46.665C52.9455 47.0917 51.4596 47.3089 49.9622 47.3089C48.4667 47.3089 46.9809 47.0917 45.5469 46.665C41.0951 45.3386 37.5101 42.1459 35.0766 38.2572C32.3625 33.9207 31.0669 28.7596 31.0669 23.6657C31.0669 18.5719 32.3625 13.4108 35.0766 9.07425C37.5101 5.18562 41.0951 1.99283 45.5469 0.666507C46.9809 0.239777 48.4667 0.0206451 49.9622 0.0206451ZM14.0996 19.9117C13.0635 20.3999 11.9717 20.7767 10.851 21.0554L8.99609 21.5186L8.19837 19.781C7.02005 17.2148 5.83982 14.6506 4.6615 12.0844L3.65234 9.88542L5.89556 8.98198C10.184 7.25392 13.7901 5.44512 17.1559 2.20427L17.8248 1.55841H30.6094V45.354H14.0996V19.9117ZM49.9622 13.9778C49.3625 14.2411 48.5994 15.9865 48.4091 16.5036C47.6017 18.7122 47.3038 21.3264 47.3038 23.6657C47.3038 26.0051 47.6017 28.6193 48.4091 30.8279C48.5994 31.345 49.3625 33.0903 49.9622 33.3537C50.5639 33.0903 51.327 31.345 51.5173 30.8279C52.3246 28.6193 52.6225 26.0051 52.6225 23.6657C52.6225 21.3264 52.3246 18.7122 51.5173 16.5036C51.327 15.9865 50.5639 14.2411 49.9622 13.9778Z" fill="white"/>
<path fill-rule="evenodd" clip-rule="evenodd" d="M49.9614 2.32927C59.1246 2.32927 66.552 11.8807 66.552 23.6658C66.552 35.4509 59.1246 45.0023 49.9614 45.0023C40.8001 45.0023 33.3727 35.4509 33.3727 23.6658C33.3727 11.8807 40.8001 2.32927 49.9614 2.32927ZM49.9614 11.6597C52.7044 11.6597 54.9284 17.0361 54.9284 23.6658C54.9284 30.2955 52.7044 35.6719 49.9614 35.6719C47.2203 35.6719 44.9963 30.2955 44.9963 23.6658C44.9963 17.0361 47.2203 11.6597 49.9614 11.6597ZM28.3019 3.86511H18.7543C15.2424 7.2482 11.621 9.16272 6.75781 11.1215C7.99379 13.8145 9.05677 16.125 10.2928 18.818C12.7628 18.201 14.8426 17.1091 16.4054 15.5425V43.0474H28.3019V3.86511Z" fill="#666666"/>
<path fill-rule="evenodd" clip-rule="evenodd" d="M20.76 28.7538L22.4438 23.8021L20.7292 18.7621C20.4774 18.0182 20.8772 17.2109 21.6192 16.9591C21.7711 16.9091 21.9248 16.8841 22.0767 16.8841V16.8822H55.0541C55.8403 16.8822 56.4766 17.5204 56.4766 18.3065C56.4766 18.4988 56.4381 18.6833 56.3689 18.8505L54.6851 23.8021L56.3997 28.8422C56.6515 29.5861 56.2536 30.3934 55.5097 30.6452C55.3578 30.6952 55.2041 30.7202 55.0541 30.7202V30.7221H22.0767C21.2886 30.7221 20.6523 30.0858 20.6523 29.2977C20.6523 29.1055 20.6908 28.921 20.76 28.7538Z" fill="white"/>
<path fill-rule="evenodd" clip-rule="evenodd" d="M22.0781 29.298L23.9465 23.8024L22.0781 18.3068H55.0555L53.1852 23.8024L55.0555 29.298H22.0781Z" fill="url(#paint1_linear_3671_3960)"/>
<path d="M25.9219 20.4632H27.9517L29.1473 22.4527L30.3391 20.4632H32.3574L30.0604 23.9002V26.3779H28.2266V23.9002L25.9219 20.4632Z" fill="#666666"/>
<path d="M36.8127 24.6421H33.5161C33.5469 24.9054 33.618 25.1034 33.7314 25.2322C33.889 25.4187 34.0986 25.5109 34.3542 25.5109C34.5157 25.5109 34.6714 25.4706 34.8155 25.3898C34.904 25.3399 35.002 25.2495 35.1039 25.1227L36.7224 25.2707C36.4744 25.7012 36.1745 26.0107 35.8266 26.1953C35.4768 26.3836 34.9732 26.4759 34.3196 26.4759C33.7506 26.4759 33.3047 26.3971 32.9779 26.2356C32.6531 26.0761 32.384 25.8223 32.1687 25.4725C31.9553 25.1227 31.8477 24.7132 31.8477 24.2423C31.8477 23.5714 32.0629 23.0274 32.4916 22.6142C32.9202 22.199 33.5142 21.9914 34.2696 21.9914C34.8847 21.9914 35.3672 22.0856 35.7228 22.2701C36.0784 22.4566 36.3495 22.7257 36.534 23.0793C36.7205 23.4311 36.8127 23.8905 36.8127 24.4576V24.6421ZM35.1442 23.8578C35.1135 23.5388 35.0251 23.31 34.8867 23.1716C34.7483 23.0351 34.5657 22.9659 34.3388 22.9659C34.0774 22.9659 33.8679 23.0697 33.7103 23.2793C33.6122 23.408 33.5488 23.6003 33.52 23.8578H35.1442Z" fill="#666666"/>
<path d="M39.0683 23.4775L37.4998 23.3122C37.5594 23.0373 37.644 22.822 37.7555 22.6644C37.867 22.5068 38.0265 22.3703 38.2379 22.255C38.3879 22.1704 38.5936 22.105 38.8569 22.0608C39.1202 22.0147 39.4047 21.9916 39.7123 21.9916C40.2044 21.9916 40.5984 22.0185 40.8964 22.0743C41.1943 22.1281 41.4423 22.2454 41.6403 22.4203C41.7825 22.5414 41.8921 22.7125 41.9709 22.9335C42.0535 23.1565 42.092 23.3679 42.092 23.5698V25.4651C42.092 25.6669 42.1054 25.8264 42.1304 25.9398C42.1554 26.0552 42.2131 26.2013 42.2977 26.3781H40.7599C40.6984 26.2685 40.658 26.1859 40.6388 26.1282C40.6215 26.0686 40.6023 25.9802 40.583 25.8572C40.3678 26.0648 40.1544 26.2109 39.941 26.2993C39.6508 26.4185 39.3125 26.4761 38.928 26.4761C38.4186 26.4761 38.0303 26.3589 37.7651 26.1205C37.4998 25.8841 37.3672 25.59 37.3672 25.244C37.3672 24.9172 37.4633 24.6481 37.6536 24.4386C37.8458 24.2272 38.1976 24.0695 38.7108 23.9677C39.3259 23.8446 39.7257 23.7581 39.9083 23.7062C40.0929 23.6582 40.287 23.5928 40.4908 23.5121C40.4908 23.3083 40.4485 23.168 40.3639 23.0873C40.2813 23.0065 40.1371 22.9662 39.9276 22.9662C39.6585 22.9662 39.4566 23.0085 39.3221 23.095C39.2183 23.1642 39.1337 23.291 39.0683 23.4775ZM40.4908 24.3367C40.264 24.4194 40.0294 24.4905 39.7815 24.5539C39.4489 24.6423 39.2375 24.7308 39.1491 24.8173C39.0568 24.9076 39.0107 25.0095 39.0107 25.1229C39.0107 25.2536 39.0568 25.3613 39.1472 25.4439C39.2375 25.5266 39.3701 25.5689 39.5451 25.5689C39.7277 25.5689 39.8987 25.5227 40.0564 25.4343C40.214 25.344 40.3255 25.2344 40.3908 25.1056C40.4562 24.9768 40.4908 24.8077 40.4908 24.602V24.3367Z" fill="#666666"/>
<path d="M43.0938 22.0897H44.6334V22.7893C44.7834 22.4856 44.9352 22.2761 45.0928 22.1627C45.2505 22.0474 45.4446 21.9916 45.6753 21.9916C45.9194 21.9916 46.1866 22.0666 46.473 22.2184L45.9636 23.3852C45.7695 23.3026 45.6157 23.2641 45.5023 23.2641C45.287 23.2641 45.1198 23.3525 45.0006 23.5313C44.8314 23.7812 44.7468 24.2502 44.7468 24.9384V26.3781H43.0938V22.0897Z" fill="#666666"/>
<path d="M46.6602 25.188L48.2883 25.04C48.3555 25.2322 48.4497 25.3706 48.5708 25.4533C48.6919 25.5359 48.8534 25.5763 49.0552 25.5763C49.2763 25.5763 49.4454 25.5302 49.5665 25.4341C49.6626 25.3649 49.7088 25.2784 49.7088 25.1726C49.7088 25.0554 49.6473 24.9631 49.5242 24.8978C49.4358 24.8516 49.1994 24.7959 48.8188 24.7286C48.2479 24.6286 47.8538 24.5364 47.6309 24.4518C47.4079 24.3672 47.2234 24.2231 47.0696 24.0212C46.9177 23.8194 46.8428 23.5887 46.8428 23.3312C46.8428 23.0486 46.9235 22.8045 47.0869 22.6007C47.2522 22.395 47.4771 22.2432 47.7654 22.1432C48.0538 22.0414 48.4382 21.9914 48.9207 21.9914C49.432 21.9914 49.8087 22.0298 50.0509 22.1086C50.2951 22.1874 50.4969 22.3085 50.6584 22.4719C50.8217 22.6372 50.9563 22.8583 51.0639 23.1389L49.5108 23.2889C49.4704 23.1524 49.4031 23.0505 49.309 22.9871C49.1821 22.9006 49.0264 22.8583 48.8438 22.8583C48.6593 22.8583 48.5228 22.891 48.4401 22.9582C48.3555 23.0236 48.3133 23.1043 48.3133 23.1966C48.3133 23.3023 48.3671 23.3811 48.4728 23.435C48.5785 23.4907 48.813 23.5388 49.1725 23.581C49.7184 23.6426 50.124 23.7291 50.3912 23.8405C50.6564 23.9501 50.8602 24.1077 51.0005 24.3115C51.1427 24.5172 51.2119 24.7421 51.2119 24.9862C51.2119 25.2341 51.1389 25.4763 50.989 25.7109C50.839 25.9434 50.6045 26.1299 50.2835 26.2683C49.9625 26.4086 49.5242 26.4759 48.9707 26.4759C48.1883 26.4759 47.6309 26.3644 47.3003 26.1414C46.9677 25.9185 46.7543 25.5994 46.6602 25.188Z" fill="#666666"/>
<path d="M23.0542 77.3165C24.4671 77.3165 25.2494 76.6129 25.2494 75.5557C25.2494 73.5989 22.2738 74.0872 22.2738 73.4163C22.2738 73.1953 22.4468 73.0376 22.8428 73.0376C23.3637 73.0376 23.9385 73.2202 24.3806 73.5835L25.1225 72.6109C24.5632 72.1303 23.8289 71.8785 22.9831 71.8785C21.6337 71.8785 20.8841 72.6666 20.8841 73.5509C20.8841 75.5807 23.8673 75.0041 23.8673 75.721C23.8673 75.9748 23.5848 76.1555 23.1177 76.1555C22.4007 76.1555 21.8163 75.8402 21.4377 75.4615L20.7188 76.4803C21.2474 76.9839 21.9893 77.3165 23.0542 77.3165Z" fill="white"/>
<path d="M28.462 77.3166C29.7345 77.3166 30.4207 76.5823 30.759 75.9038L29.5923 75.3502C29.4173 75.7692 28.9675 76.1172 28.462 76.1172C27.6028 76.1172 26.9953 75.454 26.9953 74.5928C26.9953 73.7336 27.6028 73.0705 28.462 73.0705C28.9675 73.0705 29.4173 73.4165 29.5923 73.8355L30.759 73.2819C30.413 72.588 29.7345 71.8691 28.462 71.8691C26.8454 71.8691 25.6133 72.9667 25.6133 74.5928C25.6133 76.2113 26.8454 77.3166 28.462 77.3166Z" fill="white"/>
<path d="M35.836 77.2225L34.7634 75.2887C35.2516 75.1138 35.8129 74.6256 35.8129 73.7087C35.8129 72.7303 35.1497 71.9575 33.981 71.9575H31.3438V77.2225H32.7028V75.454H33.3967L34.2809 77.2225H35.836ZM33.7753 74.27H32.7028V73.1416H33.7753C34.131 73.1416 34.4308 73.3454 34.4308 73.701C34.4308 74.072 34.131 74.27 33.7753 74.27Z" fill="white"/>
<path d="M40.4223 77.2225V76.0384H37.9196V75.1465H40.3666V73.9624H37.9196V73.1416H40.4223V71.9575H36.5625V77.2225H40.4223Z" fill="white"/>
<path d="M45.0707 77.2225V76.0384H42.568V75.1465H45.015V73.9624H42.568V73.1416H45.0707V71.9575H41.2109V77.2225H45.0707Z" fill="white"/>
<path d="M50.7533 77.2225V71.9575H49.3886V74.8543L47.2568 71.9575H45.8594V77.2225H47.2184V74.1758L49.4443 77.2225H50.7533Z" fill="white"/>
<path d="M55.559 77.2225V76.0384H53.0582V75.1465H55.5052V73.9624H53.0582V73.1416H55.559V71.9575H51.6992V77.2225H55.559Z" fill="white"/>
<path d="M58.5698 77.2225C60.219 77.2225 61.4108 76.2191 61.4108 74.5852C61.4108 72.9513 60.219 71.9575 58.5621 71.9575H56.3516V77.2225H58.5698ZM58.5621 76.0384H57.7086V73.1416H58.5698C59.5328 73.1416 60.023 73.7721 60.023 74.5852C60.023 75.3675 59.4848 76.0384 58.5621 76.0384Z" fill="white"/>
<path d="M68.7751 77.2223C68.4118 76.8436 68.0812 76.488 67.764 76.1324C68.0639 75.7537 68.3099 75.327 68.506 74.9079L67.5506 74.4581C67.4565 74.758 67.3065 75.0906 67.1181 75.3904C66.9913 75.2405 66.8721 75.0982 66.7548 74.9406C66.6434 74.8061 66.5088 74.6408 66.3742 74.4581C67.0143 74.1756 67.6468 73.843 67.6468 73.0299C67.6468 72.3033 66.9432 71.8785 66.1705 71.8785C65.2305 71.8785 64.5751 72.4456 64.5751 73.1645C64.5751 73.5124 64.7019 73.8911 64.8903 74.2698C64.2983 74.5619 63.7773 74.9714 63.7773 75.7614C63.7773 76.8032 64.5751 77.3165 65.5708 77.3165C66.0994 77.3165 66.5492 77.1588 66.9432 76.8974L67.2585 77.2223H68.7751ZM65.7438 76.3765C65.3728 76.3765 65.0498 76.0843 65.0498 75.6422C65.0498 75.375 65.1671 75.1694 65.3497 75.0117C65.4996 75.2251 65.665 75.4385 65.8149 75.6268C65.9245 75.7768 66.1071 75.9825 66.3127 76.2112C66.1301 76.3131 65.9418 76.3765 65.7438 76.3765ZM65.7745 73.1876C65.7745 72.9281 65.9648 72.7378 66.2339 72.7378C66.4454 72.7378 66.6126 72.88 66.6126 73.1011C66.6126 73.424 66.3358 73.622 65.9571 73.8046C65.8456 73.5835 65.7745 73.3702 65.7745 73.1876Z" fill="white"/>
<path d="M27.1312 85.0265L24.8842 79.0773H22.9581L20.7188 85.0265H22.4583L22.7524 84.1692H25.0975L25.3916 85.0265H27.1312ZM24.6785 82.8313H23.1619L23.9212 80.5939L24.6785 82.8313Z" fill="white"/>
<path d="M29.1042 85.0265V83.0274H30.5478C31.8857 83.0274 32.618 82.1278 32.618 81.0571C32.618 79.9769 31.8857 79.0773 30.5478 79.0773H27.5703V85.0265H29.1042ZM30.3441 81.6896H29.1042V80.4151H30.3441C30.7535 80.4151 31.0572 80.6458 31.0572 81.0571C31.0572 81.4589 30.7535 81.6896 30.3441 81.6896Z" fill="white"/>
<path d="M34.8386 85.0265V83.0274H36.2841C37.622 83.0274 38.3524 82.1278 38.3524 81.0571C38.3524 79.9769 37.622 79.0773 36.2841 79.0773H33.3047V85.0265H34.8386ZM36.0784 81.6896H34.8386V80.4151H36.0784C36.4898 80.4151 36.7916 80.6458 36.7916 81.0571C36.7916 81.4589 36.4898 81.6896 36.0784 81.6896Z" fill="white"/>
<path d="M44.1137 85.0265L42.9008 82.841C43.4544 82.6449 44.0868 82.0913 44.0868 81.0571C44.0868 79.9519 43.3371 79.0773 42.0185 79.0773H39.0391V85.0265H40.573V83.0274H41.3572L42.3568 85.0265H44.1137ZM41.7859 81.6896H40.573V80.4151H41.7859C42.1876 80.4151 42.5259 80.6458 42.5259 81.0475C42.5259 81.4666 42.1876 81.6896 41.7859 81.6896Z" fill="white"/>
<path d="M47.814 85.1321C49.6324 85.1321 50.9876 83.8673 50.9876 82.0566C50.9876 80.2458 49.6324 78.9791 47.814 78.9791C45.9937 78.9791 44.6289 80.2458 44.6289 82.0566C44.6289 83.8673 45.9937 85.1321 47.814 85.1321ZM47.814 83.7769C46.8241 83.7769 46.1897 83.0196 46.1897 82.0566C46.1897 81.0839 46.8241 80.3343 47.814 80.3343C48.7943 80.3343 49.4267 81.0839 49.4267 82.0566C49.4267 83.0196 48.7943 83.7769 47.814 83.7769Z" fill="white"/>
<path d="M55.1186 85.0265L57.3656 79.0773H55.626L54.1555 83.3676L52.6927 79.0773H50.9531L53.1925 85.0265H55.1186Z" fill="white"/>
<path d="M62.1662 85.0265V83.6887H59.3386V82.6795H62.1027V81.3416H59.3386V80.4151H62.1662V79.0773H57.8047V85.0265H62.1662Z" fill="white"/>
<path d="M65.5632 85.0265C67.4278 85.0265 68.7752 83.8924 68.7752 82.0471C68.7752 80.1998 67.4278 79.0773 65.5555 79.0773H63.0586V85.0265H65.5632ZM65.5555 83.6887H64.5925V80.4151H65.5632C66.6531 80.4151 67.2048 81.1283 67.2048 82.0471C67.2048 82.9294 66.5993 83.6887 65.5555 83.6887Z" fill="white"/>
<path fill-rule="evenodd" clip-rule="evenodd" d="M14.1472 60.5283L11.779 58.2524H8.72462C8.59776 58.2543 8.47089 58.2294 8.35364 58.1794C8.23638 58.1313 8.12874 58.0602 8.03839 57.9699C7.94805 57.8795 7.87693 57.7719 7.82887 57.6546C7.77889 57.5374 7.75391 57.4105 7.75391 57.2836V54.8443L10.4527 52.1436L13.8396 55.5306H16.1828V57.5181C16.1828 57.7123 16.1059 57.8987 15.9675 58.0371C15.831 58.1736 15.6446 58.2524 15.4485 58.2524H14.1952L14.1472 60.5283Z" fill="#666666"/>
<path fill-rule="evenodd" clip-rule="evenodd" d="M6.95628 54.7844H5.69531L9.89534 50.5844H14.1857L18.3627 54.7613H14.0973L10.5374 51.2033L6.95628 54.7844Z" fill="#666666"/>
<path fill-rule="evenodd" clip-rule="evenodd" d="M19.4258 51.6782H21.0943V54.156H23.4547V51.6782H25.0367V58.3233H23.4547V55.4515H21.0943V58.3233H19.4258V51.6782Z" fill="#666666"/>
<path fill-rule="evenodd" clip-rule="evenodd" d="M28.1642 57.0757C28.937 57.0757 29.4002 56.5606 29.4002 55.8109C29.4002 55.0593 28.937 54.5442 28.1642 54.5442C27.3934 54.5442 26.9302 55.0593 26.9302 55.8109C26.9302 56.5625 27.3934 57.0757 28.1642 57.0757ZM28.1642 53.1871C29.7078 53.1871 30.9457 54.2155 30.9457 55.8109C30.9457 57.4044 29.7097 58.4347 28.1642 58.4347C26.6188 58.4347 25.3828 57.4063 25.3828 55.8109C25.3828 54.2155 26.6207 53.1871 28.1642 53.1871Z" fill="#666666"/>
<path fill-rule="evenodd" clip-rule="evenodd" d="M31.1367 53.4488H32.5399V54.11H32.5592C32.7533 53.7294 33.2319 53.3296 33.9451 53.3296C34.6063 53.3296 35.1503 53.6083 35.4079 54.2004C35.7481 53.5776 36.2056 53.3296 36.9091 53.3296C38.197 53.3296 38.5891 54.2619 38.5891 55.446V58.3235H37.1225V55.4863C37.1225 55.0365 36.9591 54.654 36.4805 54.654C35.8077 54.654 35.5924 55.1461 35.5924 55.7477V58.3254H34.1296V55.7439C34.1296 55.3844 34.1488 54.6521 33.476 54.6521C32.7149 54.6521 32.5976 55.2633 32.5976 55.8958V58.3235H31.1367V53.4488Z" fill="#666666"/>
<path fill-rule="evenodd" clip-rule="evenodd" d="M42.5397 55.3286C42.5435 55.2075 42.5204 55.0864 42.4762 54.973C42.4301 54.8596 42.3628 54.7577 42.2763 54.6712C42.1898 54.5867 42.0879 54.5175 41.9745 54.4733C41.8611 54.4271 41.74 54.406 41.6189 54.4079C40.9577 54.4079 40.5963 54.8596 40.5559 55.3286H42.5397ZM43.8102 57.4738C43.3297 58.0851 42.5397 58.4349 41.7573 58.4349C40.2561 58.4349 39.0547 57.4335 39.0547 55.8803C39.0547 54.3272 40.2561 53.3276 41.7573 53.3276C43.1605 53.3276 44.0428 54.3272 44.0428 55.8803V56.3532H40.5559C40.677 56.9241 41.1076 57.2951 41.6881 57.2951C42.1783 57.2951 42.5089 57.0452 42.7588 56.7049L43.8102 57.4738Z" fill="#666666"/>
<path fill-rule="evenodd" clip-rule="evenodd" d="M46.941 52.4954L45.6339 55.9976H48.2097L46.941 52.4954ZM46.695 51.8457H47.2351L49.5975 58.237H49.0093L48.4 56.5416H45.4283L44.7939 58.237H44.2461L46.695 51.8457Z" fill="#666666"/>
<path fill-rule="evenodd" clip-rule="evenodd" d="M53.2464 56.2569C53.2464 56.0397 53.2022 55.8244 53.1176 55.6245C53.0349 55.4304 52.9158 55.2555 52.7658 55.1094C52.614 54.9614 52.4352 54.8441 52.2411 54.7615C52.0335 54.675 51.8124 54.6307 51.5875 54.6327C51.3626 54.6288 51.1396 54.673 50.934 54.7615C50.7456 54.8422 50.5764 54.9614 50.4342 55.1094C50.2958 55.2574 50.1882 55.4323 50.1209 55.6245C49.9767 56.034 49.9767 56.4799 50.1209 56.8874C50.1882 57.0796 50.2958 57.2546 50.4342 57.4026C50.5764 57.5525 50.7456 57.6698 50.934 57.7524C51.1396 57.8408 51.3626 57.8831 51.5875 57.8793C51.8124 57.8831 52.0335 57.8389 52.2411 57.7524C52.4352 57.6698 52.614 57.5506 52.7658 57.4026C52.9158 57.2565 53.0349 57.0816 53.1176 56.8874C53.2022 56.6894 53.2464 56.4741 53.2464 56.2569ZM53.1926 57.5448H53.1753C53.0984 57.6813 52.9946 57.8005 52.8754 57.9004C52.7562 58.0004 52.6236 58.085 52.4833 58.1503C52.3429 58.2157 52.1949 58.2656 52.0412 58.2964C51.8932 58.3272 51.7394 58.3425 51.5856 58.3445C51.2992 58.3464 51.0147 58.2926 50.7475 58.1868C50.4995 58.0888 50.2727 57.9427 50.0844 57.7524C49.8998 57.5621 49.7537 57.3372 49.6557 57.0893C49.4481 56.551 49.4481 55.9552 49.6557 55.4169C49.7537 55.169 49.8998 54.9441 50.0844 54.7538C50.2727 54.5654 50.4976 54.4174 50.7475 54.3194C51.0147 54.2136 51.2992 54.1598 51.5856 54.1617C51.7394 54.1637 51.8932 54.179 52.0412 54.2098C52.1949 54.2405 52.3429 54.2905 52.4833 54.3559C52.6236 54.4212 52.7562 54.5058 52.8754 54.6058C52.9946 54.7057 53.0965 54.8268 53.1753 54.9614H53.1926V51.7455H53.7096V58.2407H53.1926V57.5448Z" fill="#666666"/>
<path fill-rule="evenodd" clip-rule="evenodd" d="M54.1914 53.666H54.8642L56.3885 57.593L57.8724 53.666H58.476L56.6749 58.237H56.0617L54.1914 53.666Z" fill="#666666"/>
<path fill-rule="evenodd" clip-rule="evenodd" d="M58.7541 52.1684C58.756 52.0531 58.7964 51.9416 58.8714 51.8532C58.9463 51.7629 59.0482 51.7033 59.1635 51.6821C59.277 51.661 59.3942 51.6802 59.4961 51.736C59.598 51.7898 59.6787 51.8801 59.721 51.9878C59.7652 52.0954 59.771 52.2146 59.7364 52.3261C59.7018 52.4356 59.6287 52.5317 59.5326 52.5952C59.4365 52.6586 59.3212 52.6874 59.2039 52.6759C59.0886 52.6644 58.9809 52.6125 58.9002 52.5317C58.8521 52.4837 58.8137 52.4279 58.7887 52.3645C58.7637 52.303 58.7522 52.2357 58.7541 52.1684Z" fill="#666666"/>
<path fill-rule="evenodd" clip-rule="evenodd" d="M58.9102 53.6657H59.5906V58.2367H58.9102V53.6657Z" fill="#666666"/>
<path fill-rule="evenodd" clip-rule="evenodd" d="M60.5502 57.0643C60.6694 57.3026 60.8635 57.4968 61.0999 57.6198C61.3364 57.7466 61.5997 57.812 61.8688 57.812C61.9957 57.812 62.1226 57.7928 62.2417 57.7524C62.3628 57.7159 62.4762 57.6601 62.5781 57.5852C62.6742 57.5141 62.7569 57.4256 62.8184 57.3238C62.8818 57.218 62.9145 57.0969 62.9126 56.9739C62.9126 56.7644 62.8453 56.6068 62.7107 56.5011C62.5608 56.3896 62.3936 56.3069 62.2148 56.2569C61.9995 56.1935 61.7823 56.1416 61.5632 56.1051C61.3402 56.0647 61.1211 55.9994 60.9135 55.9071C60.7232 55.8225 60.5521 55.6956 60.4156 55.5399C60.283 55.3823 60.2157 55.1594 60.2157 54.8691C60.21 54.6673 60.258 54.4654 60.3522 54.2867C60.4406 54.1271 60.5636 53.9887 60.7117 53.8792C60.8616 53.7696 61.0307 53.6889 61.2095 53.637C61.3921 53.587 61.5805 53.5601 61.7708 53.5601C62.1456 53.5601 62.4666 53.6293 62.7396 53.7677C63.0164 53.908 63.2394 54.1367 63.3758 54.4155L62.8434 54.7307C62.7473 54.5385 62.6031 54.3751 62.4224 54.254C62.2571 54.1463 62.0399 54.0925 61.7689 54.0925C61.6574 54.0925 61.5459 54.1098 61.4402 54.1406C61.3287 54.1713 61.2249 54.2175 61.1288 54.279C61.0365 54.3386 60.9596 54.4135 60.8981 54.5039C60.8347 54.5981 60.802 54.7076 60.8039 54.8191C60.8039 55.0229 60.8712 55.1728 61.0057 55.2728C61.1576 55.3785 61.3268 55.4573 61.5036 55.5034C61.717 55.563 61.9342 55.6111 62.1533 55.6457C62.3782 55.6822 62.5954 55.7475 62.803 55.8379C62.9972 55.9244 63.1682 56.057 63.3009 56.2223C63.4354 56.3915 63.5027 56.6279 63.5027 56.9374C63.5085 57.1488 63.4623 57.3603 63.3681 57.5506C63.2816 57.7236 63.1586 57.8735 63.0048 57.9908C62.8472 58.1099 62.6704 58.2003 62.4801 58.256C62.2783 58.3156 62.0687 58.3445 61.8611 58.3445C61.4882 58.3483 61.1192 58.2714 60.7808 58.1176C60.4618 57.9715 60.1984 57.7255 60.0273 57.4199L60.5502 57.0643Z" fill="#666666"/>
<path fill-rule="evenodd" clip-rule="evenodd" d="M64.2945 56.0052C64.2925 56.2455 64.331 56.4838 64.4079 56.7126C64.4771 56.924 64.5886 57.1201 64.7366 57.2892C64.8884 57.4603 65.0749 57.5968 65.2825 57.691C65.492 57.7833 65.7169 57.8313 65.9456 57.8313C66.1744 57.8313 66.4012 57.7833 66.6107 57.691C66.8183 57.5968 67.0048 57.4603 67.1566 57.2892C67.3027 57.1201 67.4161 56.924 67.4853 56.7126C67.6372 56.2513 67.6372 55.7553 67.4853 55.2959C67.4142 55.0826 67.3027 54.8865 67.1566 54.7173C67.0028 54.5482 66.8183 54.4117 66.6088 54.3194C66.4012 54.2252 66.1744 54.1772 65.9456 54.1772C65.7188 54.1772 65.492 54.2252 65.2844 54.3194C65.0749 54.4117 64.8884 54.5482 64.7366 54.7173C64.5905 54.8865 64.479 55.0826 64.4079 55.2959C64.331 55.5227 64.2925 55.763 64.2945 56.0052ZM63.7543 56.0052C63.7485 55.6842 63.8043 55.367 63.9158 55.0672C64.0177 54.7923 64.1695 54.5405 64.3656 54.3252C64.5616 54.1157 64.7981 53.9504 65.0614 53.8389C65.3421 53.7216 65.6419 53.662 65.9456 53.6659C66.2474 53.662 66.5473 53.7216 66.826 53.8389C67.0893 53.9504 67.3258 54.1157 67.5218 54.3252C67.7198 54.5405 67.8755 54.7923 67.9774 55.0672C68.1927 55.6727 68.1927 56.3378 67.9774 56.9433C67.8755 57.2181 67.7198 57.4699 67.5218 57.6852C67.3258 57.8928 67.0893 58.0601 66.826 58.1715C66.5473 58.2888 66.2474 58.3484 65.9456 58.3445C65.6419 58.3484 65.3421 58.2888 65.0614 58.1715C64.7961 58.0601 64.5597 57.8947 64.3656 57.6852C64.1695 57.4699 64.0157 57.2181 63.9158 56.9433C63.8043 56.6434 63.7485 56.3243 63.7543 56.0052Z" fill="#666666"/>
<path fill-rule="evenodd" clip-rule="evenodd" d="M68.589 55.0036C68.589 54.919 68.5871 54.8172 68.5794 54.6961C68.5717 54.575 68.5679 54.4558 68.5641 54.3308C68.5583 54.2078 68.5544 54.0925 68.5487 53.9848C68.5429 53.8772 68.5391 53.7965 68.5391 53.7369H69.1522C69.158 53.906 69.1638 54.0675 69.1657 54.2232C69.1657 54.3251 69.1734 54.427 69.1926 54.5269C69.3425 54.2674 69.5482 54.0444 69.7943 53.8734C70.0403 53.7042 70.3402 53.6196 70.6939 53.6196C70.7534 53.6196 70.813 53.6254 70.8726 53.635C70.9303 53.6446 70.9899 53.6562 71.0514 53.6696L70.9803 54.2463C70.9053 54.2213 70.8246 54.2078 70.7438 54.2059C70.5093 54.2001 70.2748 54.2424 70.0557 54.327C69.8731 54.402 69.7078 54.5173 69.5751 54.6653C69.4463 54.8095 69.3522 54.9806 69.2945 55.1651C69.2311 55.365 69.2003 55.5745 69.2022 55.784V58.2368H68.589V55.0036Z" fill="#666666"/>
<path d="M7.52949 81.2592C7.17003 80.8728 7.19118 80.2654 7.57946 79.904C7.96583 79.5446 8.57324 79.5657 8.93462 79.954L10.8242 81.9896L15.6278 73.5434C15.8892 73.0821 16.4735 72.9226 16.9349 73.1821C17.3943 73.4435 17.5557 74.0297 17.2943 74.4892L11.8621 84.0406C11.8141 84.1367 11.7468 84.2251 11.6622 84.304C11.2759 84.6634 10.6685 84.6423 10.3071 84.254L7.52949 81.2592Z" fill="white"/>
<defs>
<linearGradient id="paint0_linear_3671_3960" x1="2.72266" y1="18.4932" x2="73.8618" y2="68.9103" gradientUnits="userSpaceOnUse">
<stop stop-color="#C4CBCD"/>
<stop offset="0.263542" stop-color="white"/>
<stop offset="0.523958" stop-color="#CACED0"/>
<stop offset="0.763542" stop-color="white"/>
<stop offset="1" stop-color="#C4CBCD"/>
</linearGradient>
<linearGradient id="paint1_linear_3671_3960" x1="22.0781" y1="18.3068" x2="38.2314" y2="41.3977" gradientUnits="userSpaceOnUse">
<stop stop-color="#C4CBCD"/>
<stop offset="0.263542" stop-color="white"/>
<stop offset="0.523958" stop-color="#CACED0"/>
<stop offset="0.763542" stop-color="white"/>
<stop offset="1" stop-color="#C4CBCD"/>
</linearGradient>
</defs>
</svg>
