<svg width="180" height="180" viewBox="0 0 180 180" fill="none" xmlns="http://www.w3.org/2000/svg">
<mask id="mask0_3671_4639" style="mask-type:alpha" maskUnits="userSpaceOnUse" x="0" y="0" width="180" height="180">
<rect width="4.55696" height="4.55696" rx="2.27848" fill="#FC131F"/>
<rect x="15.9492" width="4.55696" height="4.55696" rx="2.27848" fill="#FC131F"/>
<rect x="31.8984" width="4.55696" height="4.55696" rx="2.27848" fill="#FC131F"/>
<rect x="47.8477" width="4.55696" height="4.55696" rx="2.27848" fill="#FC131F"/>
<rect x="63.7969" width="4.55696" height="4.55696" rx="2.27848" fill="#FC131F"/>
<rect x="79.7461" width="4.55696" height="4.55696" rx="2.27848" fill="#FC131F"/>
<rect x="95.6953" width="4.55696" height="4.55696" rx="2.27848" fill="#FC131F"/>
<rect x="111.645" width="4.55696" height="4.55696" rx="2.27848" fill="#FC131F"/>
<rect x="127.594" width="4.55696" height="4.55696" rx="2.27848" fill="#FC131F"/>
<rect x="143.543" width="4.55696" height="4.55696" rx="2.27848" fill="#FC131F"/>
<rect x="159.492" width="4.55696" height="4.55696" rx="2.27848" fill="#FC131F"/>
<rect x="175.441" width="4.55696" height="4.55696" rx="2.27848" fill="#FC131F"/>
<rect y="15.9492" width="4.55696" height="4.55696" rx="2.27848" fill="#FC131F"/>
<rect x="15.9492" y="15.9492" width="4.55696" height="4.55696" rx="2.27848" fill="#FC131F"/>
<rect x="31.8984" y="15.9492" width="4.55696" height="4.55696" rx="2.27848" fill="#FC131F"/>
<rect x="47.8477" y="15.9492" width="4.55696" height="4.55696" rx="2.27848" fill="#FC131F"/>
<rect x="63.7969" y="15.9492" width="4.55696" height="4.55696" rx="2.27848" fill="#FC131F"/>
<rect x="79.7461" y="15.9492" width="4.55696" height="4.55696" rx="2.27848" fill="#FC131F"/>
<rect x="95.6953" y="15.9492" width="4.55696" height="4.55696" rx="2.27848" fill="#FC131F"/>
<rect x="111.645" y="15.9492" width="4.55696" height="4.55696" rx="2.27848" fill="#FC131F"/>
<rect x="127.594" y="15.9492" width="4.55696" height="4.55696" rx="2.27848" fill="#FC131F"/>
<rect x="143.543" y="15.9492" width="4.55696" height="4.55696" rx="2.27848" fill="#FC131F"/>
<rect x="159.492" y="15.9492" width="4.55696" height="4.55696" rx="2.27848" fill="#FC131F"/>
<rect x="175.441" y="15.9492" width="4.55696" height="4.55696" rx="2.27848" fill="#FC131F"/>
<rect y="31.8989" width="4.55696" height="4.55696" rx="2.27848" fill="#FC131F"/>
<rect x="15.9492" y="31.8989" width="4.55696" height="4.55696" rx="2.27848" fill="#FC131F"/>
<rect x="31.8984" y="31.8989" width="4.55696" height="4.55696" rx="2.27848" fill="#FC131F"/>
<rect x="47.8477" y="31.8989" width="4.55696" height="4.55696" rx="2.27848" fill="#FC131F"/>
<rect x="63.7969" y="31.8989" width="4.55696" height="4.55696" rx="2.27848" fill="#FC131F"/>
<rect x="79.7461" y="31.8989" width="4.55696" height="4.55696" rx="2.27848" fill="#FC131F"/>
<rect x="95.6953" y="31.8989" width="4.55696" height="4.55696" rx="2.27848" fill="#FC131F"/>
<rect x="111.645" y="31.8989" width="4.55696" height="4.55696" rx="2.27848" fill="#FC131F"/>
<rect x="127.594" y="31.8989" width="4.55696" height="4.55696" rx="2.27848" fill="#FC131F"/>
<rect x="143.543" y="31.8989" width="4.55696" height="4.55696" rx="2.27848" fill="#FC131F"/>
<rect x="159.492" y="31.8989" width="4.55696" height="4.55696" rx="2.27848" fill="#FC131F"/>
<rect x="175.441" y="31.8989" width="4.55696" height="4.55696" rx="2.27848" fill="#FC131F"/>
<rect y="47.8481" width="4.55696" height="4.55696" rx="2.27848" fill="#FC131F"/>
<rect x="15.9492" y="47.8481" width="4.55696" height="4.55696" rx="2.27848" fill="#FC131F"/>
<rect x="31.8984" y="47.8481" width="4.55696" height="4.55696" rx="2.27848" fill="#FC131F"/>
<rect x="47.8477" y="47.8481" width="4.55696" height="4.55696" rx="2.27848" fill="#FC131F"/>
<rect x="63.7969" y="47.8481" width="4.55696" height="4.55696" rx="2.27848" fill="#FC131F"/>
<rect x="79.7461" y="47.8481" width="4.55696" height="4.55696" rx="2.27848" fill="#FC131F"/>
<rect x="95.6953" y="47.8481" width="4.55696" height="4.55696" rx="2.27848" fill="#FC131F"/>
<rect x="111.645" y="47.8481" width="4.55696" height="4.55696" rx="2.27848" fill="#FC131F"/>
<rect x="127.594" y="47.8481" width="4.55696" height="4.55696" rx="2.27848" fill="#FC131F"/>
<rect x="143.543" y="47.8481" width="4.55696" height="4.55696" rx="2.27848" fill="#FC131F"/>
<rect x="159.492" y="47.8481" width="4.55696" height="4.55696" rx="2.27848" fill="#FC131F"/>
<rect x="175.441" y="47.8481" width="4.55696" height="4.55696" rx="2.27848" fill="#FC131F"/>
<rect y="63.7974" width="4.55696" height="4.55696" rx="2.27848" fill="#FC131F"/>
<rect x="15.9492" y="63.7974" width="4.55696" height="4.55696" rx="2.27848" fill="#FC131F"/>
<rect x="31.8984" y="63.7974" width="4.55696" height="4.55696" rx="2.27848" fill="#FC131F"/>
<rect x="47.8477" y="63.7974" width="4.55696" height="4.55696" rx="2.27848" fill="#FC131F"/>
<rect x="63.7969" y="63.7974" width="4.55696" height="4.55696" rx="2.27848" fill="#FC131F"/>
<rect x="79.7461" y="63.7974" width="4.55696" height="4.55696" rx="2.27848" fill="#FC131F"/>
<rect x="95.6953" y="63.7974" width="4.55696" height="4.55696" rx="2.27848" fill="#FC131F"/>
<rect x="111.645" y="63.7974" width="4.55696" height="4.55696" rx="2.27848" fill="#FC131F"/>
<rect x="127.594" y="63.7974" width="4.55696" height="4.55696" rx="2.27848" fill="#FC131F"/>
<rect x="143.543" y="63.7974" width="4.55696" height="4.55696" rx="2.27848" fill="#FC131F"/>
<rect x="159.492" y="63.7974" width="4.55696" height="4.55696" rx="2.27848" fill="#FC131F"/>
<rect x="175.441" y="63.7974" width="4.55696" height="4.55696" rx="2.27848" fill="#FC131F"/>
<rect y="79.7471" width="4.55696" height="4.55696" rx="2.27848" fill="#FC131F"/>
<rect x="15.9492" y="79.7471" width="4.55696" height="4.55696" rx="2.27848" fill="#FC131F"/>
<rect x="31.8984" y="79.7471" width="4.55696" height="4.55696" rx="2.27848" fill="#FC131F"/>
<rect x="47.8477" y="79.7471" width="4.55696" height="4.55696" rx="2.27848" fill="#FC131F"/>
<rect x="63.7969" y="79.7471" width="4.55696" height="4.55696" rx="2.27848" fill="#FC131F"/>
<rect x="79.7461" y="79.7471" width="4.55696" height="4.55696" rx="2.27848" fill="#FC131F"/>
<rect x="95.6953" y="79.7471" width="4.55696" height="4.55696" rx="2.27848" fill="#FC131F"/>
<rect x="111.645" y="79.7471" width="4.55696" height="4.55696" rx="2.27848" fill="#FC131F"/>
<rect x="127.594" y="79.7471" width="4.55696" height="4.55696" rx="2.27848" fill="#FC131F"/>
<rect x="143.543" y="79.7471" width="4.55696" height="4.55696" rx="2.27848" fill="#FC131F"/>
<rect x="159.492" y="79.7471" width="4.55696" height="4.55696" rx="2.27848" fill="#FC131F"/>
<rect x="175.441" y="79.7471" width="4.55696" height="4.55696" rx="2.27848" fill="#FC131F"/>
<rect y="95.6963" width="4.55696" height="4.55696" rx="2.27848" fill="#FC131F"/>
<rect x="15.9492" y="95.6963" width="4.55696" height="4.55696" rx="2.27848" fill="#FC131F"/>
<rect x="31.8984" y="95.6963" width="4.55696" height="4.55696" rx="2.27848" fill="#FC131F"/>
<rect x="47.8477" y="95.6963" width="4.55696" height="4.55696" rx="2.27848" fill="#FC131F"/>
<rect x="63.7969" y="95.6963" width="4.55696" height="4.55696" rx="2.27848" fill="#FC131F"/>
<rect x="79.7461" y="95.6963" width="4.55696" height="4.55696" rx="2.27848" fill="#FC131F"/>
<rect x="95.6953" y="95.6963" width="4.55696" height="4.55696" rx="2.27848" fill="#FC131F"/>
<rect x="111.645" y="95.6963" width="4.55696" height="4.55696" rx="2.27848" fill="#FC131F"/>
<rect x="127.594" y="95.6963" width="4.55696" height="4.55696" rx="2.27848" fill="#FC131F"/>
<rect x="143.543" y="95.6963" width="4.55696" height="4.55696" rx="2.27848" fill="#FC131F"/>
<rect x="159.492" y="95.6963" width="4.55696" height="4.55696" rx="2.27848" fill="#FC131F"/>
<rect x="175.441" y="95.6963" width="4.55696" height="4.55696" rx="2.27848" fill="#FC131F"/>
<rect y="111.646" width="4.55696" height="4.55696" rx="2.27848" fill="#FC131F"/>
<rect x="15.9492" y="111.646" width="4.55696" height="4.55696" rx="2.27848" fill="#FC131F"/>
<rect x="31.8984" y="111.646" width="4.55696" height="4.55696" rx="2.27848" fill="#FC131F"/>
<rect x="47.8477" y="111.646" width="4.55696" height="4.55696" rx="2.27848" fill="#FC131F"/>
<rect x="63.7969" y="111.646" width="4.55696" height="4.55696" rx="2.27848" fill="#FC131F"/>
<rect x="79.7461" y="111.646" width="4.55696" height="4.55696" rx="2.27848" fill="#FC131F"/>
<rect x="95.6953" y="111.646" width="4.55696" height="4.55696" rx="2.27848" fill="#FC131F"/>
<rect x="111.645" y="111.646" width="4.55696" height="4.55696" rx="2.27848" fill="#FC131F"/>
<rect x="127.594" y="111.646" width="4.55696" height="4.55696" rx="2.27848" fill="#FC131F"/>
<rect x="143.543" y="111.646" width="4.55696" height="4.55696" rx="2.27848" fill="#FC131F"/>
<rect x="159.492" y="111.646" width="4.55696" height="4.55696" rx="2.27848" fill="#FC131F"/>
<rect x="175.441" y="111.646" width="4.55696" height="4.55696" rx="2.27848" fill="#FC131F"/>
<rect y="127.595" width="4.55696" height="4.55696" rx="2.27848" fill="#FC131F"/>
<rect x="15.9492" y="127.595" width="4.55696" height="4.55696" rx="2.27848" fill="#FC131F"/>
<rect x="31.8984" y="127.595" width="4.55696" height="4.55696" rx="2.27848" fill="#FC131F"/>
<rect x="47.8477" y="127.595" width="4.55696" height="4.55696" rx="2.27848" fill="#FC131F"/>
<rect x="63.7969" y="127.595" width="4.55696" height="4.55696" rx="2.27848" fill="#FC131F"/>
<rect x="79.7461" y="127.595" width="4.55696" height="4.55696" rx="2.27848" fill="#FC131F"/>
<rect x="95.6953" y="127.595" width="4.55696" height="4.55696" rx="2.27848" fill="#FC131F"/>
<rect x="111.645" y="127.595" width="4.55696" height="4.55696" rx="2.27848" fill="#FC131F"/>
<rect x="127.594" y="127.595" width="4.55696" height="4.55696" rx="2.27848" fill="#FC131F"/>
<rect x="143.543" y="127.595" width="4.55696" height="4.55696" rx="2.27848" fill="#FC131F"/>
<rect x="159.492" y="127.595" width="4.55696" height="4.55696" rx="2.27848" fill="#FC131F"/>
<rect x="175.441" y="127.595" width="4.55696" height="4.55696" rx="2.27848" fill="#FC131F"/>
<rect y="143.544" width="4.55696" height="4.55696" rx="2.27848" fill="#FC131F"/>
<rect x="15.9492" y="143.544" width="4.55696" height="4.55696" rx="2.27848" fill="#FC131F"/>
<rect x="31.8984" y="143.544" width="4.55696" height="4.55696" rx="2.27848" fill="#FC131F"/>
<rect x="47.8477" y="143.544" width="4.55696" height="4.55696" rx="2.27848" fill="#FC131F"/>
<rect x="63.7969" y="143.544" width="4.55696" height="4.55696" rx="2.27848" fill="#FC131F"/>
<rect x="79.7461" y="143.544" width="4.55696" height="4.55696" rx="2.27848" fill="#FC131F"/>
<rect x="95.6953" y="143.544" width="4.55696" height="4.55696" rx="2.27848" fill="#FC131F"/>
<rect x="111.645" y="143.544" width="4.55696" height="4.55696" rx="2.27848" fill="#FC131F"/>
<rect x="127.594" y="143.544" width="4.55696" height="4.55696" rx="2.27848" fill="#FC131F"/>
<rect x="143.543" y="143.544" width="4.55696" height="4.55696" rx="2.27848" fill="#FC131F"/>
<rect x="159.492" y="143.544" width="4.55696" height="4.55696" rx="2.27848" fill="#FC131F"/>
<rect x="175.441" y="143.544" width="4.55696" height="4.55696" rx="2.27848" fill="#FC131F"/>
<rect y="159.494" width="4.55696" height="4.55696" rx="2.27848" fill="#FC131F"/>
<rect x="15.9492" y="159.494" width="4.55696" height="4.55696" rx="2.27848" fill="#FC131F"/>
<rect x="31.8984" y="159.494" width="4.55696" height="4.55696" rx="2.27848" fill="#FC131F"/>
<rect x="47.8477" y="159.494" width="4.55696" height="4.55696" rx="2.27848" fill="#FC131F"/>
<rect x="63.7969" y="159.494" width="4.55696" height="4.55696" rx="2.27848" fill="#FC131F"/>
<rect x="79.7461" y="159.494" width="4.55696" height="4.55696" rx="2.27848" fill="#FC131F"/>
<rect x="95.6953" y="159.494" width="4.55696" height="4.55696" rx="2.27848" fill="#FC131F"/>
<rect x="111.645" y="159.494" width="4.55696" height="4.55696" rx="2.27848" fill="#FC131F"/>
<rect x="127.594" y="159.494" width="4.55696" height="4.55696" rx="2.27848" fill="#FC131F"/>
<rect x="143.543" y="159.494" width="4.55696" height="4.55696" rx="2.27848" fill="#FC131F"/>
<rect x="159.492" y="159.494" width="4.55696" height="4.55696" rx="2.27848" fill="#FC131F"/>
<rect x="175.441" y="159.494" width="4.55696" height="4.55696" rx="2.27848" fill="#FC131F"/>
<rect y="175.443" width="4.55696" height="4.55696" rx="2.27848" fill="#FC131F"/>
<rect x="15.9492" y="175.443" width="4.55696" height="4.55696" rx="2.27848" fill="#FC131F"/>
<rect x="31.8984" y="175.443" width="4.55696" height="4.55696" rx="2.27848" fill="#FC131F"/>
<rect x="47.8477" y="175.443" width="4.55696" height="4.55696" rx="2.27848" fill="#FC131F"/>
<rect x="63.7969" y="175.443" width="4.55696" height="4.55696" rx="2.27848" fill="#FC131F"/>
<rect x="79.7461" y="175.443" width="4.55696" height="4.55696" rx="2.27848" fill="#FC131F"/>
<rect x="95.6953" y="175.443" width="4.55696" height="4.55696" rx="2.27848" fill="#FC131F"/>
<rect x="111.645" y="175.443" width="4.55696" height="4.55696" rx="2.27848" fill="#FC131F"/>
<rect x="127.594" y="175.443" width="4.55696" height="4.55696" rx="2.27848" fill="#FC131F"/>
<rect x="143.543" y="175.443" width="4.55696" height="4.55696" rx="2.27848" fill="#FC131F"/>
<rect x="159.492" y="175.443" width="4.55696" height="4.55696" rx="2.27848" fill="#FC131F"/>
<rect x="175.441" y="175.443" width="4.55696" height="4.55696" rx="2.27848" fill="#FC131F"/>
</mask>
<g mask="url(#mask0_3671_4639)">
<circle cx="90" cy="90" r="90" fill="#FC131F"/>
</g>
</svg>
