<svg xmlns="http://www.w3.org/2000/svg" viewBox="0 0 100 100"><defs><style>.cls-1,.cls-4{fill:#fc131f;}.cls-1,.cls-2{fill-rule:evenodd;}.cls-2,.cls-3{fill:#070707;}</style></defs><g id="Слой_2" data-name="Слой 2">
<path class="cls-4" d="M82.32,0H11.93A11.94,11.94,0,0,0,0,11.93V105.3a11.94,11.94,0,0,0,11.93,11.93H82.32A11.94,11.94,0,0,0,94.25,105.3V11.93A11.94,11.94,0,0,0,82.32,0Zm8.93,11.93V26.42H3V21.36H22.35a11.23,11.23,0,0,0,11.43-11V3H82.32A9,9,0,0,1,91.25,11.93ZM11.93,3H30.78v7.38a8.22,8.22,0,0,1-8.43,8H3V11.93A9,9,0,0,1,11.93,3ZM82.32,114.23H11.93A9,9,0,0,1,3,105.3V29.42H91.25V105.3A9,9,0,0,1,82.32,114.23ZM64.38,42.65a34.52,34.52,0,1,0-17.31,64.41,34.68,34.68,0,0,0,9.45-1.33,1.66,1.66,0,0,0,.22,0,34.39,34.39,0,0,0,5.38-2.08h0a34.54,34.54,0,0,0,7.48-4.89l.13-.12c.43-.37.85-.74,1.26-1.13l0-.07a34.51,34.51,0,0,0-6.69-54.75ZM57.75,62.3,50.07,49a22.72,22.72,0,0,1,13.5,37.39,1.49,1.49,0,0,0-.06,1.91A7,7,0,0,1,64,89l4.07,7.07-.51.45-.35.3c-.29.23-.57.46-.87.68l-.36.27c-.29.23-.59.44-.9.65l-.35.24c-.32.22-.64.42-1,.63l-.31.19-1.06.61-.22.12c-.39.21-.79.42-1.19.61l-.08,0A31.88,31.88,0,0,1,57,102.45l-4.07-7a7.18,7.18,0,0,1-.38-.79,1.5,1.5,0,0,0-1.39-.93l-.29,0A22.73,22.73,0,0,1,25.24,63.33l7.68,13.3a1.49,1.49,0,0,0,1.38.75l15-.77a1.51,1.51,0,0,0,1.21-.73l7.2-12.06A1.5,1.5,0,0,0,57.75,62.3Zm16.67,26a31.21,31.21,0,0,1-4.13,5.62l-3.69-6.4,0,0a25.72,25.72,0,0,0-19.2-41.75A1.49,1.49,0,0,0,46,48L54.71,63,48.38,73.65l-13.32.69-8.67-15a1.49,1.49,0,0,0-1.33-.75,1.51,1.51,0,0,0-1.3.8,25.72,25.72,0,0,0,26.56,37.5l0,0L54,103.28a31.5,31.5,0,1,1,20.39-15ZM61.75,10.66a1.5,1.5,0,0,1,1.5-1.5H82.19a1.5,1.5,0,0,1,0,3H63.25A1.5,1.5,0,0,1,61.75,10.66Zm0,7.49a1.5,1.5,0,0,1,1.5-1.5H82.19a1.5,1.5,0,0,1,0,3H63.25A1.5,1.5,0,0,1,61.75,18.15ZM47.12,24.41a9.78,9.78,0,1,0-9.78-9.78A9.79,9.79,0,0,0,47.12,24.41Zm0-16.56a6.78,6.78,0,1,1-6.78,6.78A6.79,6.79,0,0,1,47.12,7.85Z"/></g></svg>
