<svg width="29" height="60" viewBox="0 0 29 60" fill="none" xmlns="http://www.w3.org/2000/svg">
<path fill-rule="evenodd" clip-rule="evenodd" d="M28.059 0V6.97904C28.059 7.92848 28.059 8.89026 28.059 9.8397C28.059 10.4192 27.874 10.6289 27.2822 10.6165C25.6422 10.6165 24.0023 10.6165 22.35 10.6165C21.7846 10.6178 21.2214 10.6882 20.673 10.8261C20.1776 10.9104 19.7278 11.1669 19.4029 11.5504C19.0781 11.9339 18.8991 12.4197 18.8975 12.9223C18.8358 15.1171 18.8975 17.312 18.8975 19.6301H28.1083C27.948 21.307 27.8124 22.8607 27.6521 24.4266C27.4918 25.9926 27.2822 27.5586 27.1589 29.1369C27.0972 29.852 26.8999 30.1726 26.0984 30.1603C23.6324 30.1603 21.2649 30.1603 18.7742 30.1603V60H6.27108C6.27108 59.5931 6.18476 59.1615 6.18476 58.767C6.18476 49.6054 6.18476 40.4439 6.18476 31.2824C6.18476 30.4439 6.01214 30.1356 5.11201 30.1726C3.4474 30.2589 1.78279 30.1726 0.00720487 30.1726V29.1122C0.00720487 26.4242 0.00720487 23.7361 0.00720487 21.0481C0.00720487 19.5438 -0.177752 19.6917 1.32656 19.6794C2.83088 19.6671 4.0146 19.6794 5.35862 19.6794C6.01214 19.6794 6.1601 19.4451 6.17243 18.8533C6.17243 16.3872 6.17243 13.9211 6.28341 11.455C6.28504 8.35795 7.51308 5.3876 9.69894 3.19359C11.3931 1.56268 13.605 0.576703 15.9505 0.406905C19.9332 0.110974 23.9283 0.123305 28.059 0Z" fill="#4285F4"/>
</svg>
