<svg width="48" height="48" viewBox="0 0 48 48" fill="none" xmlns="http://www.w3.org/2000/svg">
<path fill-rule="evenodd" clip-rule="evenodd" d="M24.2035 1C29.9027 1 35.6018 3.44248 39.6726 7.10619L32.7522 13.6195C30.7168 11.5841 27.4602 10.3628 24.2035 10.3628C16.469 10.3628 10.3628 16.469 10.3628 24.2035C10.3628 31.531 16.469 37.6372 24.2035 37.6372C29.4956 37.6372 34.3805 34.3805 36.4159 29.4956H24.2035V20.1327H37.2301H39.6726H46.5929C47 21.354 47 22.5752 47 24.2035C47 36.823 36.823 47 24.2035 47C11.177 47 1 36.823 1 24.2035C1 11.177 11.177 1 24.2035 1Z" stroke="#FC131F" stroke-width="2"/>
</svg>
