<svg width="59" height="60" viewBox="0 0 59 60" fill="none" xmlns="http://www.w3.org/2000/svg">
<path fill-rule="evenodd" clip-rule="evenodd" d="M3.21875 16.5505C3.39189 16.6311 11.1987 22.7322 11.9487 23.3099C12.145 23.4608 13.0827 24.2116 13.2087 24.2734C13.2842 23.9339 13.4444 23.5568 13.5884 23.2396C13.8447 22.6714 14.0796 22.1065 14.3581 21.5494C14.6427 20.9794 15.193 20.0777 15.5607 19.5728C15.7656 19.2917 15.9473 19.0345 16.1607 18.7619L16.951 17.8131C17.2819 17.4377 17.647 17.0879 18.0001 16.7322L18.5564 16.2377C19.2987 15.5151 20.551 14.718 21.445 14.1771L23.3358 13.2471C23.6795 13.1031 24.0215 12.9608 24.3721 12.8434C25.1058 12.5982 25.7984 12.3891 26.581 12.2322C29.0495 11.7368 31.927 11.7985 34.2207 12.378C35.5998 12.726 37.0741 13.26 38.2646 13.974C39.0806 14.4634 39.8289 14.9614 40.5592 15.5494L41.1429 16.0457C41.2775 16.1528 41.3864 16.2848 41.5286 16.3799C41.5964 16.2788 41.6855 16.2077 41.7755 16.1177L43.1101 14.7822C43.2121 14.6794 43.2909 14.634 43.3964 14.5277L43.9218 14.0031C44.0941 13.8291 44.2543 13.6105 44.4472 13.4485C44.5681 13.3474 44.6203 13.3037 44.7309 13.1922C44.8938 13.0294 45.1303 12.8228 45.2658 12.6471C45.4303 12.4345 45.6052 12.282 45.8092 12.1114C46.0929 11.874 46.3492 11.5774 46.5909 11.3031C46.7563 11.1154 46.9561 10.9697 47.1309 10.7931L47.6709 10.2531C47.7755 10.1494 47.8209 10.0705 47.9255 9.96683C48.2786 9.61797 48.6806 9.28626 49.0055 8.91683L49.5455 8.37683C49.6569 8.27912 50.0092 7.93369 50.0786 7.82998C49.9646 7.66026 49.6603 7.45369 49.5009 7.29769C49.3946 7.19484 49.3175 7.14598 49.2163 7.04226C48.6866 6.50398 47.0966 5.35027 46.3826 4.86598C45.7252 4.41941 45.0103 4.00199 44.3169 3.6017C42.4844 2.54485 40.4975 1.74599 38.4284 1.15028C38.2706 1.10485 38.1275 1.06543 37.9852 1.02343C37.4084 0.853712 36.7921 0.710569 36.1964 0.592284L34.2935 0.275142C33.6207 0.178285 32.9444 0.137142 32.2844 0.0642855C31.9741 0.0299999 31.5815 0.0102857 31.1641 0H28.9664L27.9378 0.0591427C27.3061 0.0634284 25.5747 0.30857 24.9601 0.411427C22.5936 0.805712 20.287 1.50342 18.0996 2.46085C17.0796 2.90742 16.0904 3.40285 15.127 3.95827C15.0061 4.02856 14.9076 4.07656 14.7816 4.15284C13.5164 4.91398 12.3087 5.75398 11.1593 6.68055L10.7136 7.04569C10.2807 7.39369 9.7793 7.85398 9.39102 8.24226C9.11416 8.51912 8.80902 8.75997 8.55102 9.05311C8.49445 9.11654 8.49102 9.13797 8.43102 9.20311L7.36645 10.3577C6.97988 10.7725 6.56931 11.3023 6.22303 11.7642C5.66589 12.5065 5.11303 13.2514 4.63817 14.0494C4.56275 14.1762 4.4916 14.2825 4.42046 14.4017C4.27903 14.6374 4.14618 14.8517 4.00732 15.0994C3.87018 15.3454 3.73218 15.5614 3.60875 15.81C3.48703 16.0534 3.36104 16.3294 3.21875 16.5505Z" fill="#FC131F"/>
<path fill-rule="evenodd" clip-rule="evenodd" d="M3.21875 43.4451L3.77761 44.5003C4.07846 45.0583 4.48646 45.6865 4.8096 46.2283C5.3676 47.1634 6.43131 48.5074 7.1436 49.3842L9.55559 51.9222C9.82216 52.1914 10.3502 52.6122 10.591 52.8368C10.6493 52.8917 10.663 52.9148 10.7307 52.9671L11.6487 53.6999C12.9002 54.6574 13.5164 55.0834 14.9127 55.9259C15.493 56.2765 16.1084 56.5671 16.7007 56.8971L17.0684 57.0702C17.7936 57.4336 18.6387 57.7748 19.3973 58.0714C20.0384 58.3216 20.4036 58.4202 21.0276 58.6311L22.7547 59.1239C23.9435 59.4205 25.1195 59.6485 26.4627 59.7951C26.9273 59.8456 28.0218 59.9742 28.4778 59.9699C28.6844 59.9691 28.801 59.9931 28.9612 59.9999H30.6687C31.0587 59.9999 31.3475 59.9716 31.7195 59.9708C32.3161 59.9708 34.3869 59.7411 34.7692 59.6914C36.0652 59.5208 38.0315 59.1025 39.2752 58.7065C40.2455 58.3971 40.7315 58.2488 41.7215 57.8528L44.7138 56.4359L45.7415 55.8428C46.3449 55.4794 46.8481 55.1031 47.4146 54.7259C47.6323 54.5811 47.8226 54.4182 48.0343 54.2657L49.5455 53.0168C49.5935 52.9757 49.8172 52.7691 49.8395 52.7399C49.6886 52.5754 45.2358 49.1511 45.0198 48.9788C44.2218 48.3445 43.4041 47.7282 42.6052 47.1034L40.4795 45.4483C40.3844 45.3745 40.2609 45.306 40.1975 45.21C40.1324 45.2537 40.0698 45.2897 39.9995 45.3317C39.9292 45.3737 39.8786 45.4114 39.7981 45.4594C38.5784 46.1803 38.1207 46.4425 36.6944 46.9757C36.0669 47.2097 35.3709 47.4334 34.6707 47.592C33.9164 47.7625 32.5715 47.9974 31.8087 48.03C31.3098 48.0514 31.1607 48.0882 30.5478 48.0891C30.3301 48.0891 30.1732 48.1285 29.9178 48.1208C29.6872 48.114 29.6812 48.0882 29.2878 48.09C28.7787 48.0925 27.9678 47.9888 27.4793 47.9194C25.4178 47.6228 24.1193 47.1051 22.4187 46.35L21.5581 45.8897C21.0061 45.5965 20.0573 44.9528 19.5644 44.5843C19.1204 44.2525 18.8418 43.9774 18.4758 43.6928C18.049 43.3611 17.3839 42.6368 16.9801 42.2177C16.1067 41.3108 15.0121 39.6248 14.3984 38.5294C14.1824 38.1428 13.3193 36.2374 13.2087 35.7249C13.0433 35.8089 12.7442 36.078 12.5744 36.2066L10.6973 37.6586C10.3664 37.9226 3.36875 43.3843 3.21875 43.4451Z" fill="#34A853"/>
<path fill-rule="evenodd" clip-rule="evenodd" d="M40.1994 45.2097C40.2629 45.3057 40.3863 45.3743 40.4814 45.448L42.6071 47.1031C43.406 47.728 44.2237 48.3443 45.0217 48.9786C45.2377 49.1508 49.6905 52.5751 49.8414 52.7397C49.9528 52.6634 50.0334 52.5623 50.1328 52.462L51.5574 51.0066C51.6148 50.9423 51.6165 50.9217 51.6774 50.8566L52.3562 50.0654C52.7488 49.57 53.2528 48.9306 53.6025 48.4017C53.6848 48.2766 53.7534 48.19 53.8365 48.0657C54.1588 47.5831 54.9174 46.3411 55.1402 45.8894L55.7299 44.71C56.4054 43.3591 57.2197 41.1837 57.6165 39.6357C58.1119 37.7063 58.4754 35.7546 58.6322 33.6914C58.7582 32.0337 58.7445 31.3197 58.7505 29.7597C58.7514 29.5223 58.7188 29.4066 58.7197 29.1906C58.7239 28.36 58.4394 25.7157 58.2705 24.9897C48.56 24.9897 38.8503 24.9897 29.1406 24.9897H30.0106V36.2697L46.0846 36.2757C46.1883 36.2972 46.1703 36.3074 46.1411 36.4352C46.1257 36.5012 46.1068 36.5946 46.0983 36.6374L45.8094 37.7586C45.5266 38.6234 45.1366 39.5611 44.69 40.3591L43.5791 42.0383C43.3031 42.4051 43.0451 42.7231 42.7229 43.042L41.0377 44.5977C40.9854 44.638 40.9451 44.6654 40.8997 44.6997L40.4892 45.0083C40.388 45.0846 40.3066 45.136 40.1994 45.2097Z" fill="#4285F4"/>
<path fill-rule="evenodd" clip-rule="evenodd" d="M3.21865 43.445C3.36865 43.3842 10.3663 37.9225 10.6972 37.6585L12.5743 36.2065C12.744 36.0779 13.0432 35.8088 13.2086 35.7248C13.1443 35.6031 13.0483 35.2713 13.002 35.1265C12.9343 34.9156 12.876 34.6705 12.8246 34.4639C12.5846 33.5039 12.2726 31.8205 12.2786 30.8099C12.2803 30.5194 12.2486 30.3119 12.2486 29.9999C12.2486 28.9654 12.3635 27.8416 12.5306 26.9528C12.6189 26.4848 12.99 24.7011 13.2086 24.2734C13.0826 24.2117 12.1449 23.4608 11.9486 23.3099C11.1986 22.7322 3.39179 16.6311 3.21865 16.5505L2.88865 17.25C2.77379 17.4771 2.65465 17.7162 2.55008 17.9614C2.26037 18.636 1.92523 19.4691 1.67666 20.178L1.4118 20.964C1.27209 21.4697 1.06123 22.0439 0.940372 22.5925C0.627516 24.0145 0.481802 24.5674 0.261517 26.0837C-0.17991 29.1188 -0.0487678 32.6708 0.55123 35.6673C0.607801 35.9502 0.662659 36.2485 0.733801 36.5339C0.886372 37.1382 0.972943 37.571 1.15209 38.1865C1.39123 39.0093 1.63894 39.743 1.9458 40.5427C2.40865 41.7505 2.63151 42.2185 3.21865 43.445Z" fill="#FFCF15"/>
</svg>
