<svg width="40" height="48" viewBox="0 0 40 48" fill="none" xmlns="http://www.w3.org/2000/svg">
<path d="M13.2667 30.0239L15.4249 29.5339C15.47 29.5237 15.5462 29.5066 15.6364 29.4777C16.2325 29.3208 16.7433 28.943 17.0612 28.4238C17.379 27.9045 17.4792 27.2845 17.3404 26.6942L17.3317 26.6568C17.2604 26.374 17.1358 26.1068 16.9642 25.869C16.7226 25.568 16.4235 25.316 16.0836 25.1272C15.6835 24.9034 15.2648 24.7133 14.832 24.5589L12.4658 23.7099C11.1379 23.225 9.81005 22.7537 8.46831 22.2927C7.59982 21.9898 6.86308 21.7227 6.22342 21.527C6.10167 21.494 5.98086 21.4576 5.86112 21.4181C5.08797 21.1867 4.54365 21.0898 4.08427 21.0864C3.77724 21.0751 3.4714 21.1297 3.18805 21.2463C2.892 21.3721 2.62622 21.5576 2.40797 21.7907C2.29969 21.9114 2.19785 22.0375 2.10286 22.1685C1.91818 22.4469 1.76584 22.7448 1.64869 23.0566C1.20907 24.331 0.989927 25.6686 1.00036 27.0141C1.00902 28.2289 1.04196 29.7891 1.72323 30.8474C1.88791 31.1196 2.10807 31.3544 2.36983 31.5364C2.85521 31.8648 3.34406 31.909 3.85544 31.9448C4.61819 31.9975 5.35493 31.8155 6.09167 31.647L13.2615 30.0222L13.2667 30.0239ZM37.3451 18.7792C36.756 17.5655 35.9638 16.4573 35.0014 15.5006C34.877 15.379 34.7438 15.2664 34.6027 15.1638C34.4723 15.0678 34.3369 14.9786 34.1971 14.8966C34.053 14.8192 33.9049 14.7493 33.7533 14.6874C33.454 14.5719 33.1332 14.5197 32.812 14.5342C32.5051 14.5512 32.2053 14.6363 31.9331 14.7775C31.5223 14.9783 31.0767 15.3016 30.4839 15.8409C30.4024 15.9209 30.3001 16.0111 30.2065 16.0961C29.7194 16.547 29.1751 17.1034 28.5285 17.7499C27.5282 18.7418 26.5453 19.7388 25.5659 20.7444L23.8151 22.5275C23.4954 22.8527 23.2042 23.2038 22.9448 23.5772C22.7227 23.8932 22.5655 24.2486 22.482 24.6236C22.4351 24.9117 22.4422 25.2057 22.5028 25.4913L22.5115 25.5287C22.6498 26.1184 23.0159 26.6323 23.5326 26.9624C24.0493 27.2924 24.6763 27.4128 25.2816 27.2982C25.3545 27.2881 25.4268 27.2745 25.4983 27.2574L34.828 25.1408C35.5648 24.9741 36.3102 24.821 36.9707 24.4432C37.4144 24.1931 37.8357 23.943 38.1252 23.4394C38.2794 23.162 38.3727 22.856 38.3991 22.5411C38.543 21.2922 37.879 19.875 37.3451 18.7792V18.7792ZM20.6427 22.6295C21.3188 21.7958 21.3188 20.5538 21.3777 19.5364C21.5823 16.1421 21.7955 12.7477 21.9671 9.35173C22.0313 8.06546 22.1717 6.79621 22.0937 5.49974C22.0296 4.43125 22.0226 3.20283 21.3344 2.32491C20.121 0.776623 17.5311 0.904229 15.7646 1.14583C15.2197 1.21971 14.6788 1.31964 14.1438 1.44528C13.6064 1.57118 13.0725 1.709 12.5525 1.87403C10.8571 2.41848 8.47351 3.41891 8.07134 5.3364C7.84251 6.4202 8.38337 7.52782 8.79941 8.51804C9.30733 9.71583 9.999 10.7962 10.63 11.9243C12.2994 14.9034 13.9982 17.8656 15.6918 20.8294C16.1998 21.7142 16.7493 22.8337 17.7287 23.2931C17.7946 23.3203 17.8605 23.3441 17.9281 23.3663C18.3666 23.5296 18.8468 23.5602 19.3027 23.4564L19.3842 23.4394C19.8072 23.3254 20.1886 23.0991 20.4885 22.7878C20.5439 22.7367 20.5942 22.6857 20.6445 22.6295H20.6427ZM19.8332 31.7168C19.5693 31.3525 19.1948 31.0794 18.7633 30.9367C18.3317 30.794 17.8652 30.7889 17.4305 30.9222C17.3283 30.9553 17.2286 30.9956 17.1324 31.043C16.9834 31.1176 16.8413 31.2047 16.7077 31.3033C16.3261 31.5985 15.9852 31.9411 15.6936 32.3225C15.619 32.4161 15.5497 32.5403 15.4595 32.6219L13.9583 34.6466C13.1089 35.7831 12.2682 36.9214 11.4378 38.0766C10.8935 38.8236 10.4254 39.4548 10.0527 40.0111C9.9834 40.1166 9.91059 40.2323 9.84472 40.3276C9.39921 41.0014 9.14785 41.4948 9.01783 41.9337C8.92071 42.2254 8.88994 42.5343 8.92769 42.8389C8.96929 43.1554 9.07851 43.4599 9.24666 43.7338C9.3368 43.8699 9.43388 44.0027 9.53789 44.1303C9.76254 44.3841 10.0155 44.6123 10.292 44.8108C11.3286 45.5186 12.4623 46.0273 13.655 46.4204C14.6483 46.7436 15.6797 46.9376 16.7233 46.9954C16.9018 47.0039 17.0804 47.0005 17.2572 46.9852C17.4212 46.9702 17.5843 46.9475 17.746 46.9172C17.9079 46.8802 18.0676 46.8348 18.2245 46.7811C18.5295 46.6689 18.8071 46.495 19.0392 46.2706C19.2594 46.0546 19.4293 45.7942 19.535 45.5067C19.7084 45.0814 19.8228 44.5437 19.8991 43.744C19.9043 43.63 19.9216 43.4939 19.9337 43.3697C19.9927 42.7062 20.0204 41.9235 20.062 41.0082C20.1366 39.5977 20.1938 38.194 20.2388 36.787L20.3359 34.2825C20.3584 33.7074 20.3394 33.0677 20.1764 32.4943C20.1048 32.2189 19.9889 31.9564 19.8332 31.7168V31.7168ZM36.7748 35.6351C36.4628 35.2965 36.019 34.9614 35.3186 34.5462C35.2181 34.4901 35.0985 34.4169 34.9893 34.3523C34.4068 34.0069 33.7047 33.6462 32.8848 33.2089C31.6245 32.5283 30.3643 31.8682 29.0901 31.2115L26.8418 30.0409C26.7256 30.0069 26.6078 29.9252 26.4968 29.8724C26.0645 29.6557 25.6053 29.495 25.1308 29.3943C24.9673 29.3634 24.8015 29.3463 24.635 29.3433C24.5272 29.3428 24.4195 29.349 24.3126 29.362C23.8625 29.4302 23.4458 29.6362 23.1221 29.9506C22.7983 30.265 22.584 30.6718 22.5097 31.1128C22.4768 31.3935 22.4872 31.6776 22.5427 31.9533C22.6519 32.542 22.9188 33.1221 23.1962 33.6309L24.3958 35.841C25.0649 37.0864 25.741 38.3251 26.4344 39.5603C26.8816 40.365 27.2544 41.0541 27.6028 41.6258C27.6687 41.733 27.7432 41.8487 27.8004 41.9491C28.2251 42.6347 28.5649 43.0669 28.9098 43.3782C29.1396 43.5952 29.4154 43.7595 29.7175 43.8595C30.0196 43.9595 30.3405 43.9927 30.6572 43.9567C30.8222 43.937 30.9859 43.9086 31.1478 43.8716C31.4794 43.7845 31.7999 43.6607 32.103 43.5024C33.0154 43.0005 33.8565 42.3826 34.6044 41.6649C35.5024 40.7972 36.2963 39.8512 36.9135 38.7691C37.0001 38.616 37.0729 38.4578 37.1354 38.2927C37.1934 38.1416 37.2438 37.9877 37.2862 37.8316C37.3226 37.6717 37.3503 37.5118 37.3694 37.3501C37.4005 37.0325 37.3633 36.7119 37.2602 36.4093C37.1584 36.1188 36.9927 35.8539 36.7748 35.6334V35.6351Z" stroke="#FC131F" stroke-width="2"/>
</svg>
