<svg width="49" height="60" viewBox="0 0 49 60" fill="none" xmlns="http://www.w3.org/2000/svg">
<path d="M16 37.8572L18.8151 37.2181C18.8739 37.2048 18.9733 37.1826 19.0909 37.1448C19.8685 36.9402 20.5347 36.4474 20.9494 35.7701C21.364 35.0928 21.4946 34.2841 21.3136 33.5142L21.3023 33.4654C21.2092 33.0965 21.0466 32.748 20.8229 32.4379C20.5077 32.0452 20.1176 31.7165 19.6743 31.4703C19.1524 31.1784 18.6063 30.9305 18.0418 30.7291L14.9554 29.6217C13.2234 28.9892 11.4914 28.3744 9.74127 27.773C8.60846 27.378 7.6475 27.0296 6.81316 26.7744C6.65435 26.7313 6.49677 26.6839 6.34059 26.6324C5.33214 26.3305 4.62215 26.204 4.02296 26.1996C3.62248 26.185 3.22357 26.2562 2.85397 26.4082C2.46783 26.5723 2.12115 26.8142 1.83648 27.1184C1.69525 27.2757 1.56241 27.4402 1.43852 27.611C1.19763 27.9743 0.998926 28.3628 0.846116 28.7695C0.272697 30.4317 -0.0131384 32.1765 0.000463543 33.9314C0.011769 35.5159 0.0547295 37.551 0.943341 38.9313C1.15815 39.2864 1.44531 39.5927 1.78673 39.8301C2.41984 40.2584 3.05747 40.3161 3.72449 40.3627C4.71938 40.4315 5.68034 40.1941 6.64131 39.9744L15.9932 37.855L16 37.8572ZM47.4067 23.1903C46.6382 21.6072 45.6049 20.1617 44.3497 18.9139C44.1874 18.7552 44.0136 18.6083 43.8296 18.4745C43.6596 18.3493 43.483 18.233 43.3005 18.126C43.1126 18.025 42.9194 17.9339 42.7217 17.8531C42.3313 17.7024 41.9129 17.6344 41.4939 17.6533C41.0937 17.6755 40.7025 17.7865 40.3475 17.9707C39.8116 18.2326 39.2305 18.6542 38.4572 19.3577C38.351 19.462 38.2176 19.5796 38.0955 19.6906C37.4601 20.2787 36.7501 21.0044 35.9067 21.8477C34.6021 23.1415 33.32 24.442 32.0425 25.7535L29.7588 28.0793C29.3418 28.5035 28.962 28.9615 28.6237 29.4486C28.334 29.8607 28.129 30.3243 28.02 30.8134C27.9589 31.1891 27.968 31.5727 28.0471 31.9452L28.0584 31.994C28.2389 32.7631 28.7164 33.4335 29.3903 33.8639C30.0643 34.2944 30.8821 34.4515 31.6717 34.302C31.7667 34.2889 31.861 34.2711 31.9543 34.2488L44.1235 31.488C45.0845 31.2705 46.0568 31.0708 46.9183 30.5781C47.4971 30.2519 48.0466 29.9257 48.4242 29.2688C48.6253 28.907 48.747 28.5078 48.7814 28.097C48.9691 26.4681 48.1031 24.6195 47.4067 23.1903ZM25.621 28.2124C26.5028 27.125 26.5028 25.505 26.5797 24.1779C26.8465 19.7505 27.1246 15.3231 27.3485 10.8936C27.4321 9.21582 27.6153 7.56028 27.5135 5.86922C27.4299 4.47555 27.4208 2.87326 26.5232 1.72814C24.9404 -0.291362 21.5623 -0.124919 19.2582 0.190212C18.5475 0.286573 17.8419 0.416922 17.1441 0.580796C16.4432 0.745019 15.7468 0.924777 15.0684 1.14004C12.8571 1.8502 9.74806 3.1551 9.22348 5.65618C8.92502 7.06983 9.63048 8.51455 10.1731 9.80614C10.8357 11.3685 11.7378 12.7777 12.5609 14.249C14.7383 18.1349 16.9542 21.9986 19.1633 25.8645C19.8258 27.0185 20.5426 28.4788 21.8201 29.0779C21.906 29.1135 21.9919 29.1445 22.0801 29.1734C22.6522 29.3864 23.2785 29.4264 23.8731 29.291L23.9794 29.2688C24.5311 29.1201 25.0286 28.825 25.4197 28.4188C25.4921 28.3523 25.5577 28.2857 25.6232 28.2124H25.621ZM24.565 40.0654C24.2209 39.5902 23.7324 39.234 23.1695 39.0479C22.6066 38.8617 21.9981 38.8551 21.4312 39.029C21.2978 39.0721 21.1678 39.1248 21.0422 39.1865C20.8479 39.2838 20.6626 39.3974 20.4883 39.5261C19.9905 39.911 19.5459 40.3579 19.1655 40.8554C19.0683 40.9775 18.9779 41.1395 18.8603 41.246L16.9022 43.8869C15.7942 45.3693 14.6976 46.854 13.6145 48.3608C12.9046 49.3351 12.2941 50.1584 11.8079 50.8841C11.7175 51.0217 11.6225 51.1726 11.5366 51.2969C10.9555 52.1757 10.6276 52.8193 10.458 53.3918C10.3314 53.7722 10.2912 54.1752 10.3405 54.5725C10.3947 54.9852 10.5372 55.3825 10.7565 55.7398C10.8741 55.9173 11.0007 56.0904 11.1364 56.2569C11.4294 56.5879 11.7593 56.8857 12.12 57.1446C13.4721 58.0678 14.9508 58.7313 16.5065 59.2439C17.8021 59.6656 19.1474 59.9186 20.5086 59.9941C20.7415 60.0051 20.9744 60.0007 21.205 59.9807C21.4189 59.9611 21.6317 59.9315 21.8427 59.892C22.0538 59.8437 22.2621 59.7845 22.4667 59.7144C22.8646 59.5681 23.2267 59.3413 23.5295 59.0487C23.8166 58.7668 24.0382 58.4273 24.1761 58.0522C24.4022 57.4974 24.5515 56.7961 24.651 55.7531C24.6577 55.6044 24.6804 55.4269 24.6962 55.2649C24.7731 54.3994 24.8092 53.3785 24.8635 52.1846C24.9607 50.3448 25.0353 48.514 25.0941 46.6787L25.2208 43.412C25.2502 42.6619 25.2253 41.8274 25.0127 41.0795C24.9193 40.7203 24.7682 40.378 24.565 40.0654ZM46.6628 45.1762C46.2558 44.7346 45.6769 44.2974 44.7634 43.7559C44.6323 43.6827 44.4763 43.5873 44.3338 43.5029C43.5741 43.0524 42.6583 42.582 41.5888 42.0116C39.945 41.1239 38.3012 40.2629 36.6393 39.4062L33.7067 37.8794C33.5552 37.835 33.4014 37.7285 33.2567 37.6597C32.6928 37.377 32.0939 37.1674 31.475 37.0361C31.2617 36.9957 31.0454 36.9734 30.8283 36.9695C30.6877 36.9688 30.5472 36.977 30.4077 36.9939C29.8206 37.0829 29.2772 37.3516 28.8549 37.7617C28.4326 38.1718 28.1531 38.7023 28.0562 39.2775C28.0132 39.6437 28.0268 40.0143 28.0991 40.3738C28.2416 41.1417 28.5898 41.8984 28.9516 42.562L30.5163 45.4448C31.389 47.0693 32.2709 48.6848 33.1753 50.296C33.7587 51.3457 34.2448 52.2445 34.6993 52.9902C34.7852 53.13 34.8824 53.2809 34.9571 53.4118C35.511 54.3062 35.9542 54.8698 36.4041 55.276C36.7039 55.5589 37.0636 55.7733 37.4577 55.9037C37.8517 56.0342 38.2703 56.0775 38.6833 56.0305C38.8985 56.0048 39.1121 55.9677 39.3232 55.9195C39.7558 55.8059 40.1738 55.6443 40.5691 55.438C41.7593 54.7832 42.8563 53.9773 43.8319 53.0412C45.0031 51.9094 46.0387 50.6755 46.8437 49.2641C46.9567 49.0643 47.0517 48.858 47.1331 48.6427C47.2088 48.4456 47.2745 48.2448 47.3298 48.0413C47.3773 47.8327 47.4135 47.6241 47.4383 47.4132C47.4789 46.9989 47.4303 46.5808 47.2959 46.186C47.1631 45.8071 46.947 45.4616 46.6628 45.174V45.1762Z" fill="#FC131F"/>
</svg>
